<?xml version="1.0" encoding="UTF-8" standalone="no"?>
<svg
   xmlns:dc="http://purl.org/dc/elements/1.1/"
   xmlns:cc="http://creativecommons.org/ns#"
   xmlns:rdf="http://www.w3.org/1999/02/22-rdf-syntax-ns#"
   xmlns:svg="http://www.w3.org/2000/svg"
   xmlns="http://www.w3.org/2000/svg"
   viewBox="0 0 450 450.00253"
   height="450.00253"
   width="450"
   xml:space="preserve"
   version="1.1"
   id="svg5354"><metadata
     id="metadata5360"><rdf:RDF><cc:Work
         rdf:about=""><dc:format>image/svg+xml</dc:format><dc:type
           rdf:resource="http://purl.org/dc/dcmitype/StillImage" /><dc:title></dc:title></cc:Work></rdf:RDF></metadata><defs
     id="defs5358" /><g
     transform="matrix(1.25,0,0,-1.25,0,450.00252)"
     id="g5362"><g
       id="g5364"><path
         id="path5366"
         style="fill:#f0c900;fill-opacity:1;fill-rule:evenodd;stroke:none"
         d="m 180,0.002 c -99.41,0 -180,80.586 -180,180 0,99.41 80.59,180 180,180 99.41,0 180,-80.59 180,-180 0,-99.414 -80.59,-180 -180,-180 z" /><path
         id="path5368"
         style="fill:#008754;fill-opacity:1;fill-rule:evenodd;stroke:none"
         d="m 352,180.002 c 0,96.566 -78.785,172 -172.027,172 C 86.727,352.002 8,276.568 8,180.002 c 0,-96.566 78.727,-172 171.973,-172 93.242,0 172.027,75.434 172.027,172 z m -48,0 c 0,-68.484 -55.516,-124 -124,-124 -68.484,0 -124,55.516 -124,124 0,68.484 55.516,124 124,124 68.484,0 124,-55.516 124,-124 z" /><path
         id="path5370"
         style="fill:#008754;fill-opacity:1;fill-rule:nonzero;stroke:none"
         d="m 113.258,260.002 c -0.696,0 -1.258,-0.562 -1.258,-1.262 l 0,-157.48 c 0,-0.695 0.562,-1.258 1.258,-1.258 l 33.484,0 c 0.696,0 1.258,0.563 1.258,1.258 l 0,60.742 64,0 0,-60.742 c 0,-0.695 0.562,-1.258 1.258,-1.258 l 33.484,0 c 0.696,0 1.258,0.563 1.258,1.258 l 0,157.48 c 0,0.7 -0.562,1.262 -1.258,1.262 l -33.484,0 c -0.696,0 -1.258,-0.562 -1.258,-1.262 l 0,-60.738 -64,0 0,60.738 c 0,0.7 -0.562,1.262 -1.258,1.262 l -33.484,0 z" /></g></g></svg>