<?xml version="1.0" encoding="UTF-8" standalone="no"?>
<!DOCTYPE svg PUBLIC "-//W3C//DTD SVG 1.1//EN" "http://www.w3.org/Graphics/SVG/1.1/DTD/svg11.dtd">
<svg width="100%" height="100%" viewBox="0 0 600 600" version="1.1" xmlns="http://www.w3.org/2000/svg" xmlns:xlink="http://www.w3.org/1999/xlink" xml:space="preserve" xmlns:serif="http://www.serif.com/" style="fill-rule:evenodd;clip-rule:evenodd;stroke-linejoin:round;stroke-miterlimit:2;">
    <rect x="0" y="0" width="600" height="600" style="fill:rgb(0,84,102);"/>
    <g transform="matrix(0.666132,0,0,0.666132,100.309,100.16)">
        <g transform="matrix(4.16667,0,0,4.16667,300.158,45.775)">
            <path d="M0,122.028C-32.576,122.028 -59.39,94.292 -59.39,61.901C-59.39,29.508 -32.576,2.144 0,2.144C32.203,2.144 58.826,29.508 58.826,61.901C58.826,94.292 32.203,122.028 0,122.028M6.693,-9.579L6.693,-144.699L-6.387,-144.699L-6.387,-9.579C-43.184,-6.415 -72.038,24.3 -72.038,61.901C-72.038,99.315 -43.184,130.587 -6.387,133.755L-6.387,266.727L6.693,266.727L6.693,133.755C42.634,130.786 71.855,99.315 71.855,61.901C71.855,24.124 42.634,-6.602 6.141,-9.579" style="fill:white;fill-rule:nonzero;"/>
        </g>
        <g transform="matrix(4.16667,0,0,4.16667,248.388,282.594)">
            <path d="M0,10.125C-4.791,9.906 -9.069,13.443 -14.292,20.332L-27.319,11.768C-20.428,-3.126 -12.615,-9.643 -3.113,-9.643C7.122,-9.643 17.357,0.219 24.809,0.219C29.271,0.219 33.556,-2.011 39.143,-10.207L51.988,-1.647C44.911,11.947 37.655,20.139 26.296,20.139C15.306,20.139 5.82,10.125 0,10.125" style="fill:white;fill-rule:nonzero;"/>
        </g>
    </g>
</svg>
