<?xml version="1.0" encoding="UTF-8"?>
<svg id="Layer_1" data-name="Layer 1" xmlns="http://www.w3.org/2000/svg" viewBox="0 0 295.57031 307.46436">
  <defs>
    <style>
      .cls-1 {
        fill: #fff;
      }
    </style>
  </defs>
  <g>
    <path class="cls-1" d="M145.11447,141.13839h-40.64844c-6.62695,0-12-5.37305-12-12,0-1.94238-1.58105-3.52344-3.52344-3.52344s-3.52246,1.58105-3.52246,3.52344c0,6.62695-5.37305,12-12,12h-18.60938c-3.88574,0-7.53027-1.88086-9.78125-5.04883l-22.44629-31.58398c-2.60156-3.65918-2.94141-8.46484-.88184-12.45508,2.05859-3.98926,6.17285-6.49609,10.66309-6.49609H167.56076c4.49023,0,8.60449,2.50684,10.66406,6.49707,2.05859,3.99023,1.71777,8.79688-.88379,12.45605l-10.76367,15.14062c-.0459,.06641-.0918,.13281-.13867,.19922l-11.54199,16.24219c-2.25098,3.16699-5.89648,5.04883-9.78223,5.04883Zm-31.4043-24h25.20996l5.38965-7.58398h-36.0459c2.21875,2.18945,4.06836,4.75098,5.44629,7.58398Zm-52.70605,0h3.17188c1.37793-2.83301,3.22754-5.39453,5.44629-7.58398h-14.00781l5.38965,7.58398Z"/>
    <path class="cls-1" d="M88.9426,156.66086c-15.17578,0-27.52246-12.34668-27.52246-27.52246,0-6.62695,5.37305-12,12-12h31.0459c6.62695,0,12,5.37305,12,12,0,15.17578-12.34668,27.52246-27.52344,27.52246Z"/>
    <path class="cls-1" d="M272.97287,79.51437h-111.39062c-3.25098,0-6.3623-1.31934-8.62305-3.6543-2.26074-2.33594-3.47656-5.48926-3.37012-8.73828,.80664-24.6377,6.61328-41.50293,10.00391-49.36328,1.89648-4.39844,6.22852-7.24805,11.01855-7.24805h93.33301c4.79004,0,9.12109,2.84863,11.01855,7.24707,3.38965,7.85742,9.19531,24.71973,10.00293,49.36426,.10645,3.24902-1.10938,6.40137-3.37012,8.7373s-5.37207,3.65527-8.62305,3.65527Zm-98.4502-24h85.50977c-1.08008-8.86426-2.84082-15.92871-4.44336-21.00391h-76.62109c-1.60352,5.0752-3.36523,12.14258-4.44531,21.00391Z"/>
    <path class="cls-1" d="M104.46604,141.13839h-31.0459c-6.62695,0-12-5.37305-12-12,0-15.17676,12.34668-27.52344,27.52246-27.52344,15.17676,0,27.52344,12.34668,27.52344,27.52344,0,6.62695-5.37305,12-12,12Z"/>
    <path class="cls-1" d="M149.72092,307.46457H50.21115c-6.62695,0-12-5.37305-12-12v-10.51074c0-6.62695,5.37305-12,12-12h32.49805v-65.7041L2.21897,93.99484c-2.60156-3.65918-2.94141-8.46484-.88184-12.45508,2.05859-3.98926,6.17285-6.49609,10.66309-6.49609h126.98535v-2.06641c-.00098-.07324-.00195-.14551-.00195-.20801v-5.25488c0-.67676,.05566-1.33887,.16309-1.98535,1.34863-34.41016,11.80078-54.38477,13.00586-56.57812l1.49414-2.72363C155.75412,2.38644,159.78635-.00028,164.16721-.00028h106.22168c4.38086,0,8.41309,2.38672,10.52051,6.22754l1.49609,2.72656c1.2041,2.19238,11.6709,22.19336,13.00684,56.65137,.10059,.62207,.15332,1.25879,.15332,1.90918v4.89258c.00293,.12207,.00488,.24316,.00488,.36719v5.25488c0,.92773-.10547,1.83105-.30469,2.69824-1.00098,14.3623-4.5166,29.86328-8.22852,46.23047-5.92188,26.10059-13.29199,58.58203-13.29199,98.53516v5.25586c0,6.62695-5.37305,12-12,12h-88.94141c-6.62695,0-12-5.37305-12-12v-5.25586c0-26.60352-3.28711-49.95898-7.07422-69.62207l-36.50977,51.37207v65.71094h32.50098c6.62695,0,12,5.37305,12,12v10.51074c0,6.62695-5.37305,12-12,12Zm35.01855-88.71582h65.07031c.75195-39.49707,7.96484-71.28613,13.82227-97.10059,3.6084-15.91113,6.75293-29.77148,7.66016-42.13379h-108.04004c.14258,1.94043,.34473,3.96387,.60352,6.04004h3.70508c4.49023,0,8.60449,2.50684,10.66406,6.49707,2.05859,3.99023,1.71777,8.79688-.88379,12.45605l-9.47461,13.32715c1.76465,1.61816,3.04199,3.76074,3.59277,6.19434,5.33008,23.5459,12.52637,55.33203,13.28027,94.71973Zm-112.64062-67.8584l27.86328,39.20605,34.79395-48.95801h-21.0459c-4.4668,9.18066-13.88965,15.52246-24.76758,15.52246-6.33887,0-12.18555-2.15527-16.84375-5.77051Zm-11.09473-33.75195h12.41602c6.62695,0,12,5.37305,12,12,0,1.94238,1.58008,3.52246,3.52246,3.52246s3.52344-1.58008,3.52344-3.52246c0-6.62695,5.37305-12,12-12h34.4541l5.38965-7.58398H55.61447l5.38965,7.58398Zm113.51855-61.62402h85.50977c-1.08008-8.86426-2.84082-15.92871-4.44336-21.00391h-76.62109c-1.60352,5.0752-3.36523,12.1416-4.44531,21.00391Z"/>
  </g>
  <g>
    <path class="cls-1" d="M32.36475,97.5542l22.44629,31.58398h18.60889c0-8.57275,6.9502-15.52295,15.52295-15.52295s15.52295,6.9502,15.52295,15.52295h40.64844l11.54248-16.2417-.00098-.00293,10.90479-15.33936H32.36475Z"/>
    <path class="cls-1" d="M88.94287,144.66113c8.57275,0,15.52295-6.9502,15.52295-15.52295h-31.0459c0,8.57275,6.9502,15.52295,15.52295,15.52295Z"/>
    <path class="cls-1" d="M170.61133,22.51074c-2.58447,5.99365-8.26416,21.66064-9.02881,45.00342h111.39062c-.76465-23.33447-6.43994-39.00146-9.02881-45.00342h-93.33301Z"/>
    <path class="cls-1" d="M88.94287,113.61523c-8.57275,0-15.52295,6.9502-15.52295,15.52295h31.0459c0-8.57275-6.9502-15.52295-15.52295-15.52295Z"/>
    <path class="cls-1" d="M283.56592,72.55762v-5.04346h-.09521c-1.00488-33.07617-11.13281-51.96289-11.58545-52.78809l-1.49658-2.72607h-106.22119l-1.49658,2.72607c-.45264,.8252-10.58105,19.71191-11.58594,52.78809h-.10156v5.25537c0,.02783,.00244,.05762,.00244,.08545v5.17432h.14941c.1499,2.86133,.41992,5.85596,.81299,9.01416H12l82.70947,116.37598v81.53418H50.21094v10.51074h99.51025v-10.51074h-44.50098v-81.54053l54.53516-76.73438c5.94727,26.26904,13.04834,58.71826,13.04834,98.81445v5.25537h88.94189v-5.25537c0-41.29199,7.53418-74.50391,13.58838-101.18945,3.91602-17.26514,7.34424-32.43604,8.0752-46.27441h.16113v-5.25537c0-.07422-.00439-.14209-.00439-.21631Zm-126.91016,40.33594l.00098,.00293-11.54248,16.2417h-40.64844c0,8.57275-6.9502,15.52295-15.52295,15.52295s-15.52295-6.9502-15.52295-15.52295h-18.60889l-22.44629-31.58398H167.56055l-10.90479,15.33936Zm4.92676-45.37939c.76465-23.34277,6.44434-39.00977,9.02881-45.00342h93.33301c2.58887,6.00195,8.26416,21.66895,9.02881,45.00342h-111.39062Z"/>
  </g>
  <g>
    <path d="M88.94287,113.61523c-8.57275,0-15.52295,6.9502-15.52295,15.52295h31.0459c0-8.57275-6.9502-15.52295-15.52295-15.52295Z"/>
    <path d="M283.56592,72.55762v-5.04346h-.09521c-1.00488-33.07617-11.13281-51.96289-11.58545-52.78809l-1.49658-2.72607h-106.22119l-1.49658,2.72607c-.45264,.8252-10.58105,19.71191-11.58594,52.78809h-.10156v5.25537c0,.02783,.00244,.05762,.00244,.08545v5.17432h.14941c.1499,2.86133,.41992,5.85596,.81299,9.01416H12l82.70947,116.37598v81.53418H50.21094v10.51074h99.51025v-10.51074h-44.50098v-81.54053l54.53516-76.73438c5.94727,26.26904,13.04834,58.71826,13.04834,98.81445v5.25537h88.94189v-5.25537c0-41.29199,7.53418-74.50391,13.58838-101.18945,3.91602-17.26514,7.34424-32.43604,8.0752-46.27441h.16113v-5.25537c0-.07422-.00439-.14209-.00439-.21631Zm-126.91016,40.33594l.00098,.00293-11.54248,16.2417h-40.64844c0,8.57275-6.9502,15.52295-15.52295,15.52295s-15.52295-6.9502-15.52295-15.52295h-18.60889l-22.44629-31.58398H167.56055l-10.90479,15.33936Zm4.92676-45.37939c.76465-23.34277,6.44434-39.00977,9.02881-45.00342h93.33301c2.58887,6.00195,8.26416,21.66895,9.02881,45.00342h-111.39062Z"/>
  </g>
</svg>