<?xml version="1.0" encoding="UTF-8"?>
<svg id="Layer_1" data-name="Layer 1" xmlns="http://www.w3.org/2000/svg" viewBox="0 0 152.86243 402.64258">
  <defs>
    <style>
      .cls-1 {
        fill: #fff;
      }

      .cls-2 {
        fill: none;
        stroke: #fff;
        stroke-width: 24px;
      }
    </style>
  </defs>
  <g>
    <rect class="cls-2" x="64.43121" y="12" width="24" height="378.64258"/>
    <rect class="cls-2" x="12" y="36.07018" width="128.86243" height="201.68219" rx="28.34646" ry="28.34646"/>
    <path class="cls-2" d="M94.17858,354.29697H58.68385c-15.47271,0-28.01582,12.54311-28.01582,28.01582v8.32949H122.1944v-8.32949c0-15.47271-12.54311-28.01582-28.01582-28.01582Z"/>
    <g>
      <path class="cls-2" d="M81.64362,91.45376V58.77456h-10.4248v32.6792c-22.78662,2.59668-40.55078,21.98633-40.55078,45.45654s17.76416,42.86133,40.55078,45.45898v32.67871h10.4248v-32.67871c22.78784-2.59766,40.55078-21.98828,40.55078-45.45898s-17.76294-42.85986-40.55078-45.45654Zm-5.2124,80.7959c-19.4856,0-35.33838-15.85303-35.33838-35.33936,0-19.48438,15.85278-35.3374,35.33838-35.3374s35.33838,15.85303,35.33838,35.3374c0,19.48633-15.85278,35.33936-35.33838,35.33936Z"/>
      <path class="cls-2" d="M84.68976,133.70424c-4.93115,0-11.70898-6.5293-18.4856-6.5293-6.29004,0-11.46313,4.31494-16.02637,14.17578l8.62598,5.66992c3.45557-4.55957,6.28979-6.90332,9.46143-6.75879,3.85352,0,10.13452,6.63184,17.41187,6.63184,7.51953,0,12.32373-5.4248,17.00757-14.4248l-8.50562-5.6665c-3.69775,5.42578-6.53198,6.90186-9.48926,6.90186Z"/>
      <path class="cls-2" d="M85.67706,146.8937c-7.27734,0-13.55835-6.63184-17.41187-6.63184-3.17163-.14453-6.00586,2.19922-9.46143,6.75879l-8.62598-5.66992c4.56323-9.86084,9.73633-14.17578,16.02637-14.17578,6.77661,0,13.55444,6.5293,18.4856,6.5293,2.95728,0,5.7915-1.47607,9.48926-6.90186l8.50562,5.6665c-4.68384,9-9.48804,14.4248-17.00757,14.4248Z"/>
    </g>
  </g>
  <g>
    <rect x="64.43121" y="12" width="24" height="378.64258"/>
    <rect x="12" y="36.07018" width="128.86243" height="201.68219" rx="28.34646" ry="28.34646"/>
    <path d="M94.17858,354.29697H58.68385c-15.47271,0-28.01582,12.54311-28.01582,28.01582v8.32949H122.1944v-8.32949c0-15.47271-12.54311-28.01582-28.01582-28.01582Z"/>
    <g>
      <path class="cls-1" d="M81.64362,91.45376V58.77456h-10.4248v32.6792c-22.78662,2.59668-40.55078,21.98633-40.55078,45.45654s17.76416,42.86133,40.55078,45.45898v32.67871h10.4248v-32.67871c22.78784-2.59766,40.55078-21.98828,40.55078-45.45898s-17.76294-42.85986-40.55078-45.45654Zm-5.2124,80.7959c-19.4856,0-35.33838-15.85303-35.33838-35.33936,0-19.48438,15.85278-35.3374,35.33838-35.3374s35.33838,15.85303,35.33838,35.3374c0,19.48633-15.85278,35.33936-35.33838,35.33936Z"/>
      <path class="cls-1" d="M84.68976,133.70424c-4.93115,0-11.70898-6.5293-18.4856-6.5293-6.29004,0-11.46313,4.31494-16.02637,14.17578l8.62598,5.66992c3.45557-4.55957,6.28979-6.90332,9.46143-6.75879,3.85352,0,10.13452,6.63184,17.41187,6.63184,7.51953,0,12.32373-5.4248,17.00757-14.4248l-8.50562-5.6665c-3.69775,5.42578-6.53198,6.90186-9.48926,6.90186Z"/>
      <path class="cls-1" d="M85.67706,146.8937c-7.27734,0-13.55835-6.63184-17.41187-6.63184-3.17163-.14453-6.00586,2.19922-9.46143,6.75879l-8.62598-5.66992c4.56323-9.86084,9.73633-14.17578,16.02637-14.17578,6.77661,0,13.55444,6.5293,18.4856,6.5293,2.95728,0,5.7915-1.47607,9.48926-6.90186l8.50562,5.6665c-4.68384,9-9.48804,14.4248-17.00757,14.4248Z"/>
    </g>
  </g>
</svg>