<?xml version="1.0" encoding="UTF-8" standalone="no"?><!DOCTYPE svg PUBLIC "-//W3C//DTD SVG 1.1//EN" "http://www.w3.org/Graphics/SVG/1.1/DTD/svg11.dtd"><svg width="100%" height="100%" viewBox="0 0 493 557" version="1.1" xmlns="http://www.w3.org/2000/svg" xmlns:xlink="http://www.w3.org/1999/xlink" xml:space="preserve" xmlns:serif="http://www.serif.com/" style="fill-rule:evenodd;clip-rule:evenodd;stroke-linejoin:round;stroke-miterlimit:2;"><g><rect x="64.736" y="58.449" width="352.323" height="353.939" style="fill:#fff;"/><path d="M118.15,22.15c-53,-0 -96,43 -96,96l0,288c0,29.8 20.4,54.9 48,62l0,34c0,17.7 14.3,32 32,32l16,0c17.7,0 32,-14.3 32,-32l0,-32l192,0l0,32c0,17.7 14.3,32 32,32l16,0c17.7,0 32,-14.3 32,-32l0,-34c27.6,-7.1 48,-32.2 48,-62l0,-288c0,-53 -43,-96 -96,-96l-256,0Zm-32,176c0,-17.7 14.3,-32 32,-32l104,0l0,112l-104,0c-17.7,0 -32,-14.3 -32,-32l0,-48Zm184,80l0,-112l104,0c17.7,0 32,14.3 32,32l0,48c0,17.7 -14.3,32 -32,32l-104,0Zm-152,64c17.7,0 32,14.3 32,32c0,17.7 -14.3,32 -32,32c-17.7,0 -32,-14.3 -32,-32c0,-17.7 14.3,-32 32,-32Zm256,0c17.7,0 32,14.3 32,32c0,17.7 -14.3,32 -32,32c-17.7,0 -32,-14.3 -32,-32c0,-17.7 14.3,-32 32,-32Zm-200,-248c0,-13.3 10.7,-24 24,-24l96,0c13.3,0 24,10.7 24,24c0,13.3 -10.7,24 -24,24l-96,0c-13.3,0 -24,-10.7 -24,-24Z" style="fill:none;fill-rule:nonzero;stroke:#fff;stroke-width:44.3px;"/><path d="M118.15,22.15c-53,-0 -96,43 -96,96l0,288c0,29.8 20.4,54.9 48,62l0,34c0,17.7 14.3,32 32,32l16,0c17.7,0 32,-14.3 32,-32l0,-32l192,0l0,32c0,17.7 14.3,32 32,32l16,0c17.7,0 32,-14.3 32,-32l0,-34c27.6,-7.1 48,-32.2 48,-62l0,-288c0,-53 -43,-96 -96,-96l-256,0Zm-32,176c0,-17.7 14.3,-32 32,-32l104,0l0,112l-104,0c-17.7,0 -32,-14.3 -32,-32l0,-48Zm184,80l0,-112l104,0c17.7,0 32,14.3 32,32l0,48c0,17.7 -14.3,32 -32,32l-104,0Zm-152,64c17.7,0 32,14.3 32,32c0,17.7 -14.3,32 -32,32c-17.7,0 -32,-14.3 -32,-32c0,-17.7 14.3,-32 32,-32Zm256,0c17.7,0 32,14.3 32,32c0,17.7 -14.3,32 -32,32c-17.7,0 -32,-14.3 -32,-32c0,-17.7 14.3,-32 32,-32Zm-200,-248c0,-13.3 10.7,-24 24,-24l96,0c13.3,0 24,10.7 24,24c0,13.3 -10.7,24 -24,24l-96,0c-13.3,0 -24,-10.7 -24,-24Z" style="fill:#0066b2;fill-rule:nonzero;"/></g></svg>