<?xml version="1.0" encoding="UTF-8"?>
<svg id="Layer_1" data-name="Layer 1" xmlns="http://www.w3.org/2000/svg" xmlns:xlink="http://www.w3.org/1999/xlink" viewBox="0 0 432.11475 402.64271">
  <defs>
    <style>
      .cls-1, .cls-2, .cls-3 {
        fill: none;
      }

      .cls-4 {
        clip-path: url(#clippath);
      }

      .cls-2 {
        stroke-width: 9.32498px;
      }

      .cls-2, .cls-3 {
        stroke: #fff;
      }

      .cls-5 {
        fill: #fff;
      }

      .cls-6 {
        clip-path: url(#clippath-1);
      }

      .cls-3 {
        stroke-width: 24px;
      }
    </style>
    <clipPath id="clippath">
      <rect class="cls-1" x="162.71318" y="51.04822" width="106.68839" height="71.41065"/>
    </clipPath>
    <clipPath id="clippath-1">
      <rect class="cls-1" x="162.71318" y="51.04822" width="106.68839" height="71.41065"/>
    </clipPath>
  </defs>
  <g>
    <g>
      <path class="cls-3" d="M379.33702,312.81257V64.08642c0-15.47271-12.54311-28.01582-28.01582-28.01582H80.79355c-15.47271,0-28.01582,12.54311-28.01582,28.01582v249.05678c0,15.47271,12.54311,28.01582,28.01582,28.01582H350.99056c15.65532,0,28.34646-12.69114,28.34646-28.34646Z"/>
      <g>
        <path class="cls-3" d="M113.39904,390.64271h-18.90758c-8.44227,0-15.28608-6.84381-15.28608-15.28608v-21.05923h49.47975v21.05923c0,8.44227-6.84381,15.28608-15.28608,15.28608Z"/>
        <path class="cls-3" d="M337.62329,390.64271h-18.90758c-8.44227,0-15.28608-6.84381-15.28608-15.28608v-21.05923h49.47975v21.05923c0,8.44227-6.84381,15.28608-15.28608,15.28608Z"/>
      </g>
      <rect class="cls-3" x="158.3836" y="298.96779" width="109.55272" height="22.32173"/>
      <circle class="cls-3" cx="101.52711" cy="295.96779" r="22.32173"/>
      <circle class="cls-3" cx="330.58764" cy="295.96779" r="22.32173"/>
      <g>
        <path class="cls-3" d="M65.19991,167.69393h-28.0712c-8.35536,0-15.12871-6.77335-15.12871-15.12871v-.00003c0-8.35536,6.77335-15.12871,15.12871-15.12871h28.0712v30.25745Z"/>
        <path class="cls-3" d="M27.12891,109.36526c-8.35547,0-15.12891,6.77344-15.12891,15.12891v56.14258c0,8.35547,6.77344,15.12842,15.12891,15.12842s15.12866-6.77295,15.12866-15.12842v-56.14258c0-8.35547-6.77344-15.12891-15.12866-15.12891Z"/>
        <path class="cls-3" d="M366.91483,167.69393h28.0712c8.35536,0,15.12871-6.77335,15.12871-15.12871v-.00003c0-8.35536-6.77335-15.12871-15.12871-15.12871h-28.0712s0,30.25745,0,30.25745Z"/>
        <path class="cls-3" d="M404.98584,109.36526c8.35547,0,15.12891,6.77344,15.12891,15.12891v56.14258c0,8.35547-6.77344,15.12842-15.12891,15.12842s-15.12866-6.77295-15.12866-15.12842v-56.14258c0-8.35547,6.77344-15.12891,15.12866-15.12891Z"/>
      </g>
      <g>
        <rect class="cls-3" x="79.20538" y="137.43648" width="267.90208" height="105.15137"/>
        <path class="cls-3" d="M347.10739,137.43646v105.15137H79.20529v-105.15137H347.10739m1-1H78.20529v107.15137H348.10739v-107.15137h0Z"/>
      </g>
      <path class="cls-3" d="M280.25009,12H151.86466c-15.47271,0-28.01582,12.54311-28.01582,28.01582v12.64292h184.41708v-12.64292c0-15.47271-12.54311-28.01582-28.01582-28.01582Z"/>
    </g>
    <g class="cls-4">
      <g>
        <path class="cls-3" d="M164.43391,37.88333l77.43517,36.65264-51.62344,24.4351,77.43517,36.65265"/>
        <path class="cls-3" d="M162.71313,74.53598h106.68845m0,24.43509h-106.68845"/>
      </g>
    </g>
  </g>
  <g>
    <g>
      <path d="M379.33702,312.81257V64.08642c0-15.47271-12.54311-28.01582-28.01582-28.01582H80.79355c-15.47271,0-28.01582,12.54311-28.01582,28.01582v249.05678c0,15.47271,12.54311,28.01582,28.01582,28.01582H350.99056c15.65532,0,28.34646-12.69114,28.34646-28.34646Z"/>
      <g>
        <path d="M113.39904,390.64271h-18.90758c-8.44227,0-15.28608-6.84381-15.28608-15.28608v-21.05923h49.47975v21.05923c0,8.44227-6.84381,15.28608-15.28608,15.28608Z"/>
        <path d="M337.62329,390.64271h-18.90758c-8.44227,0-15.28608-6.84381-15.28608-15.28608v-21.05923h49.47975v21.05923c0,8.44227-6.84381,15.28608-15.28608,15.28608Z"/>
      </g>
      <rect class="cls-5" x="158.3836" y="298.96779" width="109.55272" height="22.32173"/>
      <circle class="cls-5" cx="101.52711" cy="295.96779" r="22.32173"/>
      <circle class="cls-5" cx="330.58764" cy="295.96779" r="22.32173"/>
      <g>
        <path d="M65.19991,167.69393h-28.0712c-8.35536,0-15.12871-6.77335-15.12871-15.12871v-.00003c0-8.35536,6.77335-15.12871,15.12871-15.12871h28.0712v30.25745Z"/>
        <path d="M27.12891,109.36526c-8.35547,0-15.12891,6.77344-15.12891,15.12891v56.14258c0,8.35547,6.77344,15.12842,15.12891,15.12842s15.12866-6.77295,15.12866-15.12842v-56.14258c0-8.35547-6.77344-15.12891-15.12866-15.12891Z"/>
        <path d="M366.91483,167.69393h28.0712c8.35536,0,15.12871-6.77335,15.12871-15.12871v-.00003c0-8.35536-6.77335-15.12871-15.12871-15.12871h-28.0712s0,30.25745,0,30.25745Z"/>
        <path d="M404.98584,109.36526c8.35547,0,15.12891,6.77344,15.12891,15.12891v56.14258c0,8.35547-6.77344,15.12842-15.12891,15.12842s-15.12866-6.77295-15.12866-15.12842v-56.14258c0-8.35547,6.77344-15.12891,15.12866-15.12891Z"/>
      </g>
      <rect class="cls-5" x="79.20538" y="137.43648" width="267.90208" height="105.15137"/>
      <path d="M280.25009,12H151.86466c-15.47271,0-28.01582,12.54311-28.01582,28.01582v12.64292h184.41708v-12.64292c0-15.47271-12.54311-28.01582-28.01582-28.01582Z"/>
    </g>
    <g class="cls-6">
      <g>
        <path class="cls-2" d="M164.43391,37.88333l77.43517,36.65264-51.62344,24.4351,77.43517,36.65265"/>
        <path class="cls-2" d="M162.71313,74.53598h106.68845m0,24.43509h-106.68845"/>
      </g>
    </g>
  </g>
</svg>