<?xml version="1.0" encoding="UTF-8" standalone="no"?>
<svg xmlns="http://www.w3.org/2000/svg"
     viewBox="0 0 450.005 177.4025">
    <g transform="matrix(1.25,0,0,-1.25,-75.005,357.5575)">
        <path style="fill:#089491;fill-opacity:1;fill-rule:nonzero;stroke:none"
              d="m 77.312,286.046 c -1.914,0 -3.464,-1.551 -3.464,-3.453 v -6.93 c 0,-1.637 1.156,-3.055 2.761,-3.383 0.164,-0.035 0.317,-0.082 0.473,-0.133 1.793,-0.648 2.727,-2.629 2.09,-4.433 L 61.215,217.432 c -0.805,-2.234 -1.211,-4.597 -1.211,-6.984 v -35.176 c 0,-3.812 3.101,-6.914 6.918,-6.914 h 41.539 c 0,17.207 13.957,31.149 31.164,31.149 17.195,0 31.152,-13.942 31.152,-31.149 h 128.078 c 0,17.207 13.942,31.149 31.153,31.149 17.207,0 31.148,-13.942 31.148,-31.149 h 44.996 c 7.653,0 13.856,6.199 13.856,13.844 v 38.625 c 0,1.937 -0.278,3.863 -0.805,5.711 l -14.129,49.469 c -1.703,5.945 -7.136,10.039 -13.316,10.039 z m 14.04,-13.844 h 27.843 c 2.871,0 5.188,-2.32 5.188,-5.191 v -38.079 c 0,-2.871 -2.317,-5.191 -5.188,-5.191 H 77.75 c -2.867,0 -5.188,2.32 -5.188,5.191 0,0.594 0.098,1.188 0.305,1.75 l 13.594,38.079 c 0.734,2.066 2.691,3.441 4.891,3.441 z m 47.226,0 h 25.512 c 2.308,0 4.355,-1.539 4.992,-3.762 l 10.875,-38.078 c 0.793,-2.758 -0.801,-5.629 -3.562,-6.422 -0.473,-0.133 -0.946,-0.199 -1.43,-0.199 h -36.387 c -2.867,0 -5.187,2.32 -5.187,5.191 v 38.079 c 0,2.871 2.32,5.191 5.187,5.191 z m 45.305,0 h 34.89 c 2.321,0 4.364,-1.539 5.004,-3.762 l 10.871,-38.078 c 0.793,-2.758 -0.8,-5.629 -3.562,-6.422 -0.461,-0.133 -0.941,-0.199 -1.426,-0.199 h -34.89 c -2.321,0 -4.368,1.543 -4.993,3.762 l -10.886,38.078 c -0.782,2.762 0.812,5.633 3.574,6.422 0.461,0.133 0.933,0.199 1.418,0.199 z m 54.695,0 h 34.899 c 2.308,0 4.343,-1.539 4.98,-3.762 l 10.887,-38.078 c 0.781,-2.758 -0.813,-5.629 -3.563,-6.422 -0.461,-0.133 -0.945,-0.199 -1.429,-0.199 h -34.899 c -2.312,0 -4.344,1.543 -4.984,3.762 l -10.883,38.078 c -0.781,2.762 0.812,5.633 3.57,6.422 0.465,0.133 0.938,0.199 1.422,0.199 z m 54.692,0 h 34.89 c 2.32,0 4.363,-1.539 4.992,-3.762 l 10.887,-38.078 c 0.781,-2.758 -0.816,-5.629 -3.562,-6.422 -0.465,-0.133 -0.957,-0.199 -1.43,-0.199 h -34.891 c -2.32,0 -4.367,1.543 -5.004,3.762 l -10.875,38.078 c -0.793,2.762 0.805,5.633 3.575,6.422 0.46,0.133 0.933,0.199 1.418,0.199 z m 54.691,0 h 34.891 c 2.32,0 4.363,-1.539 5.003,-3.762 l 10.875,-38.078 c 0.79,-2.758 -0.804,-5.629 -3.574,-6.422 -0.461,-0.133 -0.933,-0.199 -1.418,-0.199 h -34.89 c -2.332,0 -4.364,1.543 -5.004,3.762 l -10.875,38.078 c -0.781,2.762 0.816,5.633 3.574,6.422 0.461,0.133 0.934,0.199 1.418,0.199 z M 139.625,192.593 c -13.395,0 -24.234,-10.856 -24.234,-24.235 0,-13.383 10.839,-24.234 24.234,-24.234 13.383,0 24.223,10.851 24.223,24.234 0,13.379 -10.84,24.235 -24.223,24.235 z m 190.383,0 c -13.383,0 -24.235,-10.856 -24.235,-24.235 0,-13.383 10.852,-24.234 24.235,-24.234 13.379,0 24.222,10.851 24.222,24.234 0,13.379 -10.843,24.235 -24.222,24.235 z"/>
    </g>
</svg>
