<?xml version="1.0" encoding="UTF-8"?>
<svg id="Layer_1" data-name="Layer 1" xmlns="http://www.w3.org/2000/svg" viewBox="0 0 29.76378 28.34646">
  <defs>
    <style>
      .cls-1 {
        fill: none;
      }

      .cls-2 {
        fill: #fff;
      }

      .cls-3 {
        fill: #52843c;
      }
    </style>
  </defs>
  <rect class="cls-3" x=".00162" width="29.76001" height="28.35"/>
  <path class="cls-2" d="M29.76163,17.51001v.5c-.83997,.08997-1.47998,.65997-1.84998,1.22998-.48999,.75-.57001,1.76001-.20001,2.58002l-.46002,.20996c-.25995-.57001-.92999-.91998-1.52997-.81-.60999,.12-1.09003,.71002-1.07001,1.32001,.02002,.60004,.56,1.16003,1.15002,1.19l-.02002,.5c-.85999-.03998-1.59998-.81-1.63-1.67999-.03003-.84003,.64001-1.65997,1.47998-1.82001,.47003-.08997,.96002,.02002,1.36005,.28003-.06-.71002,.12-1.45001,.5-2.05005,.44-.67999,1.25-1.37,2.26996-1.44995Z"/>
  <g>
    <path class="cls-2" d="M17.76163,28.34998h-.52997c.23999-.58002,.25-1.25,0-1.83002-.34003-.79999-1.10004-1.35999-1.94-1.44-1.01001-.07996-1.83002,.59003-2.26001,1.24005-.38,.57996-.51001,1.32996-.38,2.02997h-1.17999c-.20001-.07001-.41998-.08002-.63-.03998-.03998,.01001-.09003,.01996-.13,.03998h-.90997c.25-.27002,.57996-.45996,.94-.52997,.46997-.09003,.96997,.01996,1.37,.27997-.06-.71997,.10999-1.45001,.5-2.04999,.50995-.78003,1.48999-1.57001,2.71997-1.46002,1.02002,.09003,1.95001,.77002,2.35999,1.73004,.27002,.64996,.29004,1.37,.07001,2.02997Z"/>
    <path class="cls-2" d="M19.19162,28.34998h-1.42999c.47003-.16998,.97003-.17999,1.42999,0Z"/>
  </g>
  <path class="cls-2" d="M5.60166,23.31c-.10004,.88-.79004,1.58002-1.69,1.71997l-.07001-.48999c.66998-.10999,1.19-.63,1.26001-1.27997,.08002-.71002-.38-1.27002-.85004-1.49005-.62-.28998-1.39996-.10999-1.88,.44-.01996,.02002-.03998,.05005-.06,.07001l-.38995-.32001c.01996-.01996,.04999-.04999,.07001-.06995,.56-.70001,.69995-1.65002,.34998-2.46002-.34003-.79999-1.09003-1.35999-1.92999-1.42999-.14001-.01001-.28003-.01001-.41003,.01001v-.5c.14001-.02002,.30005-.02002,.45001-.01001,1.02002,.08997,1.94,.76996,2.35004,1.73999,.27997,.64001,.29999,1.37,.07996,2.02997,.51001-.19,1.08002-.19,1.58002,.05005,.77002,.35999,1.22998,1.17999,1.14001,1.98999Z"/>
  <path class="cls-2" d="M29.76163,3.33997v.5c-.82996,.08002-1.47998,.66003-1.84998,1.22003-.48999,.75-.57001,1.76996-.20001,2.58997l-.46002,.20001c-.25995-.56-.92999-.91998-1.52997-.79999-.60999,.12-1.09003,.71002-1.07001,1.31,.02002,.60999,.56,1.16998,1.15002,1.20001l-.02002,.5c-.85999-.04004-1.59998-.81-1.63-1.67999-.03003-.84003,.64001-1.66003,1.47998-1.82001,.47003-.09003,.96002,.01996,1.36005,.27997-.06-.71997,.12-1.44995,.5-2.04999,.44995-.67999,1.25995-1.38,2.26996-1.45001Z"/>
  <path class="cls-2" d="M20.48166,16.22998c-.10004,.87-.79004,1.58002-1.67999,1.71002l-.08002-.48999c.66998-.10004,1.19-.63,1.26001-1.28003,.08997-.70001-.38-1.26001-.85004-1.48999-.62-.28998-1.39996-.10004-1.88,.44-.01996,.02997-.03998,.04999-.06,.08002l-.38995-.32001c.02997-.03003,.04999-.05005,.06995-.08002,.56006-.70001,.70001-1.65002,.36005-2.46002-.34003-.78998-1.10004-1.34998-1.94-1.42999-1.01001-.08002-1.83002,.58002-2.26001,1.23999-.48999,.75-.57001,1.77002-.20001,2.59003l-.46002,.20001c-.25995-.56-.92999-.92004-1.52997-.81-.60999,.12-1.09003,.70996-1.07001,1.32001,.02002,.60999,.56,1.16998,1.15002,1.19995l-.02002,.5c-.85999-.04999-1.59998-.81-1.63-1.67999-.02997-.84998,.63-1.65997,1.47003-1.82996,.46997-.09003,.96997,.02997,1.37,.27997-.06-.71002,.10999-1.45001,.5-2.03998,.50995-.78003,1.48999-1.57001,2.71997-1.47003,1.02002,.09003,1.95001,.77002,2.35999,1.73999,.27002,.65002,.29004,1.37,.07001,2.03003,.52002-.19,1.09003-.17999,1.58002,.04999,.77002,.37,1.22998,1.19,1.14001,2Z"/>
  <path class="cls-2" d="M5.60166,9.14001c-.10004,.87-.79999,1.57996-1.69,1.71997l-.07001-.5c.66998-.09998,1.19-.63,1.26001-1.28003,.08002-.69995-.38-1.25995-.85004-1.47998-.62-.29999-1.39996-.10999-1.88,.42999-.01996,.03003-.03998,.06-.06,.08002l-.38995-.32001c.01996-.02002,.04999-.04999,.07001-.08002,.56-.69,.69995-1.64996,.34998-2.44995-.34003-.80005-1.09003-1.36005-1.92999-1.43005-.14001-.00995-.28003-.00995-.41003,.01001v-.51001c.15002-.01996,.30005-.00995,.45001,0,1.02002,.09003,1.94,.77002,2.35004,1.73004,.27997,.64996,.29999,1.37,.07996,2.02997,.51001-.19,1.08002-.17999,1.58002,.06,.77002,.36005,1.22998,1.17999,1.14001,1.99005Z"/>
  <g>
    <path class="cls-2" d="M10.92167,2.46997l-.02002,.5c-.85999-.03998-1.59998-.81-1.63-1.67999-.02002-.47998,.19-.95001,.53003-1.28998h.90997c-.54999,.16998-.96002,.70996-.94,1.27997,.02002,.61005,.56,1.16003,1.15002,1.19Z"/>
    <path class="cls-2" d="M12.83164,.56l-.46002,.20996c-.16998-.37-.51996-.64996-.90997-.76996h1.20001c.02997,.19,.08997,.38,.16998,.56Z"/>
    <path class="cls-2" d="M17.80165,0c-.01,0-.03,.01-.04,.01v-.01h-.53c-.09,.22-.21,.43-.36,.62-.02,.03-.04,.06-.07,.09l.39,.31c.02-.02,.04-.05,.06-.07,.48-.55,1.26-.73,1.88-.44,.47,.22,.94,.78,.85,1.49-.07,.65-.59,1.17-1.26,1.27l.08,.5c.89-.14,1.58-.84,1.68-1.72,.09-.81-.37-1.63-1.14-1.99-.05-.02-.1-.05-.15-.06h-1.39Z"/>
  </g>
  <g>
    <path class="cls-1" d="M5.60166,9.14001c-.10004,.87-.79999,1.57996-1.69,1.71997l-.07001-.5c.66998-.09998,1.19-.63,1.26001-1.28003,.08002-.69995-.38-1.25995-.85004-1.47998-.62-.29999-1.39996-.10999-1.88,.42999-.01996,.03003-.03998,.06-.06,.08002l-.38995-.32001c.01996-.02002,.04999-.04999,.07001-.08002,.56-.69,.69995-1.64996,.34998-2.44995-.34003-.80005-1.09003-1.36005-1.92999-1.43005-.14001-.00995-.28003-.00995-.41003,.01001v-.51001c.15002-.01996,.30005-.00995,.45001,0,1.02002,.09003,1.94,.77002,2.35004,1.73004,.27997,.64996,.29999,1.37,.07996,2.02997,.51001-.19,1.08002-.17999,1.58002,.06,.77002,.36005,1.22998,1.17999,1.14001,1.99005Z"/>
    <path class="cls-1" d="M5.60166,23.31c-.10004,.88-.79004,1.58002-1.69,1.71997l-.07001-.48999c.66998-.10999,1.19-.63,1.26001-1.27997,.08002-.71002-.38-1.27002-.85004-1.49005-.62-.28998-1.39996-.10999-1.88,.44-.01996,.02002-.03998,.05005-.06,.07001l-.38995-.32001c.01996-.01996,.04999-.04999,.07001-.06995,.56-.70001,.69995-1.65002,.34998-2.46002-.34003-.79999-1.09003-1.35999-1.92999-1.42999-.14001-.01001-.28003-.01001-.41003,.01001v-.5c.14001-.02002,.30005-.02002,.45001-.01001,1.02002,.08997,1.94,.76996,2.35004,1.73999,.27997,.64001,.29999,1.37,.07996,2.02997,.51001-.19,1.08002-.19,1.58002,.05005,.77002,.35999,1.22998,1.17999,1.14001,1.98999Z"/>
    <path class="cls-1" d="M9.27164,1.28998c-.02002-.47998,.19-.95001,.53003-1.28998h.90997c-.54999,.16998-.96002,.70996-.94,1.27997,.02002,.61005,.56,1.16003,1.15002,1.19l-.02002,.5c-.85999-.03998-1.59998-.81-1.63-1.67999Z"/>
    <path class="cls-1" d="M20.48166,16.22998c-.10004,.87-.79004,1.58002-1.67999,1.71002l-.08002-.48999c.66998-.10004,1.19-.63,1.26001-1.28003,.08997-.70001-.38-1.26001-.85004-1.48999-.62-.28998-1.39996-.10004-1.88,.44-.01996,.02997-.03998,.04999-.06,.08002l-.38995-.32001c.02997-.03003,.04999-.05005,.06995-.08002,.56006-.70001,.70001-1.65002,.36005-2.46002-.34003-.78998-1.10004-1.34998-1.94-1.42999-1.01001-.08002-1.83002,.58002-2.26001,1.23999-.48999,.75-.57001,1.77002-.20001,2.59003l-.46002,.20001c-.25995-.56-.92999-.92004-1.52997-.81-.60999,.12-1.09003,.70996-1.07001,1.32001,.02002,.60999,.56,1.16998,1.15002,1.19995l-.02002,.5c-.85999-.04999-1.59998-.81-1.63-1.67999-.02997-.84998,.63-1.65997,1.47003-1.82996,.46997-.09003,.96997,.02997,1.37,.27997-.06-.71002,.10999-1.45001,.5-2.03998,.50995-.78003,1.48999-1.57001,2.71997-1.47003,1.02002,.09003,1.95001,.77002,2.35999,1.73999,.27002,.65002,.29004,1.37,.07001,2.03003,.52002-.19,1.09003-.17999,1.58002,.04999,.77002,.37,1.22998,1.19,1.14001,2Z"/>
    <path class="cls-1" d="M10.71165,28.35h-.91c.25-.27,.58-.46,.94-.53,.47-.09,.97,.02,1.37,.28-.06-.72,.11-1.45,.5-2.05,.51-.78,1.49-1.57,2.72-1.46,1.02,.09,1.95,.77,2.36,1.73,.27,.65,.29,1.37,.07,2.03h-6.29"/>
    <path class="cls-1" d="M11.46164,0h1.20001c.02997,.19,.08997,.38,.16998,.56l-.46002,.20996c-.16998-.37-.51996-.64996-.90997-.76996Z"/>
    <path class="cls-1" d="M20.48166,2.04999c-.10004,.88-.79004,1.58002-1.67999,1.71997l-.08002-.5c.66998-.09998,1.19-.62,1.26001-1.26996,.08997-.71002-.38-1.27002-.85004-1.48999-.62-.29004-1.39996-.11005-1.88,.44-.01996,.01996-.03998,.04999-.06,.06995l-.38995-.31c.02997-.02997,.04999-.06,.06995-.08997,.15002-.19,.27002-.40002,.36005-.62h1.95996c.05005,.01001,.10004,.03998,.15002,.06,.77002,.35999,1.22998,1.17999,1.14001,1.98999Z"/>
    <path class="cls-1" d="M19.19162,28.34998h-1.42999c.47003-.16998,.97003-.17999,1.42999,0Z"/>
    <path class="cls-1" d="M29.76163,3.33997v.5c-.82996,.08002-1.47998,.66003-1.84998,1.22003-.48999,.75-.57001,1.76996-.20001,2.58997l-.46002,.20001c-.25995-.56-.92999-.91998-1.52997-.79999-.60999,.12-1.09003,.71002-1.07001,1.31,.02002,.60999,.56,1.16998,1.15002,1.20001l-.02002,.5c-.85999-.04004-1.59998-.81-1.63-1.67999-.03003-.84003,.64001-1.66003,1.47998-1.82001,.47003-.09003,.96002,.01996,1.36005,.27997-.06-.71997,.12-1.44995,.5-2.04999,.44995-.67999,1.25995-1.38,2.26996-1.45001Z"/>
    <path class="cls-1" d="M29.76163,17.51001v.5c-.83997,.08997-1.47998,.65997-1.84998,1.22998-.48999,.75-.57001,1.76001-.20001,2.58002l-.46002,.20996c-.25995-.57001-.92999-.91998-1.52997-.81-.60999,.12-1.09003,.71002-1.07001,1.32001,.02002,.60004,.56,1.16003,1.15002,1.19l-.02002,.5c-.85999-.03998-1.59998-.81-1.63-1.67999-.03003-.84003,.64001-1.65997,1.47998-1.82001,.47003-.08997,.96002,.02002,1.36005,.28003-.06-.71002,.12-1.45001,.5-2.05005,.44-.67999,1.25-1.37,2.26996-1.44995Z"/>
  </g>
</svg>