<?xml version="1.0" encoding="UTF-8"?>
<svg id="Layer_1" data-name="Layer 1" xmlns="http://www.w3.org/2000/svg" viewBox="0 0 12.75583 8.50394">
  <defs>
    <style>
      .cls-1, .cls-2 {
        fill: #f8e200;
      }

      .cls-3 {
        fill: #fff;
      }

      .cls-4 {
        fill: none;
      }

      .cls-4, .cls-2 {
        fill-rule: evenodd;
      }
    </style>
  </defs>
  <rect class="cls-3" x="-.00007" y="-.00027" width="12.75598" height="8.50417"/>
  <path class="cls-2" d="M12.76001,7.69v.81h-.82001c0-.44,.37-.81,.82001-.81Z"/>
  <path class="cls-2" d="M.81,8.5H0v-.81c.45001,0,.81,.37,.81,.81Z"/>
  <path class="cls-2" d="M12.76001,0V.81c-.45001,0-.82001-.35999-.82001-.81h.82001Z"/>
  <circle class="cls-1" cx="6.37788" cy="4.25193" r=".81127"/>
  <path class="cls-2" d="M.81,0C.81,.45001,.45001,.81,0,.81V0H.81Z"/>
  <g>
    <path class="cls-4" d="M.81,8.5H0v-.81c.45001,0,.81,.37,.81,.81Z"/>
    <path class="cls-4" d="M0,0H.81C.81,.45001,.45001,.81,0,.81V0Z"/>
    <path class="cls-4" d="M12.76001,0V.81c-.45001,0-.82001-.35999-.82001-.81h.82001Z"/>
    <path class="cls-4" d="M12.76001,7.69v.81h-.82001c0-.44,.37-.81,.82001-.81Z"/>
  </g>
</svg>