<?xml version="1.0" encoding="UTF-8"?>
<svg id="Layer_1" data-name="Layer 1" xmlns="http://www.w3.org/2000/svg" viewBox="0 0 372.21371 334.30602">
  <defs>
    <style>
      .cls-1 {
        fill: none;
        stroke: #fff;
        stroke-linecap: round;
        stroke-linejoin: round;
        stroke-width: 24px;
      }

      .cls-2 {
        fill: #fff;
      }

      .cls-3 {
        fill: #231f20;
      }
    </style>
  </defs>
  <g>
    <polygon class="cls-1" points="197.2374 256.9661 190.64196 178.65452 257.0961 179.53278 327.96655 184.62127 336.78413 218.61997 307.41794 224.06986 260.59636 237.29094 197.2374 256.9661"/>
    <polygon class="cls-1" points="47.93766 224.06986 51.67542 194.84961 85.86818 165.32157 120.19216 162.45943 130.1022 232.6467 47.93766 224.06986"/>
    <path class="cls-1" d="M257.10076,185.53314c-1.84863,0-3.67188-.85059-4.84766-2.45703-1.95605-2.6748-1.37402-6.42871,1.2998-8.38574,31.42773-22.99316,69.07324-57.69141,69.93945-92.4209,.53613-21.45801-13.30273-32.93555-13.8916-33.41309-2.56445-2.08008-2.97949-5.85059-.91309-8.4248,2.06543-2.5752,5.81152-3.00879,8.39648-.95605,.77441,.61426,18.94824,15.35547,18.41211,42.76758-.62402,31.88574-25.80957,66.24805-74.85742,102.13281-1.06836,.78125-2.30859,1.15723-3.53809,1.15723Z"/>
    <g>
      <circle class="cls-1" cx="78.555" cy="282.9787" r="39.32732"/>
      <path class="cls-1" d="M78.55486,303.98724c-11.58398,0-21.00781-9.4248-21.00781-21.00879s9.42383-21.00781,21.00781-21.00781,21.00781,9.42383,21.00781,21.00781-9.42383,21.00879-21.00781,21.00879Zm0-30.0166c-4.9668,0-9.00781,4.04102-9.00781,9.00781,0,4.96777,4.04102,9.00879,9.00781,9.00879s9.00781-4.04102,9.00781-9.00879c0-4.9668-4.04102-9.00781-9.00781-9.00781Z"/>
      <circle class="cls-1" cx="302.17808" cy="282.9787" r="39.32732"/>
      <path class="cls-1" d="M302.17791,303.98724c-11.58398,0-21.00781-9.4248-21.00781-21.00879s9.42383-21.00781,21.00781-21.00781,21.00781,9.42383,21.00781,21.00781-9.42383,21.00879-21.00781,21.00879Zm0-30.0166c-4.9668,0-9.00781,4.04102-9.00781,9.00781,0,4.96777,4.04102,9.00879,9.00781,9.00879s9.00781-4.04102,9.00781-9.00879c0-4.9668-4.04102-9.00781-9.00781-9.00781Z"/>
    </g>
    <path class="cls-1" d="M200.97771,270.74407c-3.52148,0-6.80957-.06836-9.70703-.16602-17.94043-.60254-51.7334-3.70605-64.5918-11.5127-3.29199-1.99902-6.4873-4.38477-9.87012-6.91113-8.32812-6.21875-17.76855-13.26758-30.45898-15.43555-15.40234-2.625-33.34375,2.13672-54.83398,14.58008-6.21387,3.59473-14.16699,1.47656-17.76465-4.7373-3.59668-6.21387-1.47559-14.16699,4.7373-17.76465,62.24121-36.03027,94.56348-11.89551,113.87695,2.52539,2.99414,2.23535,5.58008,4.16602,7.80762,5.51855,3.87891,2.35547,23.20312,6.41406,47.99707,7.59082,27.46191,1.30273,42.98633-1.64648,46.89746-3.96387,11.58203-17.9375,29.82129-30.66211,50.19141-34.97852,15.3457-3.25293,39.36426-3.28027,66.62305,15.06055,5.95703,4.00781,7.53711,12.08594,3.5293,18.04297s-12.08691,7.53613-18.04297,3.5293c-15.59863-10.49512-31.75293-14.36816-46.71973-11.19727-13.8457,2.93359-26.27734,11.7627-34.10547,24.22168-4.54199,7.22852-13.61035,11.6377-28.53906,13.87695-8.85254,1.32812-18.60156,1.7207-27.02637,1.7207Zm34.47559-30.53125s0,.00098-.00098,.00098q.00098,0,.00098-.00098Z"/>
    <path class="cls-1" d="M109.9384,55.80755C151.03599-.29925,266.20395,5.51924,324.40356,28.8584c11.34418,4.72125,22.55663,10.05564,31.49781,19.3904,12.16736,13.68617-3.65793,33.52362-19.62476,24.95507,.00018,.00017-2.92707-1.63997-2.92707-1.63997-6.30733-3.73937-13.77849-6.38397-21.15437-8.67921-8.56658-2.63915-17.64568-4.8203-26.80852-6.70604-36.28417-7.08437-75.20773-10.84174-111.70043-5.45776-13.28741,2.10228-25.93642,5.46145-37.50832,11.82638-3.84625,2.14818-7.43163,4.62839-10.76488,7.45023-9.63326,7.70248-22.30473-3.9498-15.47461-14.18995h0Z"/>
    <path class="cls-1" d="M118.65398,141.92181c6.24155,6.75042,10.94448,14.76029,15.08383,22.89252,9.93045,20.34095,14.97446,42.51538,15.9731,64.95954,.38055,6.62243,.2145,14.06199,.01908,20.64005-.10456,5.81063-4.89997,10.43612-10.71077,10.33163-5.40894-.09766-9.79126-4.25977-10.28662-9.52197-.42722-4.36779-.71292-8.75117-1.20605-13.0791-.31685-2.10984-1.05389-7.05832-1.34985-9.07121-.70364-3.42632-1.65724-8.46563-2.5912-11.83944-3.65846-14.21353-9.38276-28.13973-17.58237-40.17237-2.70842-3.99199-5.83155-7.99524-9.29296-11.3086-.00003,.00003-.36014-.32077-.36014-.32077l-.08911-.08105s-.04443-.04004-.04443-.04004c.00628,.02368,.01552,.04311,.02832,.0625-14.95679-15.45721,6.25256-37.70375,22.40918-23.45166h0Z"/>
    <path class="cls-1" d="M39.23357,238.64153c-.13281,0-.26465-.00488-.39844-.01367-3.30273-.2168-5.80566-3.06055-5.5957-6.36328,.04883-.75684,1.30078-18.75488,11.53418-37.44824,9.58496-17.50977,29.05664-38.87598,67.38086-41.22949,3.29883-.20508,6.1543,2.31348,6.35645,5.62012,.20312,3.30762-2.3125,6.15332-5.62012,6.35645-26.22852,1.61133-45.53711,13.27051-57.3916,34.65234-9.08301,16.38379-10.27344,32.66113-10.28418,32.82324-.21387,3.16895-2.85156,5.60254-5.98145,5.60254Z"/>
    <path class="cls-1" d="M107.4533,166.01751c-.51758,0-1.04297-.06738-1.56641-.20801-3.19922-.86328-5.09277-4.15625-4.23047-7.35449,.31641-1.1748,7.90723-29.09277,21.43848-58.81445,18.70801-41.0957,39.02246-64.41113,60.37988-69.2998,3.22852-.74512,6.44824,1.2793,7.1875,4.50977s-1.2793,6.44824-4.50977,7.1875c-35.53711,8.13477-64.67969,89.0498-72.91016,119.54102-.72266,2.67578-3.14453,4.43848-5.78906,4.43848Z"/>
    <path class="cls-1" d="M191.80584,263.74603c-2.93457,0-5.50098-2.15625-5.93066-5.14648-.09375-.64941-2.30469-16.11426-3.43652-32.96094-2.15234-32.04297,1.39746-40.16504,5.15332-43.88477,2.6543-2.62891,8.14453-5.53418,28.73145-7.14648,15.46973-1.21191,33.30078-1.21875,45.54297-1.01172,16.13281,.27344,32.06641,1.06934,44.86621,2.24121,22.24805,2.03809,25.04492,4.2998,26.54785,5.51562,10.99805,8.89258,4.30078,35.41602,1.98633,43.33301-.92969,3.17969-4.2627,5.00195-7.44238,4.0752-3.18066-.92969-5.00488-4.26172-4.0752-7.44238,4.1709-14.31641,4.56543-27.82031,2.18164-30.44922-4.40332-1.84375-29.46484-4.7207-64.97949-5.28711-41.69629-.65723-61.58887,2.44824-64.94531,4.74121-.35449,.53613-3.55469,6.20312-1.54492,35.23633,1.11523,16.10352,3.26953,31.18066,3.29102,31.33105,.47168,3.28027-1.80469,6.32129-5.08398,6.79297-.29004,.04199-.57812,.0625-.8623,.0625Zm134.35449-72.77246h0Z"/>
    <path class="cls-1" d="M188.61337,194.84961s-15.61903-11.27271-.81515-24.26092,66.65267-10.06039,72.91645,6.2639l-62.97788,6.47784-9.12342,11.51918Z"/>
    <path class="cls-1" d="M340.63298,139.36907h-33.21484c-3.31348,0-6-2.68652-6-6s2.68652-6,6-6h33.21484c3.31348,0,6,2.68652,6,6s-2.68652,6-6,6Z"/>
    <polygon class="cls-1" points="327.96655 133.36909 327.96655 184.62127 266.69609 176.85258 311.02541 133.36909 327.96655 133.36909"/>
    <path class="cls-1" d="M265.94977,109.57659c-10.55346,11.62558-22.52429,37.31964-16.03018,42.96669,10.55047,9.17432,32.44766-17.72905,40.09404-27.10583,5.76554-7.0703,25.69407-33.31758,13.55291-33.88228-11.22889-.52227-25.02288,4.14814-37.61677,18.02142Z"/>
    <path class="cls-1" d="M120.77556,178.28509c-1.79688,0-3.57422-.80371-4.75586-2.33691-2.02344-2.625-1.53516-6.39258,1.08887-8.41504l50.48926-38.91602c2.62305-2.02148,6.39258-1.53516,8.41504,1.08887,2.02344,2.625,1.53516,6.39258-1.08887,8.41504l-50.48926,38.91602c-1.09082,.84082-2.37988,1.24805-3.65918,1.24805Z"/>
    <path class="cls-1" d="M197.24431,141.57708c-.1709,0-.3418-.00684-.51465-.02148l-25.97656-2.20801c-1.70508-.14453-3.26758-1.01074-4.29395-2.38086-1.02539-1.36914-1.41895-3.11133-1.0791-4.78809l4.65918-23.00684c.65723-3.24805,3.82812-5.3457,7.07129-4.69043,3.24805,.6582,5.34766,3.82422,4.69043,7.07129l-3.32324,16.4082,19.26758,1.6377c3.30176,.28027,5.75098,3.18457,5.4707,6.48633-.26562,3.12891-2.8877,5.49219-5.97168,5.49219Z"/>
    <path class="cls-1" d="M181.78728,161.58489c-2.59863,0-5.29004-.40039-7.99707-1.21289-7.31152-2.19434-14.22461-7.14844-19.46582-13.94824-5.24219-6.7998-8.27246-14.74707-8.53223-22.37695-.28223-8.24805,2.80371-15.48242,8.46582-19.8457,5.66309-4.36523,13.44531-5.50586,21.34863-3.13379,7.31152,2.19434,14.22461,7.14844,19.46582,13.94824,5.24121,6.80078,8.27148,14.74707,8.53223,22.37695,.28223,8.24805-2.80371,15.48242-8.46582,19.8457-3.72363,2.87012-8.36328,4.34668-13.35156,4.34668Zm-14.24805-49.74414c-1.97559,0-4.11719,.44824-5.95508,1.86426-3.50879,2.7041-3.88672,7.38379-3.7998,9.93262,.17383,5.06641,2.37598,10.70215,6.04395,15.45996,3.66797,4.75879,8.55566,8.32324,13.41211,9.78125,2.44238,.73145,7.0625,1.55859,10.57227-1.14453h0c3.50879-2.7041,3.88574-7.38379,3.79883-9.93262-.17285-5.06641-2.37598-10.70215-6.04297-15.45996-3.66797-4.75879-8.55566-8.32324-13.41211-9.78125-1.16309-.34863-2.82129-.71973-4.61719-.71973Z"/>
  </g>
  <g>
    <polygon class="cls-2" points="197.2374 256.9661 190.64196 178.65452 257.0961 179.53278 327.96655 184.62127 336.78413 218.61997 307.41794 224.06986 260.59636 237.29094 197.2374 256.9661"/>
    <polygon class="cls-2" points="47.93766 224.06986 51.67542 194.84961 85.86818 165.32157 120.19216 162.45943 130.1022 232.6467 47.93766 224.06986"/>
    <path class="cls-3" d="M257.10076,185.53314c-1.84863,0-3.67188-.85059-4.84766-2.45703-1.95605-2.6748-1.37402-6.42871,1.2998-8.38574,31.42773-22.99316,69.07324-57.69141,69.93945-92.4209,.53613-21.45801-13.30273-32.93555-13.8916-33.41309-2.56445-2.08008-2.97949-5.85059-.91309-8.4248,2.06543-2.5752,5.81152-3.00879,8.39648-.95605,.77441,.61426,18.94824,15.35547,18.41211,42.76758-.62402,31.88574-25.80957,66.24805-74.85742,102.13281-1.06836,.78125-2.30859,1.15723-3.53809,1.15723Z"/>
    <g>
      <circle cx="78.555" cy="282.9787" r="39.32732"/>
      <path class="cls-2" d="M78.55486,303.98724c-11.58398,0-21.00781-9.4248-21.00781-21.00879s9.42383-21.00781,21.00781-21.00781,21.00781,9.42383,21.00781,21.00781-9.42383,21.00879-21.00781,21.00879Zm0-30.0166c-4.9668,0-9.00781,4.04102-9.00781,9.00781,0,4.96777,4.04102,9.00879,9.00781,9.00879s9.00781-4.04102,9.00781-9.00879c0-4.9668-4.04102-9.00781-9.00781-9.00781Z"/>
      <circle cx="302.17808" cy="282.9787" r="39.32732"/>
      <path class="cls-2" d="M302.17791,303.98724c-11.58398,0-21.00781-9.4248-21.00781-21.00879s9.42383-21.00781,21.00781-21.00781,21.00781,9.42383,21.00781,21.00781-9.42383,21.00879-21.00781,21.00879Zm0-30.0166c-4.9668,0-9.00781,4.04102-9.00781,9.00781,0,4.96777,4.04102,9.00879,9.00781,9.00879s9.00781-4.04102,9.00781-9.00879c0-4.9668-4.04102-9.00781-9.00781-9.00781Z"/>
    </g>
    <path class="cls-3" d="M200.97771,270.74407c-3.52148,0-6.80957-.06836-9.70703-.16602-17.94043-.60254-51.7334-3.70605-64.5918-11.5127-3.29199-1.99902-6.4873-4.38477-9.87012-6.91113-8.32812-6.21875-17.76855-13.26758-30.45898-15.43555-15.40234-2.625-33.34375,2.13672-54.83398,14.58008-6.21387,3.59473-14.16699,1.47656-17.76465-4.7373-3.59668-6.21387-1.47559-14.16699,4.7373-17.76465,62.24121-36.03027,94.56348-11.89551,113.87695,2.52539,2.99414,2.23535,5.58008,4.16602,7.80762,5.51855,3.87891,2.35547,23.20312,6.41406,47.99707,7.59082,27.46191,1.30273,42.98633-1.64648,46.89746-3.96387,11.58203-17.9375,29.82129-30.66211,50.19141-34.97852,15.3457-3.25293,39.36426-3.28027,66.62305,15.06055,5.95703,4.00781,7.53711,12.08594,3.5293,18.04297s-12.08691,7.53613-18.04297,3.5293c-15.59863-10.49512-31.75293-14.36816-46.71973-11.19727-13.8457,2.93359-26.27734,11.7627-34.10547,24.22168-4.54199,7.22852-13.61035,11.6377-28.53906,13.87695-8.85254,1.32812-18.60156,1.7207-27.02637,1.7207Zm34.47559-30.53125s0,.00098-.00098,.00098q.00098,0,.00098-.00098Z"/>
    <path class="cls-3" d="M109.9384,55.80755C151.03599-.29925,266.20395,5.51924,324.40356,28.8584c11.34418,4.72125,22.55663,10.05564,31.49781,19.3904,12.16736,13.68617-3.65793,33.52362-19.62476,24.95507,.00018,.00017-2.92707-1.63997-2.92707-1.63997-6.30733-3.73937-13.77849-6.38397-21.15437-8.67921-8.56658-2.63915-17.64568-4.8203-26.80852-6.70604-36.28417-7.08437-75.20773-10.84174-111.70043-5.45776-13.28741,2.10228-25.93642,5.46145-37.50832,11.82638-3.84625,2.14818-7.43163,4.62839-10.76488,7.45023-9.63326,7.70248-22.30473-3.9498-15.47461-14.18995h0Z"/>
    <path class="cls-3" d="M118.65398,141.92181c6.24155,6.75042,10.94448,14.76029,15.08383,22.89252,9.93045,20.34095,14.97446,42.51538,15.9731,64.95954,.38055,6.62243,.2145,14.06199,.01908,20.64005-.10456,5.81063-4.89997,10.43612-10.71077,10.33163-5.40894-.09766-9.79126-4.25977-10.28662-9.52197-.42722-4.36779-.71292-8.75117-1.20605-13.0791-.31685-2.10984-1.05389-7.05832-1.34985-9.07121-.70364-3.42632-1.65724-8.46563-2.5912-11.83944-3.65846-14.21353-9.38276-28.13973-17.58237-40.17237-2.70842-3.99199-5.83155-7.99524-9.29296-11.3086-.00003,.00003-.36014-.32077-.36014-.32077l-.08911-.08105s-.04443-.04004-.04443-.04004c.00628,.02368,.01552,.04311,.02832,.0625-14.95679-15.45721,6.25256-37.70375,22.40918-23.45166h0Z"/>
    <path class="cls-3" d="M39.23357,238.64153c-.13281,0-.26465-.00488-.39844-.01367-3.30273-.2168-5.80566-3.06055-5.5957-6.36328,.04883-.75684,1.30078-18.75488,11.53418-37.44824,9.58496-17.50977,29.05664-38.87598,67.38086-41.22949,3.29883-.20508,6.1543,2.31348,6.35645,5.62012,.20312,3.30762-2.3125,6.15332-5.62012,6.35645-26.22852,1.61133-45.53711,13.27051-57.3916,34.65234-9.08301,16.38379-10.27344,32.66113-10.28418,32.82324-.21387,3.16895-2.85156,5.60254-5.98145,5.60254Z"/>
    <path class="cls-3" d="M107.4533,166.01751c-.51758,0-1.04297-.06738-1.56641-.20801-3.19922-.86328-5.09277-4.15625-4.23047-7.35449,.31641-1.1748,7.90723-29.09277,21.43848-58.81445,18.70801-41.0957,39.02246-64.41113,60.37988-69.2998,3.22852-.74512,6.44824,1.2793,7.1875,4.50977s-1.2793,6.44824-4.50977,7.1875c-35.53711,8.13477-64.67969,89.0498-72.91016,119.54102-.72266,2.67578-3.14453,4.43848-5.78906,4.43848Z"/>
    <path class="cls-3" d="M191.80584,263.74603c-2.93457,0-5.50098-2.15625-5.93066-5.14648-.09375-.64941-2.30469-16.11426-3.43652-32.96094-2.15234-32.04297,1.39746-40.16504,5.15332-43.88477,2.6543-2.62891,8.14453-5.53418,28.73145-7.14648,15.46973-1.21191,33.30078-1.21875,45.54297-1.01172,16.13281,.27344,32.06641,1.06934,44.86621,2.24121,22.24805,2.03809,25.04492,4.2998,26.54785,5.51562,10.99805,8.89258,4.30078,35.41602,1.98633,43.33301-.92969,3.17969-4.2627,5.00195-7.44238,4.0752-3.18066-.92969-5.00488-4.26172-4.0752-7.44238,4.1709-14.31641,4.56543-27.82031,2.18164-30.44922-4.40332-1.84375-29.46484-4.7207-64.97949-5.28711-41.69629-.65723-61.58887,2.44824-64.94531,4.74121-.35449,.53613-3.55469,6.20312-1.54492,35.23633,1.11523,16.10352,3.26953,31.18066,3.29102,31.33105,.47168,3.28027-1.80469,6.32129-5.08398,6.79297-.29004,.04199-.57812,.0625-.8623,.0625Zm134.35449-72.77246h0Z"/>
    <path class="cls-3" d="M188.61337,194.84961s-15.61903-11.27271-.81515-24.26092,66.65267-10.06039,72.91645,6.2639l-62.97788,6.47784-9.12342,11.51918Z"/>
    <path class="cls-3" d="M340.63298,139.36907h-33.21484c-3.31348,0-6-2.68652-6-6s2.68652-6,6-6h33.21484c3.31348,0,6,2.68652,6,6s-2.68652,6-6,6Z"/>
    <polygon class="cls-3" points="327.96655 133.36909 327.96655 184.62127 266.69609 176.85258 311.02541 133.36909 327.96655 133.36909"/>
    <path class="cls-3" d="M265.94977,109.57659c-10.55346,11.62558-22.52429,37.31964-16.03018,42.96669,10.55047,9.17432,32.44766-17.72905,40.09404-27.10583,5.76554-7.0703,25.69407-33.31758,13.55291-33.88228-11.22889-.52227-25.02288,4.14814-37.61677,18.02142Z"/>
    <path class="cls-3" d="M120.77556,178.28509c-1.79688,0-3.57422-.80371-4.75586-2.33691-2.02344-2.625-1.53516-6.39258,1.08887-8.41504l50.48926-38.91602c2.62305-2.02148,6.39258-1.53516,8.41504,1.08887,2.02344,2.625,1.53516,6.39258-1.08887,8.41504l-50.48926,38.91602c-1.09082,.84082-2.37988,1.24805-3.65918,1.24805Z"/>
    <path class="cls-3" d="M197.24431,141.57708c-.1709,0-.3418-.00684-.51465-.02148l-25.97656-2.20801c-1.70508-.14453-3.26758-1.01074-4.29395-2.38086-1.02539-1.36914-1.41895-3.11133-1.0791-4.78809l4.65918-23.00684c.65723-3.24805,3.82812-5.3457,7.07129-4.69043,3.24805,.6582,5.34766,3.82422,4.69043,7.07129l-3.32324,16.4082,19.26758,1.6377c3.30176,.28027,5.75098,3.18457,5.4707,6.48633-.26562,3.12891-2.8877,5.49219-5.97168,5.49219Z"/>
    <path class="cls-3" d="M181.78728,161.58489c-2.59863,0-5.29004-.40039-7.99707-1.21289-7.31152-2.19434-14.22461-7.14844-19.46582-13.94824-5.24219-6.7998-8.27246-14.74707-8.53223-22.37695-.28223-8.24805,2.80371-15.48242,8.46582-19.8457,5.66309-4.36523,13.44531-5.50586,21.34863-3.13379,7.31152,2.19434,14.22461,7.14844,19.46582,13.94824,5.24121,6.80078,8.27148,14.74707,8.53223,22.37695,.28223,8.24805-2.80371,15.48242-8.46582,19.8457-3.72363,2.87012-8.36328,4.34668-13.35156,4.34668Zm-14.24805-49.74414c-1.97559,0-4.11719,.44824-5.95508,1.86426-3.50879,2.7041-3.88672,7.38379-3.7998,9.93262,.17383,5.06641,2.37598,10.70215,6.04395,15.45996,3.66797,4.75879,8.55566,8.32324,13.41211,9.78125,2.44238,.73145,7.0625,1.55859,10.57227-1.14453h0c3.50879-2.7041,3.88574-7.38379,3.79883-9.93262-.17285-5.06641-2.37598-10.70215-6.04297-15.45996-3.66797-4.75879-8.55566-8.32324-13.41211-9.78125-1.16309-.34863-2.82129-.71973-4.61719-.71973Z"/>
  </g>
</svg>