<?xml version="1.0" encoding="UTF-8"?>
<svg id="Layer_1" data-name="Layer 1" xmlns="http://www.w3.org/2000/svg" viewBox="0 0 14.17323 21.25984">
  <defs>
    <style>
      .cls-1 {
        fill: none;
      }

      .cls-2 {
        fill: #fff;
      }

      .cls-3 {
        fill: #afc943;
      }
    </style>
  </defs>
  <rect class="cls-3" x="-.00045" width="14.16998" height="21.26001"/>
  <polygon class="cls-2" points="14.16953 19.45996 14.16953 21.26001 13.90952 21.26001 13.4495 18.45996 14.16953 19.45996"/>
  <g>
    <polygon class="cls-2" points="-.00045 19.45996 1.29953 21.26001 .66953 21.26001 .1395 20.51996 .2595 21.26001 -.00045 21.26001 -.00045 19.45996"/>
    <polygon class="cls-2" points="2.9495 15.83997 3.61954 21.26001 3.10953 21.26001 2.80954 18.88 2.29953 21.26001 1.77952 21.26001 2.9495 15.83997"/>
    <polygon class="cls-2" points="5.89951 20.13 5.7595 21.26001 4.68955 21.26001 5.89951 20.13"/>
  </g>
  <polygon class="cls-2" points="12.98954 9.5 12.61954 12.42999 12.10953 12.37 12.30954 10.82996 10.43955 12.57996 9.89951 8.25 9.0095 12.38 7.21952 9.89001 7.62949 12.35999 7.12949 12.44 6.36954 7.82996 8.7595 11.14996 10.02952 5.20996 10.81949 11.51996 12.98954 9.5"/>
  <polygon class="cls-2" points="14.16953 0 14.16953 1.57001 13.90952 0 14.16953 0"/>
  <g>
    <polygon class="cls-2" points=".2595 0 .53952 1.72998 .03952 1.81 -.00045 1.57001 -.00045 0 .2595 0"/>
    <polygon class="cls-2" points="1.77952 0 2.29953 0 1.92954 1.75 .66953 0 1.29953 0 1.66953 .51996 1.77952 0"/>
    <polygon class="cls-2" points="5.7595 0 5.52952 1.79999 5.02952 1.73999 5.21952 .20001 3.34952 1.95001 3.10953 0 3.61954 0 3.72953 .89001 4.68955 0 5.7595 0"/>
  </g>
  <g>
    <polygon class="cls-1" points=".53952 1.72998 .03952 1.81 -.00045 1.57001 -.00045 0 .2595 0 .53952 1.72998"/>
    <polygon class="cls-1" points=".66953 21.26001 .1395 20.51996 .2595 21.26001 -.00045 21.26001 -.00045 19.45996 1.29953 21.26001 .66953 21.26001"/>
    <polygon class="cls-1" points="2.29953 0 1.92954 1.75 .66953 0 2.29953 0"/>
    <polygon class="cls-1" points="3.61954 21.26001 3.10953 21.26001 2.80954 18.88 2.29953 21.26001 1.77952 21.26001 2.9495 15.83997 3.61954 21.26001"/>
    <polygon class="cls-1" points="5.7595 0 5.52952 1.79999 5.02952 1.73999 5.21952 .20001 3.34952 1.95001 3.10953 0 5.7595 0"/>
    <polygon class="cls-1" points="5.89951 20.13 5.7595 21.26001 4.68955 21.26001 5.89951 20.13"/>
    <polygon class="cls-1" points="10.81949 11.51996 12.98954 9.5 12.61954 12.42999 12.10953 12.37 12.30954 10.82996 10.43955 12.57996 9.89951 8.25 9.0095 12.38 7.21952 9.89001 7.62949 12.35999 7.12949 12.44 6.36954 7.82996 8.7595 11.14996 10.02952 5.20996 10.81949 11.51996"/>
    <polygon class="cls-1" points="14.16953 0 14.16953 1.57001 13.90952 0 14.16953 0"/>
    <polygon class="cls-1" points="14.16953 19.45996 14.16953 21.26001 13.90952 21.26001 13.4495 18.45996 14.16953 19.45996"/>
  </g>
</svg>