<?xml version="1.0" encoding="UTF-8"?>
<svg id="Layer_1" data-name="Layer 1" xmlns="http://www.w3.org/2000/svg" viewBox="0 0 14.17323 21.25984">
  <defs>
    <style>
      .cls-1 {
        fill: none;
      }

      .cls-2 {
        fill: #fff;
      }

      .cls-3 {
        fill: #d5e09f;
      }
    </style>
  </defs>
  <rect class="cls-3" x="-.00045" y="-.00008" width="14.16998" height="21.26001"/>
  <polygon class="cls-2" points="14.16953 19.45988 14.16953 21.25993 13.90952 21.25993 13.4495 18.45988 14.16953 19.45988"/>
  <g>
    <polygon class="cls-2" points="-.00045 19.45988 1.29953 21.25993 .66953 21.25993 .1395 20.51987 .2595 21.25993 -.00045 21.25993 -.00045 19.45988"/>
    <polygon class="cls-2" points="2.9495 15.83988 3.61954 21.25993 3.10953 21.25993 2.80954 18.87992 2.29953 21.25993 1.77952 21.25993 2.9495 15.83988"/>
    <polygon class="cls-2" points="5.89951 20.12992 5.7595 21.25993 4.68955 21.25993 5.89951 20.12992"/>
  </g>
  <polygon class="cls-2" points="12.98954 9.49992 12.61954 12.42991 12.10953 12.36991 12.30954 10.82987 10.43955 12.57987 9.89951 8.24992 9.0095 12.37992 7.21952 9.88993 7.62949 12.3599 7.12949 12.43992 6.36954 7.82987 8.7595 11.14988 10.02952 5.20988 10.81949 11.51987 12.98954 9.49992"/>
  <polygon class="cls-2" points="14.16953 -.00008 14.16953 1.56992 13.90952 -.00008 14.16953 -.00008"/>
  <g>
    <polygon class="cls-2" points=".2595 -.00008 .53952 1.7299 .03952 1.80991 -.00045 1.56992 -.00045 -.00008 .2595 -.00008"/>
    <polygon class="cls-2" points="1.77952 -.00008 2.29953 -.00008 1.92954 1.74992 .66953 -.00008 1.29953 -.00008 1.66953 .51987 1.77952 -.00008"/>
    <polygon class="cls-2" points="5.7595 -.00008 5.52952 1.7999 5.02952 1.73991 5.21952 .19993 3.34952 1.94993 3.10953 -.00008 3.61954 -.00008 3.72953 .88993 4.68955 -.00008 5.7595 -.00008"/>
  </g>
  <g>
    <polygon class="cls-1" points=".53952 1.7299 .03952 1.80991 -.00045 1.56992 -.00045 -.00008 .2595 -.00008 .53952 1.7299"/>
    <polygon class="cls-1" points=".66953 21.25993 .1395 20.51987 .2595 21.25993 -.00045 21.25993 -.00045 19.45988 1.29953 21.25993 .66953 21.25993"/>
    <polygon class="cls-1" points="2.29953 -.00008 1.92954 1.74992 .66953 -.00008 2.29953 -.00008"/>
    <polygon class="cls-1" points="3.61954 21.25993 3.10953 21.25993 2.80954 18.87992 2.29953 21.25993 1.77952 21.25993 2.9495 15.83988 3.61954 21.25993"/>
    <polygon class="cls-1" points="5.7595 -.00008 5.52952 1.7999 5.02952 1.73991 5.21952 .19993 3.34952 1.94993 3.10953 -.00008 5.7595 -.00008"/>
    <polygon class="cls-1" points="5.89951 20.12992 5.7595 21.25993 4.68955 21.25993 5.89951 20.12992"/>
    <polygon class="cls-1" points="10.81949 11.51987 12.98954 9.49992 12.61954 12.42991 12.10953 12.36991 12.30954 10.82987 10.43955 12.57987 9.89951 8.24992 9.0095 12.37992 7.21952 9.88993 7.62949 12.3599 7.12949 12.43992 6.36954 7.82987 8.7595 11.14988 10.02952 5.20988 10.81949 11.51987"/>
    <polygon class="cls-1" points="14.16953 -.00008 14.16953 1.56992 13.90952 -.00008 14.16953 -.00008"/>
    <polygon class="cls-1" points="14.16953 19.45988 14.16953 21.25993 13.90952 21.25993 13.4495 18.45988 14.16953 19.45988"/>
  </g>
</svg>