<?xml version="1.0" encoding="UTF-8" standalone="no"?><!DOCTYPE svg PUBLIC "-//W3C//DTD SVG 1.1//EN" "http://www.w3.org/Graphics/SVG/1.1/DTD/svg11.dtd"><svg width="100%" height="100%" viewBox="0 0 30 47" version="1.1" xmlns="http://www.w3.org/2000/svg" xmlns:xlink="http://www.w3.org/1999/xlink" xml:space="preserve" xmlns:serif="http://www.serif.com/" style="fill-rule:evenodd;clip-rule:evenodd;stroke-linejoin:round;stroke-miterlimit:2;"><path d="M15,46.667c0,0 -13.667,-21.233 -13.667,-30.333c0,-7.543 6.124,-13.667 13.667,-13.667c7.543,0 13.667,6.124 13.667,13.667c0,9.1 -13.667,30.333 -13.667,30.333Z" style="fill:#d800ff;"/><path d="M15,46.667c0,0 -13.667,-21.233 -13.667,-30.333c0,-7.543 6.124,-13.667 13.667,-13.667c7.543,0 13.667,6.124 13.667,13.667c0,9.1 -13.667,30.333 -13.667,30.333Zm0,-2.619c2.081,-3.385 6.489,-10.824 9.438,-17.697c1.634,-3.809 2.839,-7.426 2.839,-10.017c0,-6.776 -5.501,-12.278 -12.278,-12.278c-6.776,0 -12.278,5.501 -12.278,12.278c0,2.591 1.205,6.208 2.839,10.017c2.949,6.873 7.357,14.312 9.438,17.697Z"/><circle cx="15" cy="16.333" r="5.667" style="fill:#fff;"/></svg>