<?xml version="1.0" encoding="UTF-8"?>
<svg id="Layer_1" data-name="Layer 1" xmlns="http://www.w3.org/2000/svg" viewBox="0 0 14.17323 14.17323">
  <defs>
    <style>
      .cls-1 {
        fill: #F55089;
      }

      .cls-2 {
        fill: #D6C7CC;
      }
    </style>
  </defs>
  <rect class="cls-2" width="14.17323" height="14.17323"/>
  <path class="cls-1" d="M10.00439,10.20312c-.05078,0-.10156-.01953-.14062-.05859L4.02783,4.30957c-.07812-.07764-.07812-.20361,0-.28125,.07812-.07812,.20312-.07812,.28125,0l5.83594,5.83496c.07812,.07715,.07812,.20312,0,.28125-.03906,.03906-.08984,.05859-.14062,.05859Z"/>
  <path class="cls-1" d="M4.16846,10.20312c-.05078,0-.10156-.01953-.14062-.05859-.07812-.07812-.07812-.2041,0-.28125l5.83594-5.83496c.07812-.07812,.20312-.07812,.28125,0,.07812,.07764,.07812,.20361,0,.28125l-5.83594,5.83496c-.03906,.03906-.08984,.05859-.14062,.05859Z"/>
</svg>