<?xml version="1.0" encoding="UTF-8"?>
<svg id="Layer_1" data-name="Layer 1" xmlns="http://www.w3.org/2000/svg" viewBox="0 0 348.91952 300.41406">
  <defs>
    <style>
      .cls-1 {
        fill: #fff;
      }
    </style>
  </defs>
  <g>
    <path class="cls-1" d="M247.56597,134.8006H101.34624c-5.16504,0-9.75098-3.30469-11.38379-8.20508-1.21973-3.65918-.60742-7.68359,1.64844-10.8125,2.25586-3.12988,5.87695-4.98535,9.73438-4.98535H247.56695c3.85742,0,7.47949,1.85449,9.73535,4.9834,2.25488,3.12891,2.86816,7.15234,1.64844,10.81152l-.00098,.00293c-1.63281,4.90039-6.21875,8.20508-11.38379,8.20508Z"/>
    <path class="cls-1" d="M270.87945,134.8006h-16.88477c-3.95312,0-7.65332-1.94727-9.8916-5.20605-.17871-.26074-.3457-.52637-.50293-.79688H105.31206c-.15723,.27051-.32422,.53613-.50293,.79688-2.23828,3.25879-5.93848,5.20605-9.8916,5.20605h-16.87793c-3.73633,0-7.25879-1.74023-9.5293-4.70703-2.27148-2.96777-3.03027-6.82227-2.05371-10.42871l19.19043-70.87988c3.25-12.0293,14.23047-20.43457,26.70215-20.43457h124.2207c12.4707,0,23.45215,8.40527,26.7041,20.43945l19.18848,70.875c.97656,3.60645,.2168,7.46191-2.05371,10.42871s-5.79297,4.70703-9.5293,4.70703Zm-175.5332-30.00293H253.57378l-13.4668-49.74121c-.4248-1.57031-1.91113-2.70605-3.53711-2.70605H112.34917c-1.625,0-3.11133,1.13574-3.53418,2.7002l-13.46875,49.74707Z"/>
    <path class="cls-1" d="M230.1314,180.13068H118.78179c-4.96484,0-9.41797-3.05762-11.2002-7.69238l-17.43555-45.33008c-1.41895-3.68945-.92969-7.8418,1.30859-11.10156,2.23828-3.25879,5.9375-5.20605,9.8916-5.20605H247.56597c3.95312,0,7.65332,1.94727,9.8916,5.20605,2.23828,3.25977,2.72754,7.41211,1.30859,11.10156l-17.43457,45.33008c-1.78223,4.63477-6.23535,7.69238-11.2002,7.69238Zm-103.1084-24h94.86719l8.20312-21.33008H118.8189l8.2041,21.33008Z"/>
    <path class="cls-1" d="M330.24956,250.93048H18.66948c-5.95312,0-11.00684-4.36426-11.87207-10.25488L.77788,199.73614c-3.02051-20.60254,2.88281-41.59766,16.19531-57.60742l6.31348-7.58691c-8.8252-4.48145-14.88477-13.64844-14.88477-24.20508,0-14.95898,12.16992-27.12891,27.12891-27.12891h11.42773l11.32812-41.83398C64.87554,17.01447,87.10698-.00018,112.34917-.00018h124.2207C261.81304-.00018,284.04546,17.01544,290.63335,41.37775l11.32715,41.83008h11.42773c14.95898,0,27.12891,12.16992,27.12891,27.12891,0,10.55664-6.05957,19.72363-14.88477,24.20508l6.31055,7.58301c.00098,.00098,.00195,.00195,.00293,.00391,13.3125,16.00879,19.21582,37.00391,16.19727,57.60156l-6.02148,40.94629c-.86621,5.88965-5.91895,10.25391-11.87207,10.25391Zm-32.51367-24h22.14941l4.5127-30.68652c2.03027-13.85938-1.94336-27.99316-10.90527-38.77148l-20.24902-24.33105c-2.97754-3.57715-3.61719-8.55469-1.6416-12.76953s6.21094-6.90625,10.86523-6.90625h10.9209c1.72559,0,3.12891-1.40332,3.12891-3.12891s-1.40332-3.12891-3.12891-3.12891h-20.61035c-5.41992,0-10.16602-3.63281-11.58301-8.86328l-13.72852-50.69727c-3.76562-13.9248-16.46973-23.64746-30.89648-23.64746H112.34917c-14.42578,0-27.13086,9.72266-30.89551,23.64355l-13.72949,50.70117c-1.41699,5.23047-6.16309,8.86328-11.58301,8.86328h-20.61035c-1.72559,0-3.12891,1.40332-3.12891,3.12891s1.40332,3.12891,3.12891,3.12891h10.9209c4.6543,0,8.88965,2.69141,10.86523,6.90625s1.33594,9.19238-1.6416,12.76953l-20.25195,24.33496c-8.95898,10.77441-12.93262,24.9082-10.90039,38.77344l4.51074,30.68066h22.14355c-14.70117-3.87891-25.57324-17.28906-25.57324-33.19141,0-18.9248,15.39648-34.32129,34.32227-34.32129,18.9248,0,34.32129,15.39648,34.32129,34.32129,0,15.90234-10.87207,29.3125-25.57227,33.19141h45.91797c-4.08301-1.91504-6.91016-6.0625-6.91016-10.87012v-22.32129c0-3.17285,1.23145-6.05762,3.24219-8.2041-3.36719-1.10254-6.14551-3.66797-7.46484-7.0957l-16.78418-43.63867h-8.63672c-3.73633,0-7.25879-1.74023-9.5293-4.70703-2.27148-2.96777-3.03027-6.82227-2.05371-10.42871l19.19043-70.87988c3.25-12.0293,14.23047-20.43457,26.70215-20.43457h124.2207c12.4707,0,23.45215,8.40527,26.7041,20.43945l19.18848,70.875c.97656,3.60645,.2168,7.46191-2.05371,10.42871s-5.79297,4.70703-9.5293,4.70703h-8.64258l-15.30566,39.79199v.00098l-1.47949,3.8457c-1.31836,3.42578-4.09473,5.99023-7.45996,7.09375,2.01172,2.14648,3.24414,5.03223,3.24414,8.20605v22.32129c0,4.80762-2.82715,8.95508-6.91016,10.87012h45.91211c-14.70117-3.87891-25.57324-17.28906-25.57324-33.19141,0-18.9248,15.39648-34.32129,34.32227-34.32129,18.9248,0,34.32129,15.39648,34.32129,34.32129,0,15.90234-10.87207,29.3125-25.57227,33.19141Zm-8.74902-43.5127c-5.69141,0-10.32227,4.62988-10.32227,10.32129s4.63086,10.32129,10.32227,10.32129,10.32129-4.62988,10.32129-10.32129-4.62988-10.32129-10.32129-10.32129Zm-229.06055,0c-5.69141,0-10.32227,4.62988-10.32227,10.32129s4.63086,10.32129,10.32227,10.32129,10.32129-4.62988,10.32129-10.32129-4.62988-10.32129-10.32129-10.32129Zm175.80469-13.13281h0Zm-112.8291-8.1543h103.1084l16.78418-43.63672c1.78125-4.63477,6.23438-7.69336,11.2002-7.69336h1.2041l-15.0918-55.74414c-.4248-1.57031-1.91113-2.70605-3.53711-2.70605H112.34917c-1.625,0-3.11133,1.13574-3.53418,2.7002l-15.09473,55.75h1.19727c4.96387,0,9.41602,3.05664,11.19922,7.68945l16.78516,43.64062Z"/>
    <path class="cls-1" d="M234.25152,186.13068H114.6607c-4.96484,0-9.41699-3.05762-11.2002-7.69141l-22.05176-57.33398c-1.41895-3.69043-.92969-7.84277,1.30859-11.10156s5.93848-5.20605,9.8916-5.20605h163.69434c3.95312,0,7.65332,1.94727,9.8916,5.20605s2.72754,7.41113,1.30859,11.10156l-22.05176,57.33398c-1.7832,4.63379-6.23535,7.69141-11.2002,7.69141Zm-107.22852-30h94.86719l8.2041-21.33301H118.81792l8.20508,21.33301Z"/>
    <path class="cls-1" d="M71.79741,300.41388h-18.90723c-15.0459,0-27.28613-12.24023-27.28613-27.28613v-21.05957c0-6.62695,5.37305-12,12-12h49.47949c6.62695,0,12,5.37305,12,12v21.05957c0,15.0459-12.24023,27.28613-27.28613,27.28613Zm-22.19336-36.3457v9.05957c0,1.81152,1.47461,3.28613,3.28613,3.28613h18.90723c1.81152,0,3.28613-1.47461,3.28613-3.28613v-9.05957h-25.47949Z"/>
    <path class="cls-1" d="M296.02202,300.41388h-18.90723c-15.0459,0-27.28613-12.24023-27.28613-27.28613v-21.05957c0-6.62695,5.37305-12,12-12h49.47949c6.62695,0,12,5.37305,12,12v21.05957c0,15.0459-12.24023,27.28613-27.28613,27.28613Zm-22.19336-36.3457v9.05957c0,1.81152,1.47461,3.28613,3.28613,3.28613h18.90723c1.81152,0,3.28613-1.47461,3.28613-3.28613v-9.05957h-25.47949Z"/>
    <rect class="cls-1" x="107.68316" y="181.73907" width="133.55273" height="46.32129" rx="12" ry="12"/>
    <path class="cls-1" d="M59.92632,228.06036c-18.92578,0-34.32227-15.39648-34.32227-34.32129s15.39648-34.32129,34.32227-34.32129c18.9248,0,34.32129,15.39648,34.32129,34.32129s-15.39648,34.32129-34.32129,34.32129Zm0-44.64258c-5.69141,0-10.32227,4.62988-10.32227,10.32129s4.63086,10.32129,10.32227,10.32129,10.32129-4.62988,10.32129-10.32129-4.62988-10.32129-10.32129-10.32129Z"/>
    <path class="cls-1" d="M288.98687,228.06036c-18.92578,0-34.32227-15.39648-34.32227-34.32129s15.39648-34.32129,34.32227-34.32129c18.9248,0,34.32129,15.39648,34.32129,34.32129s-15.39648,34.32129-34.32129,34.32129Zm0-44.64258c-5.69141,0-10.32227,4.62988-10.32227,10.32129s4.63086,10.32129,10.32227,10.32129,10.32129-4.62988,10.32129-10.32129-4.62988-10.32129-10.32129-10.32129Z"/>
  </g>
  <g>
    <rect class="cls-1" x="101.34599" y="122.79726" width="146.22083" height=".00313"/>
    <path class="cls-1" d="M101.3455,116.79736h154.95825l-2.30884,6.00293h16.88477l-19.18994-70.87988c-1.84009-6.81006-8.06006-11.57031-15.11987-11.57031H112.34965c-7.05981,0-13.27979,4.76025-15.11987,11.57031l-19.18994,70.87988h16.87817l-2.30884-6.00293h8.73633Z"/>
    <polygon class="cls-1" points="101.34648 122.80029 118.78178 168.13086 230.13114 168.13086 247.5662 122.80029 101.34648 122.80029"/>
    <path class="cls-1" d="M322.71977,149.80029l-20.2522-24.33496h10.9209c8.35522,0,15.12866-6.77344,15.12866-15.12891h0c0-8.35547-6.77344-15.12891-15.12866-15.12891h-20.61035l-13.72827-50.69727c-5.18994-19.18994-22.6001-32.51025-42.47998-32.51025H112.34965c-19.87988,0-37.28979,13.32031-42.47998,32.51025l-13.72827,50.69727h-20.61035c-8.35522,0-15.12866,6.77344-15.12866,15.12891h0c0,8.35547,6.77344,15.12891,15.12866,15.12891h10.9209l-20.2522,24.33496c-11.1499,13.41016-16.08008,30.93018-13.55005,48.18994l6.02002,40.93994H330.2498l6.02002-40.93994c2.53003-17.25977-2.40015-34.77979-13.55005-48.18994ZM59.92607,216.06055c-12.32812,0-22.32178-9.99365-22.32178-22.32129s9.99365-22.32178,22.32178-22.32178,22.32153,9.99365,22.32153,22.32178-9.99365,22.32129-22.32153,22.32129Zm169.31006,0H119.68339v-22.32129h109.55273v22.32129Zm6.49512-45.77588l-1.47925,3.84619H114.66093l-1.47925-3.84619-17.43628-45.33301-.82739-2.15137h-16.87817l19.18994-70.87988c1.84009-6.81006,8.06006-11.57031,15.11987-11.57031h124.22021c7.05981,0,13.27979,4.76025,15.11987,11.57031l19.18994,70.87988h-16.88477l-.82739,2.15137-17.43628,45.33301Zm53.25537,45.77588c-12.32812,0-22.32178-9.99365-22.32178-22.32129s9.99365-22.32178,22.32178-22.32178,22.32153,9.99365,22.32153,22.32178-9.99365,22.32129-22.32153,22.32129Z"/>
    <path class="cls-1" d="M256.30375,116.79736H92.60917l2.30884,6.00293,.82739,2.15137,17.43628,45.33301,1.47925,3.84619h119.59106l1.47925-3.84619,17.43628-45.33301,.82739-2.15137,2.30884-6.00293Zm-26.17261,51.3335H118.78178l-17.4353-45.33057-.00098-.00293H247.56742l-.00122,.00293-17.43506,45.33057Z"/>
    <path class="cls-1" d="M37.60429,273.12793c0,8.44238,6.84375,15.28613,15.28613,15.28613h18.90747c8.44214,0,15.28613-6.84375,15.28613-15.28613v-21.05957H37.60429v21.05957Z"/>
    <path class="cls-1" d="M261.82841,273.12793c0,8.44238,6.84375,15.28613,15.28613,15.28613h18.90771c8.44214,0,15.28589-6.84375,15.28589-15.28613v-21.05957h-49.47974v21.05957Z"/>
    <rect class="cls-1" x="119.68339" y="193.73926" width="109.55273" height="22.32129"/>
    <path class="cls-1" d="M59.92607,171.41748c-12.32812,0-22.32178,9.99365-22.32178,22.32178s9.99365,22.32129,22.32178,22.32129,22.32153-9.99365,22.32153-22.32129-9.99365-22.32178-22.32153-22.32178Z"/>
    <path class="cls-1" d="M288.98661,171.41748c-12.32812,0-22.32178,9.99365-22.32178,22.32178s9.99365,22.32129,22.32178,22.32129,22.32153-9.99365,22.32153-22.32129-9.99365-22.32178-22.32153-22.32178Z"/>
  </g>
  <g>
    <polygon points="101.34648 122.80029 118.78178 168.13086 230.13114 168.13086 247.5662 122.80029 101.34648 122.80029"/>
    <path d="M322.71977,149.80029l-20.2522-24.33496h10.9209c8.35522,0,15.12866-6.77344,15.12866-15.12891h0c0-8.35547-6.77344-15.12891-15.12866-15.12891h-20.61035l-13.72827-50.69727c-5.18994-19.18994-22.6001-32.51025-42.47998-32.51025H112.34965c-19.87988,0-37.28979,13.32031-42.47998,32.51025l-13.72827,50.69727h-20.61035c-8.35522,0-15.12866,6.77344-15.12866,15.12891h0c0,8.35547,6.77344,15.12891,15.12866,15.12891h10.9209l-20.2522,24.33496c-11.1499,13.41016-16.08008,30.93018-13.55005,48.18994l6.02002,40.93994H330.2498l6.02002-40.93994c2.53003-17.25977-2.40015-34.77979-13.55005-48.18994ZM59.92607,216.06055c-12.32812,0-22.32178-9.99365-22.32178-22.32129s9.99365-22.32178,22.32178-22.32178,22.32153,9.99365,22.32153,22.32178-9.99365,22.32129-22.32153,22.32129Zm169.31006,0H119.68339v-22.32129h109.55273v22.32129Zm6.49512-45.77588l-1.47925,3.84619H114.66093l-1.47925-3.84619-17.43628-45.33301-.82739-2.15137h-16.87817l19.18994-70.87988c1.84009-6.81006,8.06006-11.57031,15.11987-11.57031h124.22021c7.05981,0,13.27979,4.76025,15.11987,11.57031l19.18994,70.87988h-16.88477l-.82739,2.15137-17.43628,45.33301Zm53.25537,45.77588c-12.32812,0-22.32178-9.99365-22.32178-22.32129s9.99365-22.32178,22.32178-22.32178,22.32153,9.99365,22.32153,22.32178-9.99365,22.32129-22.32153,22.32129Z"/>
    <path class="cls-1" d="M256.30375,116.79736H92.60917l2.30884,6.00293,.82739,2.15137,17.43628,45.33301,1.47925,3.84619h119.59106l1.47925-3.84619,17.43628-45.33301,.82739-2.15137,2.30884-6.00293Zm-26.17261,51.3335H118.78178l-17.4353-45.33057-.00098-.00293H247.56742l-.00122,.00293-17.43506,45.33057Z"/>
    <path d="M37.60429,273.12793c0,8.44238,6.84375,15.28613,15.28613,15.28613h18.90747c8.44214,0,15.28613-6.84375,15.28613-15.28613v-21.05957H37.60429v21.05957Z"/>
    <path d="M261.82841,273.12793c0,8.44238,6.84375,15.28613,15.28613,15.28613h18.90771c8.44214,0,15.28589-6.84375,15.28589-15.28613v-21.05957h-49.47974v21.05957Z"/>
    <rect class="cls-1" x="119.68339" y="193.73926" width="109.55273" height="22.32129"/>
    <path class="cls-1" d="M59.92607,171.41748c-12.32812,0-22.32178,9.99365-22.32178,22.32178s9.99365,22.32129,22.32178,22.32129,22.32153-9.99365,22.32153-22.32129-9.99365-22.32178-22.32153-22.32178Z"/>
    <path class="cls-1" d="M288.98661,171.41748c-12.32812,0-22.32178,9.99365-22.32178,22.32178s9.99365,22.32129,22.32178,22.32129,22.32153-9.99365,22.32153-22.32129-9.99365-22.32178-22.32153-22.32178Z"/>
  </g>
</svg>