<?xml version="1.0" encoding="UTF-8" standalone="no"?><!DOCTYPE svg PUBLIC "-//W3C//DTD SVG 1.1//EN" "http://www.w3.org/Graphics/SVG/1.1/DTD/svg11.dtd"><svg width="100%" height="100%" viewBox="0 0 335 519" version="1.1" xmlns="http://www.w3.org/2000/svg" xmlns:xlink="http://www.w3.org/1999/xlink" xml:space="preserve" xmlns:serif="http://www.serif.com/" style="fill-rule:evenodd;clip-rule:evenodd;stroke-linejoin:round;stroke-miterlimit:2;"><path d="M153.82,114.314c25.432,-0 46.091,-20.659 46.091,-46.091c-0,-25.432 -20.659,-46.091 -46.091,-46.091c-25.432,0 -46.091,20.659 -46.091,46.091c0,25.432 20.659,46.091 46.091,46.091Zm-71.276,121.729l18.601,-18.601l0,57.037c0,23.045 10.041,45.021 27.572,60l58.766,50.371c4.856,4.197 8.066,9.959 8.971,16.296l10.371,72.511c2.057,14.403 15.391,24.444 29.794,22.387c14.403,-2.058 24.444,-15.391 22.387,-29.795l-10.371,-72.51c-2.716,-19.013 -12.263,-36.297 -26.831,-48.807l-28.395,-24.362l-0,-94.815l3.127,3.868c14.98,18.765 37.696,29.63 61.729,29.63l27.325,-0c14.568,-0 26.338,-11.77 26.338,-26.338c-0,-14.568 -11.77,-26.337 -26.338,-26.337l-27.325,-0c-7.984,-0 -15.556,-3.622 -20.576,-9.877l-14.733,-18.436c-18.93,-23.704 -47.654,-37.531 -78.025,-37.531c-26.502,-0 -51.934,10.535 -70.617,29.3l-29.054,28.725c-14.815,14.815 -23.128,34.897 -23.128,55.885l0,30.864c0,14.568 11.77,26.337 26.338,26.337c14.568,0 26.338,-11.769 26.338,-26.337l-0,-30.864c-0,-6.996 2.798,-13.663 7.736,-18.601Zm10.206,147.655c-1.235,4.279 -3.539,8.23 -6.667,11.358l-56.214,56.214c-10.288,10.288 -10.288,26.996 0,37.284c10.288,10.288 26.996,10.288 37.284,-0l56.214,-56.214c9.465,-9.465 16.379,-21.235 20.083,-34.157l1.81,-6.255l-37.86,-32.428c-2.057,-1.811 -4.115,-3.621 -6.09,-5.597l-8.56,29.795Z" style="fill:none;fill-rule:nonzero;stroke:#fff;stroke-width:44.26px;"/><path d="M153.82,114.314c25.432,-0 46.091,-20.659 46.091,-46.091c-0,-25.432 -20.659,-46.091 -46.091,-46.091c-25.432,0 -46.091,20.659 -46.091,46.091c0,25.432 20.659,46.091 46.091,46.091Zm-71.276,121.729l18.601,-18.601l0,57.037c0,23.045 10.041,45.021 27.572,60l58.766,50.371c4.856,4.197 8.066,9.959 8.971,16.296l10.371,72.511c2.057,14.403 15.391,24.444 29.794,22.387c14.403,-2.058 24.444,-15.391 22.387,-29.795l-10.371,-72.51c-2.716,-19.013 -12.263,-36.297 -26.831,-48.807l-28.395,-24.362l-0,-94.815l3.127,3.868c14.98,18.765 37.696,29.63 61.729,29.63l27.325,-0c14.568,-0 26.338,-11.77 26.338,-26.338c-0,-14.568 -11.77,-26.337 -26.338,-26.337l-27.325,-0c-7.984,-0 -15.556,-3.622 -20.576,-9.877l-14.733,-18.436c-18.93,-23.704 -47.654,-37.531 -78.025,-37.531c-26.502,-0 -51.934,10.535 -70.617,29.3l-29.054,28.725c-14.815,14.815 -23.128,34.897 -23.128,55.885l0,30.864c0,14.568 11.77,26.337 26.338,26.337c14.568,0 26.338,-11.769 26.338,-26.337l-0,-30.864c-0,-6.996 2.798,-13.663 7.736,-18.601Zm10.206,147.655c-1.235,4.279 -3.539,8.23 -6.667,11.358l-56.214,56.214c-10.288,10.288 -10.288,26.996 0,37.284c10.288,10.288 26.996,10.288 37.284,-0l56.214,-56.214c9.465,-9.465 16.379,-21.235 20.083,-34.157l1.81,-6.255l-37.86,-32.428c-2.057,-1.811 -4.115,-3.621 -6.09,-5.597l-8.56,29.795Z" style="fill-rule:nonzero;"/></svg>