<?xml version="1.0" encoding="UTF-8" standalone="no"?><!DOCTYPE svg PUBLIC "-//W3C//DTD SVG 1.1//EN" "http://www.w3.org/Graphics/SVG/1.1/DTD/svg11.dtd"><svg width="100%" height="100%" viewBox="0.918 0.915 98.164 97.988" version="1.1" xmlns="http://www.w3.org/2000/svg" xmlns:xlink="http://www.w3.org/1999/xlink" xml:space="preserve" xmlns:serif="http://www.serif.com/" style="fill-rule:evenodd;clip-rule:evenodd;stroke-linecap:round;stroke-linejoin:round;stroke-miterlimit:1.5;"><ellipse cx="50" cy="49.909" rx="43.467" ry="43.379" style="fill:none;stroke:#000;stroke-width:11.23px;"/><ellipse cx="50" cy="49.909" rx="43.467" ry="43.379" style="fill:#dbe8a5;"/><g><path d="M39.202,15.136c-0,-0 -15.208,0.199 -15.011,13.975c0.198,13.777 2.964,25.957 7.506,32.746c4.542,6.789 16.194,24.558 29.428,22.762c-0,0 6.518,-1.398 11.454,-4.593l-15.997,-12.579c0,-0 -4.74,2.995 -7.702,-0.999c-2.964,-3.992 -12.246,-22.561 -12.246,-22.561c0,0 -2.567,-5.99 3.161,-8.586l-0.593,-20.165Z" style="fill-rule:nonzero;"/><path d="M40.98,15.136c-0,-0 1.185,-0.398 3.357,0.799c2.172,1.197 2.172,2.194 2.172,2.194l0.198,13.778c0,0 -0.593,0.8 -1.382,1.597c-0.79,0.798 -3.358,1.997 -3.754,1.198c-0.393,-0.798 -0.591,-19.566 -0.591,-19.566Z" style="fill-rule:nonzero;"/><path d="M57.912,65.974l4.398,-2.321c-0,-0 0.987,-0.199 2.567,0.798c1.58,1.001 9.875,7.59 9.875,7.59c0,-0 1.383,1.198 0.988,2.595c-0.395,1.398 -1.383,4.393 -1.383,4.393l-16.445,-13.055Z" style="fill-rule:nonzero;"/></g></svg>