<?xml version="1.0" encoding="UTF-8"?>
<svg id="Layer_1" data-name="Layer 1" xmlns="http://www.w3.org/2000/svg" viewBox="0 0 260.28247 307.46484">
  <defs>
    <style>
      .cls-1 {
        fill: #fff;
      }
    </style>
  </defs>
  <g>
    <path class="cls-1" d="M33.05285,307.46486H12.00012C5.37268,307.46486,.00012,302.09181,.00012,295.46486V147.3174C.00012,107.8506,9.42541,77.00588,28.01379,55.63967c9.35449-10.75293,20.89062-18.91504,34.28711-24.26172,10.20117-4.07129,21.49707-6.49023,33.6377-7.20703C113.99426,8.5508,136.88586,.00002,160.90051,.00002,215.69982,.00002,260.28234,44.58303,260.28234,99.38185c0,6.62695-5.37256,12-12,12H73.51867c-6.62744,0-12-5.37305-12-12,0-4.98926,.37939-9.9707,1.12549-14.89258-.21533,.2373-.4292,.47754-.64062,.7207-11.24756,12.92871-16.95068,33.82422-16.95068,62.10742v148.14746c0,6.62695-5.37256,12-12,12ZM86.45666,87.38185H235.32824c-5.76318-35.88477-36.94385-63.38184-74.42773-63.38184-19.38721,0-37.80811,7.3457-51.86865,20.68555-2.15771,2.04688-4.99902,3.21973-7.97266,3.29004-4.06836,.09766-8.00586,.4209-11.79736,.96582,1.2832,.74609,2.43799,1.73633,3.39062,2.94434,2.91504,3.69727,3.39844,8.75781,1.23682,12.94043-3.70117,7.15918-6.18604,14.70898-7.43262,22.55566Z"/>
    <path class="cls-1" d="M232.00988,305.94728c-11.5332,0-20.9165-9.38281-20.9165-20.91602,0-8.07129,6.6748-16.69336,12.2749-22.50586,2.26172-2.34766,5.38135-3.67383,8.6416-3.67383s6.37988,1.32617,8.6416,3.67383c5.6001,5.8125,12.2749,14.43457,12.2749,22.50586,0,11.5332-9.3833,20.91602-20.9165,20.91602Z"/>
    <path class="cls-1" d="M182.52307,305.94728c-11.5332,0-20.9165-9.38281-20.9165-20.91602,0-8.07129,6.6748-16.69336,12.2749-22.50586,2.26172-2.34766,5.38135-3.67383,8.6416-3.67383s6.37988,1.32617,8.6416,3.67383c5.6001,5.8125,12.2749,14.43457,12.2749,22.50586,0,11.5332-9.3833,20.91602-20.9165,20.91602Z"/>
    <path class="cls-1" d="M133.03625,305.94728c-11.5332,0-20.9165-9.38281-20.9165-20.91602,0-8.07129,6.6748-16.69336,12.2749-22.50586,2.26172-2.34766,5.38135-3.67383,8.6416-3.67383s6.37988,1.32617,8.6416,3.67383c5.6001,5.8125,12.2749,14.43457,12.2749,22.50586,0,11.5332-9.3833,20.91602-20.9165,20.91602Z"/>
    <path class="cls-1" d="M83.54992,305.94728c-11.5332,0-20.9165-9.38281-20.9165-20.91602,0-8.07129,6.6748-16.69336,12.2749-22.50586,2.26172-2.34766,5.38135-3.67383,8.6416-3.67383s6.37988,1.32617,8.6416,3.67383c5.6001,5.8125,12.2749,14.43457,12.2749,22.50586,0,11.5332-9.3833,20.91602-20.9165,20.91602Z"/>
    <path class="cls-1" d="M229.76184,273.36525c-11.5332,0-20.9165-9.38379-20.9165-20.91699,0-8.06934,6.6748-16.69238,12.27441-22.50488,2.26172-2.34863,5.38184-3.6748,8.64209-3.6748s6.38037,1.32617,8.64209,3.6748c5.59961,5.8125,12.27441,14.43555,12.27441,22.50488,0,11.5332-9.3833,20.91699-20.9165,20.91699Z"/>
    <path class="cls-1" d="M181.77356,273.36525c-11.5332,0-20.91602-9.38379-20.91602-20.91699,0-8.06934,6.67432-16.69238,12.27344-22.50488,2.26221-2.34766,5.38184-3.6748,8.64258-3.6748,3.26025,0,6.38037,1.32617,8.64209,3.6748,5.59961,5.8125,12.27441,14.43555,12.27441,22.50488,0,11.5332-9.3833,20.91699-20.9165,20.91699Z"/>
    <path class="cls-1" d="M133.78576,273.36525c-11.5332,0-20.9165-9.38379-20.9165-20.91699,0-8.06934,6.6748-16.69238,12.27441-22.50488,2.26172-2.34863,5.38184-3.6748,8.64209-3.6748s6.38037,1.32617,8.64209,3.6748c5.59961,5.8125,12.27441,14.43555,12.27441,22.50488,0,11.5332-9.3833,20.91699-20.9165,20.91699Z"/>
    <path class="cls-1" d="M85.79748,273.36525c-11.5332,0-20.9165-9.38379-20.9165-20.91699,0-8.06934,6.6748-16.69238,12.27441-22.50488,2.26172-2.34863,5.38184-3.6748,8.64209-3.6748s6.38037,1.32617,8.64209,3.6748c5.59961,5.8125,12.27441,14.43555,12.27441,22.50488,0,11.5332-9.3833,20.91699-20.9165,20.91699Z"/>
    <path class="cls-1" d="M227.51428,240.78224c-11.5332,0-20.9165-9.38281-20.9165-20.91602,0-8.07129,6.6748-16.69336,12.2749-22.50586,2.26172-2.34766,5.38135-3.67383,8.6416-3.67383s6.37988,1.32617,8.6416,3.67383c5.6001,5.8125,12.2749,14.43457,12.2749,22.50586,0,11.5332-9.3833,20.91602-20.9165,20.91602Z"/>
    <path class="cls-1" d="M181.02453,240.78224c-11.5332,0-20.9165-9.38281-20.9165-20.91602,0-8.07129,6.6748-16.69336,12.2749-22.50586,2.26172-2.34766,5.38135-3.67383,8.6416-3.67383s6.37988,1.32617,8.6416,3.67383c5.6001,5.8125,12.2749,14.43457,12.2749,22.50586,0,11.5332-9.3833,20.91602-20.9165,20.91602Z"/>
    <path class="cls-1" d="M134.53479,240.78224c-11.5332,0-20.9165-9.38281-20.9165-20.91602,0-8.07129,6.6748-16.69336,12.2749-22.50586,2.26172-2.34766,5.38135-3.67383,8.6416-3.67383s6.37988,1.32617,8.6416,3.67383c5.6001,5.8125,12.2749,14.43457,12.2749,22.50586,0,11.5332-9.3833,20.91602-20.9165,20.91602Z"/>
    <path class="cls-1" d="M88.04504,240.78224c-11.5332,0-20.9165-9.38281-20.9165-20.91602,0-8.07129,6.6748-16.69336,12.2749-22.50586,2.26172-2.34766,5.38135-3.67383,8.6416-3.67383s6.37988,1.32617,8.6416,3.67383c5.6001,5.8125,12.2749,14.43457,12.2749,22.50586,0,11.5332-9.3833,20.91602-20.9165,20.91602Z"/>
    <path class="cls-1" d="M225.26672,208.20021c-11.5332,0-20.9165-9.38281-20.9165-20.91602,0-8.07129,6.6748-16.69336,12.2749-22.50586,2.26172-2.34766,5.38135-3.67383,8.6416-3.67383s6.37988,1.32617,8.6416,3.67383c5.6001,5.8125,12.2749,14.43457,12.2749,22.50586,0,11.5332-9.3833,20.91602-20.9165,20.91602Z"/>
    <path class="cls-1" d="M180.27551,208.20021c-11.5332,0-20.9165-9.38281-20.9165-20.91602,0-8.07129,6.6748-16.69336,12.2749-22.50586,2.26172-2.34766,5.38135-3.67383,8.6416-3.67383s6.37988,1.32617,8.6416,3.67383c5.6001,5.8125,12.2749,14.43457,12.2749,22.50586,0,11.5332-9.3833,20.91602-20.9165,20.91602Z"/>
    <path class="cls-1" d="M135.2843,208.20021c-11.5332,0-20.9165-9.38281-20.9165-20.91602,0-8.07129,6.6748-16.69336,12.2749-22.50586,2.26172-2.34766,5.38135-3.67383,8.6416-3.67383s6.37988,1.32617,8.6416,3.67383c5.6001,5.8125,12.2749,14.43457,12.2749,22.50586,0,11.5332-9.3833,20.91602-20.9165,20.91602Z"/>
    <path class="cls-1" d="M90.29309,208.20021c-11.5332,0-20.9165-9.38281-20.9165-20.91602,0-8.07129,6.6748-16.69336,12.2749-22.50586,2.26172-2.34766,5.38135-3.67383,8.6416-3.67383s6.37988,1.32617,8.6416,3.67383c5.6001,5.8125,12.2749,14.43457,12.2749,22.50586,0,11.5332-9.3833,20.91602-20.9165,20.91602Z"/>
    <path class="cls-1" d="M223.01916,175.61818c-11.53369,0-20.91699-9.38379-20.91699-20.91699,0-8.07031,6.67529-16.69238,12.2749-22.50488,2.26172-2.34863,5.38184-3.6748,8.64209-3.6748h.00049c3.26025,0,6.37988,1.32715,8.64209,3.6748,5.59912,5.8125,12.27344,14.43555,12.27344,22.50488,0,11.5332-9.38281,20.91699-20.91602,20.91699Z"/>
    <path class="cls-1" d="M179.526,175.61818c-11.5332,0-20.9165-9.38379-20.9165-20.91699,0-8.06934,6.6748-16.69238,12.27441-22.50488,2.26172-2.34863,5.38184-3.6748,8.64209-3.6748s6.38037,1.32617,8.64209,3.6748c5.59961,5.8125,12.27441,14.43555,12.27441,22.50488,0,11.5332-9.3833,20.91699-20.9165,20.91699Z"/>
    <path class="cls-1" d="M136.03332,175.61818c-11.5332,0-20.9165-9.38379-20.9165-20.91699,0-8.06934,6.6748-16.69238,12.27441-22.50488,2.26172-2.34863,5.38184-3.6748,8.64209-3.6748s6.38037,1.32617,8.64209,3.6748c5.59961,5.8125,12.27441,14.43555,12.27441,22.50488,0,11.5332-9.3833,20.91699-20.9165,20.91699Z"/>
    <path class="cls-1" d="M92.54064,175.61818c-11.5332,0-20.9165-9.38379-20.9165-20.91699,0-8.06934,6.6748-16.69238,12.27441-22.50488,2.26172-2.34863,5.38184-3.6748,8.64209-3.6748s6.38037,1.32617,8.64209,3.6748c5.59961,5.8125,12.27441,14.43555,12.27441,22.50488,0,11.5332-9.3833,20.91699-20.9165,20.91699Z"/>
    <path class="cls-1" d="M220.77111,143.03517c-11.5332,0-20.9165-9.38281-20.9165-20.91602,0-8.07129,6.6748-16.69336,12.2749-22.50586,2.26172-2.34766,5.38135-3.67383,8.6416-3.67383s6.37988,1.32617,8.6416,3.67383c5.6001,5.8125,12.2749,14.43457,12.2749,22.50586,0,11.5332-9.3833,20.91602-20.9165,20.91602Z"/>
    <path class="cls-1" d="M178.77697,143.03517c-11.5332,0-20.9165-9.38281-20.9165-20.91602,0-8.07129,6.6748-16.69336,12.2749-22.50586,2.26172-2.34766,5.38135-3.67383,8.6416-3.67383s6.37988,1.32617,8.6416,3.67383c5.6001,5.8125,12.2749,14.43457,12.2749,22.50586,0,11.5332-9.3833,20.91602-20.9165,20.91602Z"/>
    <path class="cls-1" d="M136.78234,143.03517c-11.5332,0-20.9165-9.38281-20.9165-20.91602,0-8.07129,6.6748-16.69336,12.2749-22.50586,2.26172-2.34766,5.38135-3.67383,8.6416-3.67383s6.37988,1.32617,8.6416,3.67383c5.6001,5.8125,12.2749,14.43457,12.2749,22.50586,0,11.5332-9.3833,20.91602-20.9165,20.91602Z"/>
    <path class="cls-1" d="M94.7882,143.03517c-11.5332,0-20.9165-9.38281-20.9165-20.91602,0-8.07129,6.6748-16.69336,12.2749-22.50586,2.26172-2.34766,5.38135-3.67383,8.6416-3.67383s6.37988,1.32617,8.6416,3.67383c5.6001,5.8125,12.2749,14.43457,12.2749,22.50586,0,11.5332-9.3833,20.91602-20.9165,20.91602Z"/>
  </g>
  <g>
    <path class="cls-1" d="M248.28247,99.38184c0-48.25928-39.12231-87.38184-87.38184-87.38184-23.29688,0-44.46265,9.11865-60.12744,23.97949-12.43896,.29736-23.87354,2.49268-34.02466,6.54395-11.60669,4.63232-21.59302,11.69531-29.6814,20.99268-16.6333,19.11914-25.06714,47.31396-25.06714,83.80127v148.14746h21.05298V147.31738c0-31.26123,6.69434-54.80713,19.89746-69.9834,7.79004-8.9541,17.93091-14.97656,30.27856-18.01855-6.20386,12.00195-9.71021,25.62451-9.71021,40.06641H248.28247Z"/>
    <path class="cls-1" d="M223.09326,285.03125c0,4.92432,3.99194,8.9165,8.9165,8.9165s8.9165-3.99219,8.9165-8.9165-8.9165-14.17969-8.9165-14.17969c0,0-8.9165,9.25537-8.9165,14.17969Z"/>
    <path class="cls-1" d="M173.60669,285.03125c0,4.92432,3.99194,8.9165,8.9165,8.9165s8.9165-3.99219,8.9165-8.9165-8.9165-14.17969-8.9165-14.17969c0,0-8.9165,9.25537-8.9165,14.17969Z"/>
    <path class="cls-1" d="M124.11987,285.03125c0,4.92432,3.99219,8.9165,8.9165,8.9165s8.9165-3.99219,8.9165-8.9165-8.9165-14.17969-8.9165-14.17969c0,0-8.9165,9.25537-8.9165,14.17969Z"/>
    <path class="cls-1" d="M74.6333,285.03125c0,4.92432,3.99194,8.9165,8.9165,8.9165s8.9165-3.99219,8.9165-8.9165-8.9165-14.17969-8.9165-14.17969c0,0-8.9165,9.25537-8.9165,14.17969Z"/>
    <path class="cls-1" d="M229.76196,261.36523c4.92456,0,8.9165-3.99219,8.9165-8.9165s-8.9165-14.17969-8.9165-14.17969c0,0-8.9165,9.25537-8.9165,14.17969s3.99219,8.9165,8.9165,8.9165Z"/>
    <path class="cls-1" d="M181.77368,261.36523c4.92456,0,8.9165-3.99219,8.9165-8.9165s-8.9165-14.17969-8.9165-14.17969c0,0-8.91626,9.25537-8.91626,14.17969s3.99194,8.9165,8.91626,8.9165Z"/>
    <path class="cls-1" d="M124.86914,252.44873c0,4.92432,3.99219,8.9165,8.9165,8.9165s8.9165-3.99219,8.9165-8.9165-8.9165-14.17969-8.9165-14.17969c0,0-8.9165,9.25537-8.9165,14.17969Z"/>
    <path class="cls-1" d="M76.88086,252.44873c0,4.92432,3.99219,8.9165,8.91675,8.9165s8.9165-3.99219,8.9165-8.9165-8.9165-14.17969-8.9165-14.17969c0,0-8.91675,9.25537-8.91675,14.17969Z"/>
    <path class="cls-1" d="M227.5144,228.78271c4.92432,0,8.9165-3.9917,8.9165-8.9165,0-4.92432-8.9165-14.17969-8.9165-14.17969,0,0-8.9165,9.25537-8.9165,14.17969,0,4.9248,3.99194,8.9165,8.9165,8.9165Z"/>
    <path class="cls-1" d="M181.02466,228.78271c4.92432,0,8.9165-3.9917,8.9165-8.9165,0-4.92432-8.9165-14.17969-8.9165-14.17969,0,0-8.9165,9.25537-8.9165,14.17969,0,4.9248,3.99194,8.9165,8.9165,8.9165Z"/>
    <path class="cls-1" d="M125.61841,219.86621c0,4.9248,3.99219,8.9165,8.9165,8.9165s8.9165-3.9917,8.9165-8.9165c0-4.92432-8.9165-14.17969-8.9165-14.17969,0,0-8.9165,9.25537-8.9165,14.17969Z"/>
    <path class="cls-1" d="M79.12866,219.86621c0,4.9248,3.99219,8.9165,8.9165,8.9165s8.9165-3.9917,8.9165-8.9165c0-4.92432-8.9165-14.17969-8.9165-14.17969,0,0-8.9165,9.25537-8.9165,14.17969Z"/>
    <path class="cls-1" d="M225.2666,196.2002c4.92456,0,8.9165-3.9917,8.9165-8.91602,0-4.9248-8.9165-14.17969-8.9165-14.17969,0,0-8.9165,9.25488-8.9165,14.17969,0,4.92432,3.99194,8.91602,8.9165,8.91602Z"/>
    <path class="cls-1" d="M180.27539,196.2002c4.92432,0,8.9165-3.9917,8.9165-8.91602,0-4.9248-8.9165-14.17969-8.9165-14.17969,0,0-8.9165,9.25488-8.9165,14.17969,0,4.92432,3.99194,8.91602,8.9165,8.91602Z"/>
    <path class="cls-1" d="M126.36768,187.28418c0,4.92432,3.99194,8.91602,8.9165,8.91602s8.9165-3.9917,8.9165-8.91602c0-4.9248-8.9165-14.17969-8.9165-14.17969,0,0-8.9165,9.25488-8.9165,14.17969Z"/>
    <path class="cls-1" d="M81.37646,187.28418c0,4.92432,3.99194,8.91602,8.9165,8.91602s8.9165-3.9917,8.9165-8.91602c0-4.9248-8.9165-14.17969-8.9165-14.17969,0,0-8.9165,9.25488-8.9165,14.17969Z"/>
    <path class="cls-1" d="M223.01904,163.61816c4.92432,0,8.91626-3.99219,8.91626-8.9165s-8.91626-14.17969-8.91626-14.17969c0,0-8.91675,9.25537-8.91675,14.17969s3.99219,8.9165,8.91675,8.9165Z"/>
    <path class="cls-1" d="M179.52612,163.61816c4.92456,0,8.9165-3.99219,8.9165-8.9165s-8.9165-14.17969-8.9165-14.17969c0,0-8.9165,9.25537-8.9165,14.17969s3.99194,8.9165,8.9165,8.9165Z"/>
    <path class="cls-1" d="M127.11694,154.70166c0,4.92432,3.99194,8.9165,8.9165,8.9165s8.9165-3.99219,8.9165-8.9165-8.9165-14.17969-8.9165-14.17969c0,0-8.9165,9.25537-8.9165,14.17969Z"/>
    <path class="cls-1" d="M83.62402,154.70166c0,4.92432,3.99219,8.9165,8.9165,8.9165s8.9165-3.99219,8.9165-8.9165-8.9165-14.17969-8.9165-14.17969c0,0-8.9165,9.25537-8.9165,14.17969Z"/>
    <path class="cls-1" d="M220.77124,131.03564c4.92432,0,8.9165-3.99219,8.9165-8.9165s-8.9165-14.17969-8.9165-14.17969c0,0-8.9165,9.25537-8.9165,14.17969s3.99219,8.9165,8.9165,8.9165Z"/>
    <path class="cls-1" d="M178.77686,131.03564c4.92456,0,8.9165-3.99219,8.9165-8.9165s-8.9165-14.17969-8.9165-14.17969c0,0-8.9165,9.25537-8.9165,14.17969s3.99219,8.9165,8.9165,8.9165Z"/>
    <path class="cls-1" d="M127.86597,122.11914c0,4.92432,3.99219,8.9165,8.9165,8.9165s8.9165-3.99219,8.9165-8.9165-8.9165-14.17969-8.9165-14.17969c0,0-8.9165,9.25537-8.9165,14.17969Z"/>
    <path class="cls-1" d="M85.87183,122.11914c0,4.92432,3.99219,8.9165,8.9165,8.9165s8.9165-3.99219,8.9165-8.9165-8.9165-14.17969-8.9165-14.17969c0,0-8.9165,9.25537-8.9165,14.17969Z"/>
  </g>
  <g>
    <path d="M248.28247,99.38184c0-48.25928-39.12231-87.38184-87.38184-87.38184-23.29688,0-44.46265,9.11865-60.12744,23.97949-12.43896,.29736-23.87354,2.49268-34.02466,6.54395-11.60669,4.63232-21.59302,11.69531-29.6814,20.99268-16.6333,19.11914-25.06714,47.31396-25.06714,83.80127v148.14746h21.05298V147.31738c0-31.26123,6.69434-54.80713,19.89746-69.9834,7.79004-8.9541,17.93091-14.97656,30.27856-18.01855-6.20386,12.00195-9.71021,25.62451-9.71021,40.06641H248.28247Z"/>
    <path d="M223.09326,285.03125c0,4.92432,3.99194,8.9165,8.9165,8.9165s8.9165-3.99219,8.9165-8.9165-8.9165-14.17969-8.9165-14.17969c0,0-8.9165,9.25537-8.9165,14.17969Z"/>
    <path d="M173.60669,285.03125c0,4.92432,3.99194,8.9165,8.9165,8.9165s8.9165-3.99219,8.9165-8.9165-8.9165-14.17969-8.9165-14.17969c0,0-8.9165,9.25537-8.9165,14.17969Z"/>
    <path d="M124.11987,285.03125c0,4.92432,3.99219,8.9165,8.9165,8.9165s8.9165-3.99219,8.9165-8.9165-8.9165-14.17969-8.9165-14.17969c0,0-8.9165,9.25537-8.9165,14.17969Z"/>
    <path d="M74.6333,285.03125c0,4.92432,3.99194,8.9165,8.9165,8.9165s8.9165-3.99219,8.9165-8.9165-8.9165-14.17969-8.9165-14.17969c0,0-8.9165,9.25537-8.9165,14.17969Z"/>
    <path d="M229.76196,261.36523c4.92456,0,8.9165-3.99219,8.9165-8.9165s-8.9165-14.17969-8.9165-14.17969c0,0-8.9165,9.25537-8.9165,14.17969s3.99219,8.9165,8.9165,8.9165Z"/>
    <path d="M181.77368,261.36523c4.92456,0,8.9165-3.99219,8.9165-8.9165s-8.9165-14.17969-8.9165-14.17969c0,0-8.91626,9.25537-8.91626,14.17969s3.99194,8.9165,8.91626,8.9165Z"/>
    <path d="M124.86914,252.44873c0,4.92432,3.99219,8.9165,8.9165,8.9165s8.9165-3.99219,8.9165-8.9165-8.9165-14.17969-8.9165-14.17969c0,0-8.9165,9.25537-8.9165,14.17969Z"/>
    <path d="M76.88086,252.44873c0,4.92432,3.99219,8.9165,8.91675,8.9165s8.9165-3.99219,8.9165-8.9165-8.9165-14.17969-8.9165-14.17969c0,0-8.91675,9.25537-8.91675,14.17969Z"/>
    <path d="M227.5144,228.78271c4.92432,0,8.9165-3.9917,8.9165-8.9165,0-4.92432-8.9165-14.17969-8.9165-14.17969,0,0-8.9165,9.25537-8.9165,14.17969,0,4.9248,3.99194,8.9165,8.9165,8.9165Z"/>
    <path d="M181.02466,228.78271c4.92432,0,8.9165-3.9917,8.9165-8.9165,0-4.92432-8.9165-14.17969-8.9165-14.17969,0,0-8.9165,9.25537-8.9165,14.17969,0,4.9248,3.99194,8.9165,8.9165,8.9165Z"/>
    <path d="M125.61841,219.86621c0,4.9248,3.99219,8.9165,8.9165,8.9165s8.9165-3.9917,8.9165-8.9165c0-4.92432-8.9165-14.17969-8.9165-14.17969,0,0-8.9165,9.25537-8.9165,14.17969Z"/>
    <path d="M79.12866,219.86621c0,4.9248,3.99219,8.9165,8.9165,8.9165s8.9165-3.9917,8.9165-8.9165c0-4.92432-8.9165-14.17969-8.9165-14.17969,0,0-8.9165,9.25537-8.9165,14.17969Z"/>
    <path d="M225.2666,196.2002c4.92456,0,8.9165-3.9917,8.9165-8.91602,0-4.9248-8.9165-14.17969-8.9165-14.17969,0,0-8.9165,9.25488-8.9165,14.17969,0,4.92432,3.99194,8.91602,8.9165,8.91602Z"/>
    <path d="M180.27539,196.2002c4.92432,0,8.9165-3.9917,8.9165-8.91602,0-4.9248-8.9165-14.17969-8.9165-14.17969,0,0-8.9165,9.25488-8.9165,14.17969,0,4.92432,3.99194,8.91602,8.9165,8.91602Z"/>
    <path d="M126.36768,187.28418c0,4.92432,3.99194,8.91602,8.9165,8.91602s8.9165-3.9917,8.9165-8.91602c0-4.9248-8.9165-14.17969-8.9165-14.17969,0,0-8.9165,9.25488-8.9165,14.17969Z"/>
    <path d="M81.37646,187.28418c0,4.92432,3.99194,8.91602,8.9165,8.91602s8.9165-3.9917,8.9165-8.91602c0-4.9248-8.9165-14.17969-8.9165-14.17969,0,0-8.9165,9.25488-8.9165,14.17969Z"/>
    <path d="M223.01904,163.61816c4.92432,0,8.91626-3.99219,8.91626-8.9165s-8.91626-14.17969-8.91626-14.17969c0,0-8.91675,9.25537-8.91675,14.17969s3.99219,8.9165,8.91675,8.9165Z"/>
    <path d="M179.52612,163.61816c4.92456,0,8.9165-3.99219,8.9165-8.9165s-8.9165-14.17969-8.9165-14.17969c0,0-8.9165,9.25537-8.9165,14.17969s3.99194,8.9165,8.9165,8.9165Z"/>
    <path d="M127.11694,154.70166c0,4.92432,3.99194,8.9165,8.9165,8.9165s8.9165-3.99219,8.9165-8.9165-8.9165-14.17969-8.9165-14.17969c0,0-8.9165,9.25537-8.9165,14.17969Z"/>
    <path d="M83.62402,154.70166c0,4.92432,3.99219,8.9165,8.9165,8.9165s8.9165-3.99219,8.9165-8.9165-8.9165-14.17969-8.9165-14.17969c0,0-8.9165,9.25537-8.9165,14.17969Z"/>
    <path d="M220.77124,131.03564c4.92432,0,8.9165-3.99219,8.9165-8.9165s-8.9165-14.17969-8.9165-14.17969c0,0-8.9165,9.25537-8.9165,14.17969s3.99219,8.9165,8.9165,8.9165Z"/>
    <path d="M178.77686,131.03564c4.92456,0,8.9165-3.99219,8.9165-8.9165s-8.9165-14.17969-8.9165-14.17969c0,0-8.9165,9.25537-8.9165,14.17969s3.99219,8.9165,8.9165,8.9165Z"/>
    <path d="M127.86597,122.11914c0,4.92432,3.99219,8.9165,8.9165,8.9165s8.9165-3.99219,8.9165-8.9165-8.9165-14.17969-8.9165-14.17969c0,0-8.9165,9.25537-8.9165,14.17969Z"/>
    <path d="M85.87183,122.11914c0,4.92432,3.99219,8.9165,8.9165,8.9165s8.9165-3.99219,8.9165-8.9165-8.9165-14.17969-8.9165-14.17969c0,0-8.9165,9.25537-8.9165,14.17969Z"/>
  </g>
</svg>