<?xml version="1.0" encoding="UTF-8"?>
<svg id="Layer_1" data-name="Layer 1" xmlns="http://www.w3.org/2000/svg" xmlns:xlink="http://www.w3.org/1999/xlink" viewBox="0 0 413.5291 367.57562">
  <defs>
    <style>
      .cls-1, .cls-2, .cls-3, .cls-4, .cls-5 {
        fill: none;
      }

      .cls-2 {
        stroke-miterlimit: 10;
        stroke-width: 12px;
      }

      .cls-2, .cls-4, .cls-5 {
        stroke: #fff;
      }

      .cls-6 {
        clip-path: url(#clippath);
      }

      .cls-7 {
        fill: #fff;
      }

      .cls-8 {
        fill: #231f20;
      }

      .cls-9 {
        clip-path: url(#clippath-1);
      }

      .cls-10 {
        clip-path: url(#clippath-4);
      }

      .cls-11 {
        clip-path: url(#clippath-3);
      }

      .cls-12 {
        clip-path: url(#clippath-2);
      }

      .cls-13 {
        clip-path: url(#clippath-7);
      }

      .cls-14 {
        clip-path: url(#clippath-8);
      }

      .cls-15 {
        clip-path: url(#clippath-6);
      }

      .cls-16 {
        clip-path: url(#clippath-5);
      }

      .cls-17 {
        clip-path: url(#clippath-9);
      }

      .cls-18 {
        clip-path: url(#clippath-14);
      }

      .cls-19 {
        clip-path: url(#clippath-13);
      }

      .cls-20 {
        clip-path: url(#clippath-12);
      }

      .cls-21 {
        clip-path: url(#clippath-10);
      }

      .cls-22 {
        clip-path: url(#clippath-19);
      }

      .cls-23 {
        clip-path: url(#clippath-11);
      }

      .cls-3 {
        stroke: #231f20;
      }

      .cls-3, .cls-4 {
        stroke-width: 24px;
      }

      .cls-5 {
        stroke-width: 48px;
      }
    </style>
    <clipPath id="clippath">
      <polygon class="cls-1" points="405.23798 220.86456 122.10749 220.86456 122.10749 12 405.23798 22 405.23798 220.86456"/>
    </clipPath>
    <clipPath id="clippath-1">
      <polygon class="cls-1" points="405.23798 220.86456 122.10749 220.86456 122.10749 12 405.23798 22 405.23798 220.86456"/>
    </clipPath>
    <clipPath id="clippath-2">
      <polygon class="cls-1" points="405.23798 220.86456 122.10749 220.86456 122.10749 12 405.23798 22 405.23798 220.86456"/>
    </clipPath>
    <clipPath id="clippath-3">
      <polygon class="cls-1" points="405.23798 220.86456 122.10749 220.86456 122.10749 12 405.23798 22 405.23798 220.86456"/>
    </clipPath>
    <clipPath id="clippath-4">
      <polygon class="cls-1" points="405.23798 220.86456 122.10749 220.86456 122.10749 12 405.23798 22 405.23798 220.86456"/>
    </clipPath>
    <clipPath id="clippath-5">
      <polygon class="cls-1" points="405.23798 220.86456 122.10749 220.86456 122.10749 12 405.23798 22 405.23798 220.86456"/>
    </clipPath>
    <clipPath id="clippath-6">
      <polygon class="cls-1" points="405.23798 220.86456 122.10749 220.86456 122.10749 12 405.23798 22 405.23798 220.86456"/>
    </clipPath>
    <clipPath id="clippath-7">
      <polygon class="cls-1" points="405.23798 220.86456 122.10749 220.86456 122.10749 12 405.23798 22 405.23798 220.86456"/>
    </clipPath>
    <clipPath id="clippath-8">
      <polygon class="cls-1" points="405.23798 220.86456 122.10749 220.86456 122.10749 12 405.23798 22 405.23798 220.86456"/>
    </clipPath>
    <clipPath id="clippath-9">
      <polygon class="cls-1" points="204.95403 104.84654 122.10749 104.84654 122.10749 12 204.95403 22 204.95403 104.84654"/>
    </clipPath>
    <clipPath id="clippath-10">
      <polygon class="cls-1" points="405.23798 220.86456 122.10749 220.86456 122.10749 12 405.23798 22 405.23798 220.86456"/>
    </clipPath>
    <clipPath id="clippath-11">
      <polygon class="cls-1" points="405.23798 220.86456 122.10749 220.86456 122.10749 12 405.23798 22 405.23798 220.86456"/>
    </clipPath>
    <clipPath id="clippath-12">
      <polygon class="cls-1" points="405.23798 220.86456 122.10749 220.86456 122.10749 12 405.23798 22 405.23798 220.86456"/>
    </clipPath>
    <clipPath id="clippath-13">
      <polygon class="cls-1" points="405.23798 220.86456 122.10749 220.86456 122.10749 12 405.23798 22 405.23798 220.86456"/>
    </clipPath>
    <clipPath id="clippath-14">
      <polygon class="cls-1" points="405.23798 220.86456 122.10749 220.86456 122.10749 12 405.23798 22 405.23798 220.86456"/>
    </clipPath>
    <clipPath id="clippath-19">
      <polygon class="cls-1" points="204.95403 104.84654 122.10749 104.84654 122.10749 12 204.95403 22 204.95403 104.84654"/>
    </clipPath>
  </defs>
  <g>
    <circle class="cls-4" cx="333.15222" cy="301.92867" r="53.64695"/>
    <rect class="cls-4" x="302.18114" y="196.70535" width="60.52399" height="48.31841"/>
    <g>
      <g>
        <g>
          <g class="cls-6">
            <g>
              <g>
                <line class="cls-4" x1="109.87015" y1="53.36648" x2="365.68158" y2="184.38774"/>
                <polygon class="cls-4" points="112.4856 48.25977 373.73926 168.65576 357.62402 200.11963 107.25464 58.47314 112.4856 48.25977 112.4856 48.25977"/>
              </g>
              <g>
                <line class="cls-4" x1="109.87015" y1="53.36648" x2="365.68158" y2="184.38774"/>
                <polygon class="cls-4" points="112.4856 48.25977 373.73926 168.65576 357.62402 200.11963 107.25464 58.47314 112.4856 48.25977 112.4856 48.25977"/>
              </g>
              <g>
                <line class="cls-4" x1="109.87015" y1="53.36648" x2="365.68158" y2="184.38774"/>
                <polygon class="cls-4" points="112.4856 48.25977 373.73926 168.65576 357.62402 200.11963 107.25464 58.47314 112.4856 48.25977 112.4856 48.25977"/>
              </g>
            </g>
          </g>
          <g class="cls-9">
            <g>
              <g>
                <line class="cls-4" x1="109.87015" y1="53.36648" x2="365.68158" y2="184.38774"/>
                <polygon class="cls-4" points="112.4856 48.25977 373.73926 168.65576 357.62402 200.11963 107.25464 58.47314 112.4856 48.25977 112.4856 48.25977"/>
              </g>
              <g>
                <line class="cls-4" x1="109.87015" y1="53.36648" x2="365.68158" y2="184.38774"/>
                <polygon class="cls-4" points="112.4856 48.25977 373.73926 168.65576 357.62402 200.11963 107.25464 58.47314 112.4856 48.25977 112.4856 48.25977"/>
              </g>
              <g>
                <line class="cls-4" x1="109.87015" y1="53.36648" x2="365.68158" y2="184.38774"/>
                <polygon class="cls-4" points="112.4856 48.25977 373.73926 168.65576 357.62402 200.11963 107.25464 58.47314 112.4856 48.25977 112.4856 48.25977"/>
              </g>
            </g>
          </g>
          <g class="cls-12">
            <g>
              <g>
                <line class="cls-4" x1="109.87015" y1="53.36648" x2="365.68158" y2="184.38774"/>
                <polygon class="cls-4" points="112.4856 48.25977 373.73926 168.65576 357.62402 200.11963 107.25464 58.47314 112.4856 48.25977 112.4856 48.25977"/>
              </g>
              <g>
                <line class="cls-4" x1="109.87015" y1="53.36648" x2="365.68158" y2="184.38774"/>
                <polygon class="cls-4" points="112.4856 48.25977 373.73926 168.65576 357.62402 200.11963 107.25464 58.47314 112.4856 48.25977 112.4856 48.25977"/>
              </g>
              <g>
                <line class="cls-4" x1="109.87015" y1="53.36648" x2="365.68158" y2="184.38774"/>
                <polygon class="cls-4" points="112.4856 48.25977 373.73926 168.65576 357.62402 200.11963 107.25464 58.47314 112.4856 48.25977 112.4856 48.25977"/>
              </g>
            </g>
          </g>
        </g>
        <g>
          <g>
            <line class="cls-4" x1="197.08505" y1="98.03613" x2="365.68158" y2="184.38774"/>
            <polygon class="cls-4" points="203.17676 86.14209 374.65796 166.86182 356.70508 201.91357 190.99316 109.93018 203.17676 86.14209 203.17676 86.14209"/>
          </g>
          <g>
            <line class="cls-4" x1="197.08505" y1="98.03613" x2="365.68158" y2="184.38774"/>
            <polygon class="cls-4" points="203.17676 86.14209 374.65796 166.86182 356.70508 201.91357 190.99316 109.93018 203.17676 86.14209 203.17676 86.14209"/>
          </g>
          <g>
            <line class="cls-4" x1="197.08505" y1="98.03613" x2="365.68158" y2="184.38774"/>
            <polygon class="cls-4" points="203.17676 86.14209 374.65796 166.86182 356.70508 201.91357 190.99316 109.93018 203.17676 86.14209 203.17676 86.14209"/>
          </g>
        </g>
      </g>
      <g>
        <g>
          <g class="cls-11">
            <g>
              <g>
                <line class="cls-4" x1="109.87015" y1="53.36648" x2="365.68158" y2="184.38774"/>
                <polygon class="cls-4" points="112.4856 48.25977 373.73926 168.65576 357.62402 200.11963 107.25464 58.47314 112.4856 48.25977 112.4856 48.25977"/>
              </g>
              <g>
                <line class="cls-4" x1="109.87015" y1="53.36648" x2="365.68158" y2="184.38774"/>
                <polygon class="cls-4" points="112.4856 48.25977 373.73926 168.65576 357.62402 200.11963 107.25464 58.47314 112.4856 48.25977 112.4856 48.25977"/>
              </g>
              <g>
                <line class="cls-4" x1="109.87015" y1="53.36648" x2="365.68158" y2="184.38774"/>
                <polygon class="cls-4" points="112.4856 48.25977 373.73926 168.65576 357.62402 200.11963 107.25464 58.47314 112.4856 48.25977 112.4856 48.25977"/>
              </g>
            </g>
          </g>
          <g class="cls-10">
            <g>
              <g>
                <line class="cls-4" x1="109.87015" y1="53.36648" x2="365.68158" y2="184.38774"/>
                <polygon class="cls-4" points="112.4856 48.25977 373.73926 168.65576 357.62402 200.11963 107.25464 58.47314 112.4856 48.25977 112.4856 48.25977"/>
              </g>
              <g>
                <line class="cls-4" x1="109.87015" y1="53.36648" x2="365.68158" y2="184.38774"/>
                <polygon class="cls-4" points="112.4856 48.25977 373.73926 168.65576 357.62402 200.11963 107.25464 58.47314 112.4856 48.25977 112.4856 48.25977"/>
              </g>
              <g>
                <line class="cls-4" x1="109.87015" y1="53.36648" x2="365.68158" y2="184.38774"/>
                <polygon class="cls-4" points="112.4856 48.25977 373.73926 168.65576 357.62402 200.11963 107.25464 58.47314 112.4856 48.25977 112.4856 48.25977"/>
              </g>
            </g>
          </g>
          <g class="cls-16">
            <g>
              <g>
                <line class="cls-4" x1="109.87015" y1="53.36648" x2="365.68158" y2="184.38774"/>
                <polygon class="cls-4" points="112.4856 48.25977 373.73926 168.65576 357.62402 200.11963 107.25464 58.47314 112.4856 48.25977 112.4856 48.25977"/>
              </g>
              <g>
                <line class="cls-4" x1="109.87015" y1="53.36648" x2="365.68158" y2="184.38774"/>
                <polygon class="cls-4" points="112.4856 48.25977 373.73926 168.65576 357.62402 200.11963 107.25464 58.47314 112.4856 48.25977 112.4856 48.25977"/>
              </g>
              <g>
                <line class="cls-4" x1="109.87015" y1="53.36648" x2="365.68158" y2="184.38774"/>
                <polygon class="cls-4" points="112.4856 48.25977 373.73926 168.65576 357.62402 200.11963 107.25464 58.47314 112.4856 48.25977 112.4856 48.25977"/>
              </g>
            </g>
          </g>
        </g>
        <g>
          <g>
            <line class="cls-4" x1="197.08505" y1="98.03613" x2="365.68158" y2="184.38774"/>
            <polygon class="cls-4" points="203.17676 86.14209 374.65796 166.86182 356.70508 201.91357 190.99316 109.93018 203.17676 86.14209 203.17676 86.14209"/>
          </g>
          <g>
            <line class="cls-4" x1="197.08505" y1="98.03613" x2="365.68158" y2="184.38774"/>
            <polygon class="cls-4" points="203.17676 86.14209 374.65796 166.86182 356.70508 201.91357 190.99316 109.93018 203.17676 86.14209 203.17676 86.14209"/>
          </g>
          <g>
            <line class="cls-4" x1="197.08505" y1="98.03613" x2="365.68158" y2="184.38774"/>
            <polygon class="cls-4" points="203.17676 86.14209 374.65796 166.86182 356.70508 201.91357 190.99316 109.93018 203.17676 86.14209 203.17676 86.14209"/>
          </g>
        </g>
      </g>
      <g>
        <g>
          <g class="cls-15">
            <g>
              <g>
                <line class="cls-4" x1="109.87015" y1="53.36648" x2="365.68158" y2="184.38774"/>
                <polygon class="cls-4" points="112.4856 48.25977 373.73926 168.65576 357.62402 200.11963 107.25464 58.47314 112.4856 48.25977 112.4856 48.25977"/>
              </g>
              <g>
                <line class="cls-4" x1="109.87015" y1="53.36648" x2="365.68158" y2="184.38774"/>
                <polygon class="cls-4" points="112.4856 48.25977 373.73926 168.65576 357.62402 200.11963 107.25464 58.47314 112.4856 48.25977 112.4856 48.25977"/>
              </g>
              <g>
                <line class="cls-4" x1="109.87015" y1="53.36648" x2="365.68158" y2="184.38774"/>
                <polygon class="cls-4" points="112.4856 48.25977 373.73926 168.65576 357.62402 200.11963 107.25464 58.47314 112.4856 48.25977 112.4856 48.25977"/>
              </g>
            </g>
          </g>
          <g class="cls-13">
            <g>
              <g>
                <line class="cls-4" x1="109.87015" y1="53.36648" x2="365.68158" y2="184.38774"/>
                <polygon class="cls-4" points="112.4856 48.25977 373.73926 168.65576 357.62402 200.11963 107.25464 58.47314 112.4856 48.25977 112.4856 48.25977"/>
              </g>
              <g>
                <line class="cls-4" x1="109.87015" y1="53.36648" x2="365.68158" y2="184.38774"/>
                <polygon class="cls-4" points="112.4856 48.25977 373.73926 168.65576 357.62402 200.11963 107.25464 58.47314 112.4856 48.25977 112.4856 48.25977"/>
              </g>
              <g>
                <line class="cls-4" x1="109.87015" y1="53.36648" x2="365.68158" y2="184.38774"/>
                <polygon class="cls-4" points="112.4856 48.25977 373.73926 168.65576 357.62402 200.11963 107.25464 58.47314 112.4856 48.25977 112.4856 48.25977"/>
              </g>
            </g>
          </g>
          <g class="cls-14">
            <g>
              <g>
                <line class="cls-4" x1="109.87015" y1="53.36648" x2="365.68158" y2="184.38774"/>
                <polygon class="cls-4" points="112.4856 48.25977 373.73926 168.65576 357.62402 200.11963 107.25464 58.47314 112.4856 48.25977 112.4856 48.25977"/>
              </g>
              <g>
                <line class="cls-4" x1="109.87015" y1="53.36648" x2="365.68158" y2="184.38774"/>
                <polygon class="cls-4" points="112.4856 48.25977 373.73926 168.65576 357.62402 200.11963 107.25464 58.47314 112.4856 48.25977 112.4856 48.25977"/>
              </g>
              <g>
                <line class="cls-4" x1="109.87015" y1="53.36648" x2="365.68158" y2="184.38774"/>
                <polygon class="cls-4" points="112.4856 48.25977 373.73926 168.65576 357.62402 200.11963 107.25464 58.47314 112.4856 48.25977 112.4856 48.25977"/>
              </g>
            </g>
          </g>
        </g>
        <g>
          <g>
            <line class="cls-4" x1="197.08505" y1="98.03613" x2="365.68158" y2="184.38774"/>
            <polygon class="cls-4" points="203.17676 86.14209 374.65796 166.86182 356.70508 201.91357 190.99316 109.93018 203.17676 86.14209 203.17676 86.14209"/>
          </g>
          <g>
            <line class="cls-4" x1="197.08505" y1="98.03613" x2="365.68158" y2="184.38774"/>
            <polygon class="cls-4" points="203.17676 86.14209 374.65796 166.86182 356.70508 201.91357 190.99316 109.93018 203.17676 86.14209 203.17676 86.14209"/>
          </g>
          <g>
            <line class="cls-4" x1="197.08505" y1="98.03613" x2="365.68158" y2="184.38774"/>
            <polygon class="cls-4" points="203.17676 86.14209 374.65796 166.86182 356.70508 201.91357 190.99316 109.93018 203.17676 86.14209 203.17676 86.14209"/>
          </g>
        </g>
      </g>
    </g>
    <g>
      <g>
        <path class="cls-4" d="M303.22285,104.84654h-82.44678l-71.37307,102.64751h116.54934V121.85093h20.2644v64.6333l17.0061-7.60449V104.84654Zm-54.27661,93.74463h-72.6394l53.35986-76.74023h19.27954v76.74023Z"/>
        <path class="cls-4" d="M302.18114,104.84654h11.48775c4.63032,0,8.38392,3.75361,8.38392,8.38365,0,4.63032-3.75361,8.38392-8.38392,8.38392h-11.48775"/>
      </g>
      <g>
        <path class="cls-4" d="M303.22285,104.84654h-82.44678l-71.37307,102.64751h116.54934V121.85093h20.2644v64.6333l17.0061-7.60449V104.84654Zm-54.27661,93.74463h-72.6394l53.35986-76.74023h19.27954v76.74023Z"/>
        <path class="cls-4" d="M302.18114,104.84654h11.48775c4.63032,0,8.38392,3.75361,8.38392,8.38365,0,4.63032-3.75361,8.38392-8.38392,8.38392h-11.48775"/>
      </g>
      <g>
        <path class="cls-4" d="M303.22285,104.84654h-82.44678l-71.37307,102.64751h116.54934V121.85093h20.2644v64.6333l17.0061-7.60449V104.84654Zm-54.27661,93.74463h-72.6394l53.35986-76.74023h19.27954v76.74023Z"/>
        <path class="cls-4" d="M302.18114,104.84654h11.48775c4.63032,0,8.38392,3.75361,8.38392,8.38365,0,4.63032-3.75361,8.38392-8.38392,8.38392h-11.48775"/>
      </g>
    </g>
    <path class="cls-4" d="M385.80244,156.2025h-26.8833l-22.67725,22.67725h-33.01904V104.84654h-82.44678l-111.90576,160.94092h194.35254v-48.56445h96.75269v-46.84717c-5.53491-5.53516-8.63818-8.63818-14.1731-14.17334Zm-136.8562,42.38867h-72.6394l53.35986-76.74023h19.27954v76.74023Zm37.27051,0h-20.2644V121.85093h20.2644v76.74023Z"/>
    <circle class="cls-4" cx="118.87033" cy="301.92867" r="53.64695"/>
    <circle class="cls-4" cx="118.87033" cy="301.92867" r="20.47275"/>
    <circle class="cls-4" cx="333.1522" cy="301.92867" r="20.47275"/>
    <g>
      <g>
        <g>
          <path class="cls-4" d="M184.47309,281.45592c-8.71191-27.94629-34.78784-48.23291-65.60278-48.23291s-56.89087,20.28662-65.60278,48.23291"/>
          <path class="cls-4" d="M181.76685,282.29932c-13.11568-42.85856-65.97882-60.24285-101.91493-33.42578-11.23424,8.23486-19.76354,20.11621-23.87828,33.42578-.96134,3.09502-5.62952,2.28193-5.45381-.98399,.88473-16.25006,9.61517-31.70828,22.01016-42.38075,17.42226-15.25436,42.83298-20.61886,65.12605-14.5379,25.64018,6.62082,47.62642,29.45695,49.52314,56.21577,.69006,3.67874-4.07933,5.17868-5.41233,1.68687h0Z"/>
        </g>
        <g>
          <path class="cls-4" d="M267.54944,281.45592c8.71191-27.94629,34.78784-48.23291,65.60278-48.23291s56.89087,20.28662,65.60278,48.23291"/>
          <path class="cls-4" d="M264.84326,280.6123c1.90104-26.76146,23.88037-49.59238,49.52325-56.21566,22.29242-6.08041,47.70481-.71695,65.12588,14.5381,12.21892,10.51462,20.87269,25.69513,21.96886,41.67755,.69,3.67862-4.07937,5.17899-5.41252,1.68703-13.1158-42.85838-65.97872-60.24299-101.91484-33.4258-11.23424,8.23486-19.76378,20.11621-23.87828,33.42578-1.29066,3.46678-6.115,2.01449-5.41235-1.68701h0Z"/>
        </g>
      </g>
      <g>
        <g>
          <path class="cls-4" d="M184.47309,281.45592c-8.71191-27.94629-34.78784-48.23291-65.60278-48.23291s-56.89087,20.28662-65.60278,48.23291"/>
          <path class="cls-4" d="M181.76685,282.29932c-13.11568-42.85856-65.97882-60.24285-101.91493-33.42578-11.23424,8.23486-19.76354,20.11621-23.87828,33.42578-.96134,3.09502-5.62952,2.28193-5.45381-.98399,.88473-16.25006,9.61517-31.70828,22.01016-42.38075,17.42226-15.25436,42.83298-20.61886,65.12605-14.5379,25.64018,6.62082,47.62642,29.45695,49.52314,56.21577,.69006,3.67874-4.07933,5.17868-5.41233,1.68687h0Z"/>
        </g>
        <g>
          <path class="cls-4" d="M267.54944,281.45592c8.71191-27.94629,34.78784-48.23291,65.60278-48.23291s56.89087,20.28662,65.60278,48.23291"/>
          <path class="cls-4" d="M264.84326,280.6123c1.90104-26.76146,23.88037-49.59238,49.52325-56.21566,22.29242-6.08041,47.70481-.71695,65.12588,14.5381,12.21892,10.51462,20.87269,25.69513,21.96886,41.67755,.69,3.67862-4.07937,5.17899-5.41252,1.68703-13.1158-42.85838-65.97872-60.24299-101.91484-33.4258-11.23424,8.23486-19.76378,20.11621-23.87828,33.42578-1.29066,3.46678-6.115,2.01449-5.41235-1.68701h0Z"/>
        </g>
      </g>
      <g>
        <g>
          <path class="cls-4" d="M184.47309,281.45592c-8.71191-27.94629-34.78784-48.23291-65.60278-48.23291s-56.89087,20.28662-65.60278,48.23291"/>
          <path class="cls-4" d="M181.76685,282.29932c-13.11568-42.85856-65.97882-60.24285-101.91493-33.42578-11.23424,8.23486-19.76354,20.11621-23.87828,33.42578-.96134,3.09502-5.62952,2.28193-5.45381-.98399,.88473-16.25006,9.61517-31.70828,22.01016-42.38075,17.42226-15.25436,42.83298-20.61886,65.12605-14.5379,25.64018,6.62082,47.62642,29.45695,49.52314,56.21577,.69006,3.67874-4.07933,5.17868-5.41233,1.68687h0Z"/>
        </g>
        <g>
          <path class="cls-4" d="M267.54944,281.45592c8.71191-27.94629,34.78784-48.23291,65.60278-48.23291s56.89087,20.28662,65.60278,48.23291"/>
          <path class="cls-4" d="M264.84326,280.6123c1.90104-26.76146,23.88037-49.59238,49.52325-56.21566,22.29242-6.08041,47.70481-.71695,65.12588,14.5381,12.21892,10.51462,20.87269,25.69513,21.96886,41.67755,.69,3.67862-4.07937,5.17899-5.41252,1.68703-13.1158-42.85838-65.97872-60.24299-101.91484-33.4258-11.23424,8.23486-19.76378,20.11621-23.87828,33.42578-1.29066,3.46678-6.115,2.01449-5.41235-1.68701h0Z"/>
        </g>
      </g>
    </g>
    <path class="cls-4" d="M12,97.03246H108.83496V12s20.0708,0,20.0708,0c.00904,15.2051-.00652,96.80043,.00002,110.28466-.00001,0-116.90578-20.43812-116.90578-20.43812v-4.81409Z"/>
    <g class="cls-17">
      <g>
        <g>
          <line class="cls-4" x1="109.87015" y1="53.36648" x2="147.28063" y2="72.52734"/>
          <polygon class="cls-4" points="121.0376 31.5625 158.4646 50.69092 136.09668 94.36377 98.70264 75.17041 121.0376 31.5625 121.0376 31.5625"/>
        </g>
        <g>
          <line class="cls-4" x1="109.87015" y1="53.36648" x2="147.28063" y2="72.52734"/>
          <polygon class="cls-4" points="121.0376 31.5625 158.4646 50.69092 136.09668 94.36377 98.70264 75.17041 121.0376 31.5625 121.0376 31.5625"/>
        </g>
        <g>
          <line class="cls-4" x1="109.87015" y1="53.36648" x2="147.28063" y2="72.52734"/>
          <polygon class="cls-4" points="121.0376 31.5625 158.4646 50.69092 136.09668 94.36377 98.70264 75.17041 121.0376 31.5625 121.0376 31.5625"/>
        </g>
      </g>
    </g>
  </g>
  <g>
    <circle cx="333.15222" cy="301.92867" r="53.64695"/>
    <rect class="cls-8" x="302.18114" y="196.70535" width="60.52399" height="48.31841"/>
    <g>
      <g>
        <g>
          <g class="cls-21">
            <g>
              <g>
                <line class="cls-5" x1="109.87015" y1="53.36648" x2="365.68158" y2="184.38774"/>
                <polygon class="cls-5" points="112.4856 48.25977 373.73926 168.65576 357.62402 200.11963 107.25464 58.47314 112.4856 48.25977 112.4856 48.25977"/>
              </g>
              <g>
                <line class="cls-5" x1="109.87015" y1="53.36648" x2="365.68158" y2="184.38774"/>
                <polygon class="cls-5" points="112.4856 48.25977 373.73926 168.65576 357.62402 200.11963 107.25464 58.47314 112.4856 48.25977 112.4856 48.25977"/>
              </g>
              <g>
                <line class="cls-5" x1="109.87015" y1="53.36648" x2="365.68158" y2="184.38774"/>
                <polygon class="cls-5" points="112.4856 48.25977 373.73926 168.65576 357.62402 200.11963 107.25464 58.47314 112.4856 48.25977 112.4856 48.25977"/>
              </g>
            </g>
          </g>
          <g class="cls-23">
            <g>
              <g>
                <line class="cls-5" x1="109.87015" y1="53.36648" x2="365.68158" y2="184.38774"/>
                <polygon class="cls-5" points="112.4856 48.25977 373.73926 168.65576 357.62402 200.11963 107.25464 58.47314 112.4856 48.25977 112.4856 48.25977"/>
              </g>
              <g>
                <line class="cls-5" x1="109.87015" y1="53.36648" x2="365.68158" y2="184.38774"/>
                <polygon class="cls-5" points="112.4856 48.25977 373.73926 168.65576 357.62402 200.11963 107.25464 58.47314 112.4856 48.25977 112.4856 48.25977"/>
              </g>
              <g>
                <line class="cls-5" x1="109.87015" y1="53.36648" x2="365.68158" y2="184.38774"/>
                <polygon class="cls-5" points="112.4856 48.25977 373.73926 168.65576 357.62402 200.11963 107.25464 58.47314 112.4856 48.25977 112.4856 48.25977"/>
              </g>
            </g>
          </g>
          <g class="cls-20">
            <g>
              <g>
                <line class="cls-5" x1="109.87015" y1="53.36648" x2="365.68158" y2="184.38774"/>
                <polygon class="cls-5" points="112.4856 48.25977 373.73926 168.65576 357.62402 200.11963 107.25464 58.47314 112.4856 48.25977 112.4856 48.25977"/>
              </g>
              <g>
                <line class="cls-5" x1="109.87015" y1="53.36648" x2="365.68158" y2="184.38774"/>
                <polygon class="cls-5" points="112.4856 48.25977 373.73926 168.65576 357.62402 200.11963 107.25464 58.47314 112.4856 48.25977 112.4856 48.25977"/>
              </g>
              <g>
                <line class="cls-5" x1="109.87015" y1="53.36648" x2="365.68158" y2="184.38774"/>
                <polygon class="cls-5" points="112.4856 48.25977 373.73926 168.65576 357.62402 200.11963 107.25464 58.47314 112.4856 48.25977 112.4856 48.25977"/>
              </g>
            </g>
          </g>
        </g>
        <g>
          <g>
            <line class="cls-5" x1="197.08505" y1="98.03613" x2="365.68158" y2="184.38774"/>
            <polygon class="cls-5" points="203.17676 86.14209 374.65796 166.86182 356.70508 201.91357 190.99316 109.93018 203.17676 86.14209 203.17676 86.14209"/>
          </g>
          <g>
            <line class="cls-5" x1="197.08505" y1="98.03613" x2="365.68158" y2="184.38774"/>
            <polygon class="cls-5" points="203.17676 86.14209 374.65796 166.86182 356.70508 201.91357 190.99316 109.93018 203.17676 86.14209 203.17676 86.14209"/>
          </g>
          <g>
            <line class="cls-5" x1="197.08505" y1="98.03613" x2="365.68158" y2="184.38774"/>
            <polygon class="cls-5" points="203.17676 86.14209 374.65796 166.86182 356.70508 201.91357 190.99316 109.93018 203.17676 86.14209 203.17676 86.14209"/>
          </g>
        </g>
      </g>
      <g>
        <g>
          <g class="cls-19">
            <g>
              <g>
                <line class="cls-4" x1="109.87015" y1="53.36648" x2="365.68158" y2="184.38774"/>
                <polygon class="cls-4" points="112.4856 48.25977 373.73926 168.65576 357.62402 200.11963 107.25464 58.47314 112.4856 48.25977 112.4856 48.25977"/>
              </g>
              <g>
                <line class="cls-4" x1="109.87015" y1="53.36648" x2="365.68158" y2="184.38774"/>
                <polygon class="cls-4" points="112.4856 48.25977 373.73926 168.65576 357.62402 200.11963 107.25464 58.47314 112.4856 48.25977 112.4856 48.25977"/>
              </g>
              <g>
                <line class="cls-4" x1="109.87015" y1="53.36648" x2="365.68158" y2="184.38774"/>
                <polygon class="cls-4" points="112.4856 48.25977 373.73926 168.65576 357.62402 200.11963 107.25464 58.47314 112.4856 48.25977 112.4856 48.25977"/>
              </g>
            </g>
          </g>
          <g class="cls-18">
            <g>
              <g>
                <line class="cls-3" x1="109.87015" y1="53.36648" x2="365.68158" y2="184.38774"/>
                <polygon class="cls-3" points="112.4856 48.25977 373.73926 168.65576 357.62402 200.11963 107.25464 58.47314 112.4856 48.25977 112.4856 48.25977"/>
              </g>
              <polygon class="cls-7" points="112.4856 48.25977 373.73926 168.65576 357.62402 200.11963 107.25464 58.47314 112.4856 48.25977 112.4856 48.25977"/>
            </g>
          </g>
        </g>
        <g>
          <g>
            <line class="cls-3" x1="197.08505" y1="98.03613" x2="365.68158" y2="184.38774"/>
            <polygon class="cls-3" points="203.17676 86.14209 374.65796 166.86182 356.70508 201.91357 190.99316 109.93018 203.17676 86.14209 203.17676 86.14209"/>
          </g>
          <polygon class="cls-7" points="203.17676 86.14209 374.65796 166.86182 356.70508 201.91357 190.99316 109.93018 203.17676 86.14209 203.17676 86.14209"/>
        </g>
      </g>
    </g>
    <g>
      <g>
        <path class="cls-4" d="M303.22285,104.84654h-82.44678l-71.37307,102.64751h116.54934V121.85093h20.2644v64.6333l17.0061-7.60449V104.84654Zm-54.27661,93.74463h-72.6394l53.35986-76.74023h19.27954v76.74023Z"/>
        <path class="cls-4" d="M302.18114,104.84654h11.48775c4.63032,0,8.38392,3.75361,8.38392,8.38365,0,4.63032-3.75361,8.38392-8.38392,8.38392h-11.48775"/>
      </g>
      <g>
        <path class="cls-8" d="M303.22285,104.84654h-82.44678l-71.37307,102.64751h116.54934V121.85093h20.2644v64.6333l17.0061-7.60449V104.84654Zm-54.27661,93.74463h-72.6394l53.35986-76.74023h19.27954v76.74023Z"/>
        <path d="M302.18114,104.84654h11.48775c4.63032,0,8.38392,3.75361,8.38392,8.38365,0,4.63032-3.75361,8.38392-8.38392,8.38392h-11.48775"/>
      </g>
    </g>
    <path class="cls-8" d="M385.80244,156.2025h-26.8833l-22.67725,22.67725h-33.01904V104.84654h-82.44678l-111.90576,160.94092h194.35254v-48.56445h96.75269v-46.84717c-5.53491-5.53516-8.63818-8.63818-14.1731-14.17334Zm-136.8562,42.38867h-72.6394l53.35986-76.74023h19.27954v76.74023Zm37.27051,0h-20.2644V121.85093h20.2644v76.74023Z"/>
    <circle cx="118.87033" cy="301.92867" r="53.64695"/>
    <circle class="cls-2" cx="118.87033" cy="301.92867" r="20.47275"/>
    <circle class="cls-2" cx="333.1522" cy="301.92867" r="20.47275"/>
    <g>
      <g>
        <g>
          <path class="cls-4" d="M184.47309,281.45592c-8.71191-27.94629-34.78784-48.23291-65.60278-48.23291s-56.89087,20.28662-65.60278,48.23291"/>
          <path class="cls-4" d="M181.76685,282.29932c-13.11568-42.85856-65.97882-60.24285-101.91493-33.42578-11.23424,8.23486-19.76354,20.11621-23.87828,33.42578-.96134,3.09502-5.62952,2.28193-5.45381-.98399,.88473-16.25006,9.61517-31.70828,22.01016-42.38075,17.42226-15.25436,42.83298-20.61886,65.12605-14.5379,25.64018,6.62082,47.62642,29.45695,49.52314,56.21577,.69006,3.67874-4.07933,5.17868-5.41233,1.68687h0Z"/>
        </g>
        <g>
          <path class="cls-4" d="M267.54944,281.45592c8.71191-27.94629,34.78784-48.23291,65.60278-48.23291s56.89087,20.28662,65.60278,48.23291"/>
          <path class="cls-4" d="M264.84326,280.6123c1.90104-26.76146,23.88037-49.59238,49.52325-56.21566,22.29242-6.08041,47.70481-.71695,65.12588,14.5381,12.21892,10.51462,20.87269,25.69513,21.96886,41.67755,.69,3.67862-4.07937,5.17899-5.41252,1.68703-13.1158-42.85838-65.97872-60.24299-101.91484-33.4258-11.23424,8.23486-19.76378,20.11621-23.87828,33.42578-1.29066,3.46678-6.115,2.01449-5.41235-1.68701h0Z"/>
        </g>
      </g>
      <g>
        <path d="M181.76685,282.29932c-13.11568-42.85856-65.97882-60.24285-101.91493-33.42578-11.23424,8.23486-19.76354,20.11621-23.87828,33.42578-.96134,3.09502-5.62952,2.28193-5.45381-.98399,.88473-16.25006,9.61517-31.70828,22.01016-42.38075,17.42226-15.25436,42.83298-20.61886,65.12605-14.5379,25.64018,6.62082,47.62642,29.45695,49.52314,56.21577,.69006,3.67874-4.07933,5.17868-5.41233,1.68687h0Z"/>
        <path d="M264.84326,280.6123c1.90104-26.76146,23.88037-49.59238,49.52325-56.21566,22.29242-6.08041,47.70481-.71695,65.12588,14.5381,12.21892,10.51462,20.87269,25.69513,21.96886,41.67755,.69,3.67862-4.07937,5.17899-5.41252,1.68703-13.1158-42.85838-65.97872-60.24299-101.91484-33.4258-11.23424,8.23486-19.76378,20.11621-23.87828,33.42578-1.29066,3.46678-6.115,2.01449-5.41235-1.68701h0Z"/>
      </g>
    </g>
    <path class="cls-8" d="M12,97.03246H108.83496V12s20.0708,0,20.0708,0c.00904,15.2051-.00652,96.80043,.00002,110.28466-.00001,0-116.90578-20.43812-116.90578-20.43812v-4.81409Z"/>
    <g class="cls-22">
      <polygon points="121.0376 31.5625 158.4646 50.69092 136.09668 94.36377 98.70264 75.17041 121.0376 31.5625 121.0376 31.5625"/>
    </g>
  </g>
</svg>