<?xml version="1.0" encoding="UTF-8" standalone="no"?>
<!DOCTYPE svg PUBLIC "-//W3C//DTD SVG 1.1//EN" "http://www.w3.org/Graphics/SVG/1.1/DTD/svg11.dtd">
<svg width="100%" height="100%" viewBox="0 0 30 67" version="1.1" xmlns="http://www.w3.org/2000/svg" xmlns:xlink="http://www.w3.org/1999/xlink" xml:space="preserve" xmlns:serif="http://www.serif.com/" style="fill-rule:evenodd;clip-rule:evenodd;stroke-linejoin:round;stroke-miterlimit:2;">
    <g transform="matrix(0.215461,0,0,0.215461,0,0)">
        <g>
            <path d="M69.617,211.204C58.134,211.204 47.611,208.482 39.188,203.33C30.78,198.189 24.758,190.768 22.231,182.435C20.199,175.733 21.438,168.864 25.718,163.094C34.693,150.993 54.976,146.7 69.617,146.7C84.259,146.7 104.543,150.993 113.518,163.094C117.798,168.864 119.037,175.733 117.005,182.434C114.478,190.768 108.456,198.189 100.048,203.33C91.624,208.482 81.101,211.204 69.617,211.204L69.617,211.204ZM45.654,176.68C48.789,183.595 59.807,187.204 69.617,187.204C79.426,187.204 90.446,183.595 93.582,176.68C90.786,174.263 81.622,170.7 69.617,170.7C57.611,170.7 48.449,174.263 45.654,176.68Z" style="fill:white;fill-rule:nonzero;"/>
            <path d="M69.618,307.464C39.703,307.464 13.461,291.735 13.461,273.803C13.461,272.413 13.702,271.034 14.174,269.727L25.542,238.25C26.741,234.928 29.344,232.304 32.655,231.075C35.967,229.846 39.651,230.14 42.728,231.876C50.319,236.162 59.366,238.335 69.618,238.335C79.872,238.335 88.918,236.161 96.507,231.875C99.584,230.138 103.268,229.846 106.58,231.071C109.892,232.3 112.495,234.925 113.695,238.247L125.065,269.727C125.537,271.033 125.778,272.413 125.778,273.803C125.778,291.735 99.535,307.464 69.618,307.464L69.618,307.464ZM38.306,273.564C42.065,277.228 53.571,283.464 69.618,283.464C85.667,283.464 97.175,277.228 100.933,273.564L95.463,258.417C87.491,261.022 78.845,262.335 69.618,262.335C60.393,262.335 51.747,261.022 43.775,258.418L38.306,273.564L38.306,273.564Z" style="fill:white;fill-rule:nonzero;"/>
            <path d="M69.617,219.072C18.289,219.072 0,191.946 0,166.561C0,158.194 3.326,145.712 20.606,137.386C7.348,126.523 0.001,110.383 0.001,90.574C0.001,34.706 26.676,0 69.617,0C112.558,0 139.236,34.706 139.236,90.574C139.236,110.384 131.889,126.524 118.63,137.387C135.907,145.712 139.236,158.194 139.236,166.561C139.236,191.946 120.947,219.072 69.617,219.072L69.617,219.072ZM45.654,176.68C48.789,183.595 59.807,187.204 69.617,187.204C79.426,187.204 90.446,183.595 93.582,176.68C90.786,174.263 81.622,170.7 69.617,170.7C57.611,170.7 48.449,174.263 45.654,176.68ZM26.89,161.63C25.385,162.866 24.434,164.183 24.117,165.547C24.592,164.711 25.126,163.892 25.718,163.094C26.089,162.593 26.481,162.105 26.89,161.63L26.89,161.63ZM112.346,161.631C112.755,162.106 113.147,162.593 113.518,163.094C114.11,163.892 114.644,164.711 115.119,165.547C114.802,164.183 113.851,162.866 112.346,161.631L112.346,161.631ZM69.617,24C55.902,24 24.001,30.487 24.001,90.574C24.001,111.869 35.497,124.419 58.168,127.874C64.029,128.768 68.36,133.808 68.36,139.737L68.36,141.215C68.36,143.203 67.875,145.086 67.012,146.744C68.783,146.686 70.45,146.686 72.222,146.744C71.359,145.086 70.874,143.203 70.874,141.215L70.874,139.737C70.874,133.808 75.204,128.768 81.066,127.874C103.74,124.42 115.236,111.87 115.236,90.574C115.236,30.487 83.334,24 69.617,24Z" style="fill:white;fill-rule:nonzero;"/>
            <path d="M69.618,252.216C38.66,252.216 15.981,235.44 5.759,204.977C4.03,199.825 5.979,194.155 10.509,191.154C15.039,188.154 21.021,188.573 25.089,192.174C26.042,193.017 27.08,193.841 28.176,194.623C32.933,198.021 38.81,200.645 45.644,202.423C52.695,204.26 60.76,205.191 69.616,205.191C78.473,205.191 86.539,204.26 93.588,202.424C93.589,202.423 93.59,202.423 93.591,202.423C100.423,200.646 106.301,198.021 111.062,194.623C112.157,193.84 113.197,193.016 114.148,192.173C118.216,188.569 124.199,188.152 128.729,191.152C133.26,194.152 135.21,199.822 133.481,204.974C123.258,235.439 100.578,252.216 69.618,252.216Z" style="fill:white;fill-rule:nonzero;"/>
        </g>
        <g>
            <path d="M69.617,158.7C49.79,158.7 30.086,166.986 33.714,178.953C36.96,189.657 49.79,199.205 69.617,199.205C89.446,199.205 102.275,189.657 105.521,178.953C109.149,166.986 89.446,158.7 69.617,158.7Z" style="fill:white;fill-rule:nonzero;"/>
            <path d="M69.618,250.335C57.179,250.335 46.171,247.601 36.828,242.326L25.461,273.803C25.461,282.972 45.23,295.464 69.618,295.464C94.009,295.464 113.778,282.972 113.778,273.803L102.409,242.323C93.066,247.601 82.058,250.335 69.618,250.335Z" style="fill:white;fill-rule:nonzero;"/>
            <path d="M82.874,141.215L82.874,139.737C106.647,136.116 127.236,121.978 127.236,90.574C127.236,42.286 106.226,12 69.617,12C33.012,12 12.001,42.286 12.001,90.574C12.001,121.977 32.589,136.115 56.36,139.737L56.36,141.215C32.588,143.083 12,150.371 12,166.561C12,191.458 33.011,207.072 69.617,207.072C106.225,207.072 127.236,191.458 127.236,166.561C127.236,150.371 106.646,143.083 82.874,141.215L82.874,141.215ZM105.521,178.953C102.275,189.657 89.446,199.205 69.617,199.205C49.79,199.205 36.96,189.657 33.714,178.953C30.086,166.986 49.79,158.7 69.617,158.7C89.446,158.7 109.149,166.986 105.521,178.953Z" style="fill:white;fill-rule:nonzero;"/>
            <path d="M96.613,214.036C88.57,216.131 79.488,217.191 69.616,217.191C59.747,217.191 50.664,216.131 42.622,214.036C34.366,211.888 27.159,208.643 21.203,204.39C19.771,203.368 18.415,202.292 17.135,201.159C23.553,220.285 37.863,240.216 69.618,240.216C101.376,240.216 115.686,220.283 122.104,201.157C120.824,202.29 119.465,203.368 118.034,204.39C112.076,208.643 104.871,211.888 96.613,214.036Z" style="fill:white;fill-rule:nonzero;"/>
        </g>
    </g>
    <g transform="matrix(0.215461,0,0,0.215461,0,0)">
        <g>
            <path d="M69.618,250.335C57.179,250.335 46.171,247.601 36.828,242.326L25.461,273.803C25.461,282.972 45.23,295.464 69.618,295.464C94.009,295.464 113.778,282.972 113.778,273.803L102.409,242.323C93.066,247.601 82.058,250.335 69.618,250.335Z" style="fill:rgb(0,93,150);fill-rule:nonzero;"/>
            <path d="M82.874,141.215L82.874,139.737C106.647,136.116 127.236,121.978 127.236,90.574C127.236,42.286 106.226,12 69.617,12C33.012,12 12.001,42.286 12.001,90.574C12.001,121.977 32.589,136.115 56.36,139.737L56.36,141.215C32.588,143.083 12,150.371 12,166.561C12,191.458 33.011,207.072 69.617,207.072C106.225,207.072 127.236,191.458 127.236,166.561C127.236,150.371 106.646,143.083 82.874,141.215L82.874,141.215ZM105.521,178.953C102.275,189.657 89.446,199.205 69.617,199.205C49.79,199.205 36.96,189.657 33.714,178.953C30.086,166.986 49.79,158.7 69.617,158.7C89.446,158.7 109.149,166.986 105.521,178.953Z" style="fill:rgb(0,93,150);fill-rule:nonzero;"/>
            <path d="M96.613,214.036C88.57,216.131 79.488,217.191 69.616,217.191C59.747,217.191 50.664,216.131 42.622,214.036C34.366,211.888 27.159,208.643 21.203,204.39C19.771,203.368 18.415,202.292 17.135,201.159C23.553,220.285 37.863,240.216 69.618,240.216C101.376,240.216 115.686,220.283 122.104,201.157C120.824,202.29 119.465,203.368 118.034,204.39C112.076,208.643 104.871,211.888 96.613,214.036Z" style="fill:rgb(0,93,150);fill-rule:nonzero;"/>
        </g>
    </g>
</svg>
