<?xml version="1.0" encoding="UTF-8"?>
<svg id="Layer_1" data-name="Layer 1" xmlns="http://www.w3.org/2000/svg" viewBox="0 0 139.23633 307.46436">
  <defs>
    <style>
      .cls-1 {
        fill: #fff;
      }
    </style>
  </defs>
  <g>
    <path class="cls-1" d="M69.61676,211.20425c-11.48291,0-22.00537-2.72266-30.4292-7.87402-8.40771-5.1416-14.42969-12.5625-16.95654-20.89551-2.03223-6.70215-.79346-13.57031,3.48682-19.34082,8.97559-12.10059,29.25781-16.39355,43.89893-16.39355,14.64258,0,34.92578,4.29297,43.90137,16.39355,4.28027,5.77051,5.51904,12.63867,3.4873,19.33984-2.52734,8.33398-8.5498,15.75488-16.95752,20.89648-8.42432,5.15137-18.94727,7.87402-30.43115,7.87402Zm-23.9624-34.52441c3.13477,6.91504,14.15283,10.52441,23.9624,10.52441s20.8291-3.60938,23.96484-10.52441c-2.7959-2.41699-11.95947-5.97949-23.96484-5.97949s-21.16748,3.5625-23.9624,5.97949Zm48.60547,.7373h0Z"/>
    <path class="cls-1" d="M69.61822,307.46401c-29.91553,0-56.15723-15.72949-56.15723-33.66113,0-1.38965,.24121-2.76855,.71338-4.07617l11.36719-31.47656c1.19971-3.32227,3.80225-5.94629,7.11377-7.1748,3.31201-1.22949,6.99609-.93555,10.07227,.80078,7.59131,4.28613,16.63867,6.45898,26.89062,6.45898,10.25342,0,19.2998-2.17383,26.88867-6.45996,3.07666-1.7373,6.76074-2.0293,10.07324-.80371,3.31201,1.22852,5.91504,3.85352,7.11523,7.17578l11.36963,31.47949c.47217,1.30664,.71338,2.68652,.71338,4.07617,0,17.93164-26.24316,33.66113-56.16016,33.66113Zm-31.31201-33.90039c3.7583,3.66406,15.26514,9.90039,31.31201,9.90039,16.04834,0,27.55664-6.23633,31.31494-9.90039l-5.47021-15.14648c-7.97168,2.60449-16.61768,3.91797-25.84473,3.91797-9.22559,0-17.87109-1.31348-25.84277-3.91699l-5.46924,15.14551Zm-1.14453-1.4209h0Zm64.9165,0h0Z"/>
    <path class="cls-1" d="M69.61676,219.07241C18.28863,219.07241,.00006,191.94644,.00006,166.56069,.00006,158.19351,3.32574,145.71206,20.60601,137.38589,7.3482,126.52261,.00103,110.38296,.00103,90.57436,.00103,34.7062,26.67633,.00015,69.61724,.00015s69.61914,34.70605,69.61914,90.57422c0,19.80957-7.34717,35.94922-20.60596,46.8125,17.27686,8.3252,20.60547,20.80762,20.60547,29.17383,0,25.38574-18.28906,52.51172-69.61914,52.51172Zm-23.9624-42.39258c3.13477,6.91504,14.15283,10.52441,23.9624,10.52441s20.8291-3.60938,23.96484-10.52441c-2.7959-2.41699-11.95947-5.97949-23.96484-5.97949s-21.16748,3.5625-23.9624,5.97949Zm59.86719,2.27246h0Zm-78.63184-17.32227c-1.50439,1.23633-2.45557,2.55273-2.77246,3.91699,.4751-.83594,1.00879-1.65527,1.60059-2.45312,.37158-.50098,.76318-.98926,1.17188-1.46387Zm85.45654,.00098c.40918,.47461,.80078,.96191,1.17188,1.46289,.5918,.79785,1.12549,1.61719,1.60059,2.45312-.31689-1.36426-1.26758-2.68066-2.77246-3.91602ZM69.61724,24.00015c-13.71533,0-45.61621,6.4873-45.61621,66.57422,0,21.29492,11.49561,33.84473,34.16699,37.2998,5.86133,.89355,10.19189,5.93359,10.19189,11.86328v1.47754c0,1.98828-.48535,3.87109-1.34814,5.5293,1.77148-.05859,3.43848-.05859,5.20996,0-.86279-1.6582-1.34814-3.54102-1.34814-5.5293v-1.47754c0-5.92969,4.33057-10.96973,10.19238-11.86328,22.67383-3.4541,34.17041-16.00391,34.17041-37.2998,0-60.08691-31.90283-66.57422-45.61914-66.57422Z"/>
    <path class="cls-1" d="M69.61822,252.21597c-30.9585,0-53.63721-16.77637-63.85938-47.23926-1.72852-5.15137,.21973-10.82129,4.75-13.82227,4.53027-3,10.51172-2.58105,14.58008,1.01953,.95264,.84277,1.99121,1.66699,3.08691,2.44922,4.75732,3.39746,10.63379,6.02148,17.46826,7.7998,7.05127,1.83691,15.11572,2.76758,23.97168,2.76758,8.85742,0,16.92334-.93066,23.97266-2.7666,.00098-.00098,.00195-.00098,.00293-.00098,6.83203-1.77734,12.70996-4.40234,17.4707-7.7998,1.09521-.7832,2.13477-1.60742,3.08643-2.4502,4.06787-3.60352,10.05029-4.02148,14.58057-1.02148,4.53125,3,6.48047,8.6709,4.75146,13.82227-10.22266,30.46484-32.90283,47.24219-63.8623,47.24219Z"/>
  </g>
  <g>
    <path class="cls-1" d="M69.6167,158.7002c-19.82715,0-39.53027,8.28564-35.90234,20.25244,3.24609,10.7041,16.0752,20.25195,35.90234,20.25195,19.82959,0,32.65869-9.54785,35.90479-20.25195,3.62793-11.9668-16.0752-20.25244-35.90479-20.25244Z"/>
    <path class="cls-1" d="M69.61816,250.33545c-12.43945,0-23.44727-2.73438-32.79004-8.00928l-11.36719,31.47705c0,9.16846,19.76904,21.66113,44.15723,21.66113,24.39111,0,44.16016-12.49268,44.16016-21.66113l-11.36963-31.47998c-9.34277,5.27783-20.35059,8.01221-32.79053,8.01221Z"/>
    <path class="cls-1" d="M82.87354,141.21533v-1.47803c23.77344-3.62158,44.36279-17.75928,44.36279-49.16309,0-48.28857-21.01074-78.57422-57.61914-78.57422-36.60547,0-57.61621,30.28564-57.61621,78.57422,0,31.40283,20.58789,45.54053,44.35889,49.16309v1.47803c-23.77148,1.86719-44.35986,9.15527-44.35986,25.3457,0,24.89697,21.01123,40.51123,57.6167,40.51123,36.60791,0,57.61914-15.61426,57.61914-40.51123,0-16.19043-20.58936-23.47852-44.3623-25.3457Zm22.64795,37.7373c-3.24609,10.7041-16.0752,20.25195-35.90479,20.25195-19.82715,0-32.65625-9.54785-35.90234-20.25195-3.62793-11.9668,16.0752-20.25244,35.90234-20.25244,19.82959,0,39.53271,8.28564,35.90479,20.25244Z"/>
    <path class="cls-1" d="M96.61279,214.03613c-8.04297,2.09521-17.125,3.15479-26.99707,3.15479-9.86914,0-18.95166-1.05957-26.99414-3.15479-8.25537-2.14795-15.46289-5.39355-21.41846-9.64648-1.43213-1.02197-2.78809-2.09717-4.06787-3.23047,6.41797,19.12598,20.72754,39.05664,52.48291,39.05664,31.7583,0,46.06787-19.93311,52.48584-39.05908-1.28027,1.1333-2.63867,2.21094-4.07031,3.23291-5.95801,4.25293-13.16309,7.49854-21.4209,9.64648Z"/>
  </g>
  <g>
    <path d="M69.61816,250.33545c-12.43945,0-23.44727-2.73438-32.79004-8.00928l-11.36719,31.47705c0,9.16846,19.76904,21.66113,44.15723,21.66113,24.39111,0,44.16016-12.49268,44.16016-21.66113l-11.36963-31.47998c-9.34277,5.27783-20.35059,8.01221-32.79053,8.01221Z"/>
    <path d="M82.87354,141.21533v-1.47803c23.77344-3.62158,44.36279-17.75928,44.36279-49.16309,0-48.28857-21.01074-78.57422-57.61914-78.57422-36.60547,0-57.61621,30.28564-57.61621,78.57422,0,31.40283,20.58789,45.54053,44.35889,49.16309v1.47803c-23.77148,1.86719-44.35986,9.15527-44.35986,25.3457,0,24.89697,21.01123,40.51123,57.6167,40.51123,36.60791,0,57.61914-15.61426,57.61914-40.51123,0-16.19043-20.58936-23.47852-44.3623-25.3457Zm22.64795,37.7373c-3.24609,10.7041-16.0752,20.25195-35.90479,20.25195-19.82715,0-32.65625-9.54785-35.90234-20.25195-3.62793-11.9668,16.0752-20.25244,35.90234-20.25244,19.82959,0,39.53271,8.28564,35.90479,20.25244Z"/>
    <path d="M96.61279,214.03613c-8.04297,2.09521-17.125,3.15479-26.99707,3.15479-9.86914,0-18.95166-1.05957-26.99414-3.15479-8.25537-2.14795-15.46289-5.39355-21.41846-9.64648-1.43213-1.02197-2.78809-2.09717-4.06787-3.23047,6.41797,19.12598,20.72754,39.05664,52.48291,39.05664,31.7583,0,46.06787-19.93311,52.48584-39.05908-1.28027,1.1333-2.63867,2.21094-4.07031,3.23291-5.95801,4.25293-13.16309,7.49854-21.4209,9.64648Z"/>
  </g>
</svg>