<?xml version="1.0" encoding="utf-8"?>
<!-- Generator: Adobe Illustrator 27.0.1, SVG Export Plug-In . SVG Version: 6.00 Build 0)  -->
<svg version="1.1" id="Layer_1" xmlns="http://www.w3.org/2000/svg" xmlns:xlink="http://www.w3.org/1999/xlink" x="0px" y="0px"
 viewBox="0 0 1024 1024" style="enable-background:new 0 0 1024 1024;" xml:space="preserve">
<path d="M232.3,629.3c2.5,0.8,5.1,1.2,7.9,1.2c6.3,0,12-2.2,16.5-5.8c2.5,0.8,5.3,1.3,8.1,1.3c12.1,0,22.3-8.3,25.2-19.6
c4.2,6.5,11.6,10.7,19.9,10.7c3.4,0,6.7-0.7,9.6-2c3.4,1.6,7.2,2.5,11.2,2.5c7.4,0,14-3.1,18.8-8c3.5,1.2,7.3,1.9,11.2,1.9
c19.1,0,34.5-15.5,34.5-34.5c0-8-2.8-15.4-7.4-21.3c0.1-0.9,0.1-1.7,0.1-2.6c0-5-1.5-9.6-4-13.4c2.5-1.9,4.3-4.7,4.9-8
c3,1,6.1,1.5,9.4,1.5c16.9,0,30.6-13.7,30.6-30.6c0-13.1-8.3-24.3-19.9-28.6c0.1-0.8,0.1-1.6,0.1-2.4c0-10.9-5.9-20.4-14.7-25.5
c-0.7-10.9-9.8-19.6-21-19.6c-4.7,0-9,1.5-12.5,4.1c-0.2,0-0.4-0.1-0.6-0.1c3.3-4,5.3-9.2,5.3-14.8c0-9.2-5.4-17.2-13.1-21
c-2.1-1.6-4.6-2.9-7.2-3.7c0.6-2.6,0.9-5.3,0.9-8.1c0-20.7-16.8-37.5-37.5-37.5c-7.7,0-14.8,2.3-20.8,6.3
c-5.7-10.1-16.5-16.9-28.9-16.9c-16,0-29.3,11.3-32.5,26.3c-7.7-6.3-17.6-10-28.3-10c-24.8,0-44.9,20.1-44.9,44.9
c0,9.6,3,18.5,8.1,25.8c-6.2,2.2-10.7,8.1-10.7,15.1c0,0.3,0,0.6,0,1c-1.9-0.2-3.7-0.4-5.7-0.4c-23.9,0-43.2,19.4-43.2,43.2
c0,14.7,7.3,27.7,18.6,35.5c-0.7,2.5-1,5.1-1,7.8c0,16.4,13.3,29.7,29.7,29.7c0.3,0,0.7,0,1,0c0.5,2.6,1.9,4.9,3.8,6.6
c-13,4.1-22.5,16.3-22.5,30.7c0,17.8,14.4,32.2,32.2,32.2c11,0,20.7-5.5,26.5-14c0.1,0.8,0.3,1.6,0.6,2.4c-0.3,1.5-0.5,3.1-0.5,4.6
c0,12.8,10.3,23.1,23.1,23.1C221.2,639.2,228.1,635.3,232.3,629.3z M180.4,455.7c-0.3-0.5-0.7-0.9-1-1.4c0.4,0.3,0.9,0.5,1.3,0.7
C180.6,455.3,180.5,455.5,180.4,455.7z"/>
<path d="M440,231.5c2.7,8.8,10.2,15.5,19.5,16.8c-4,3.9-6.5,9.3-6.5,15.3c0,11.5,9,20.8,20.3,21.4c0.7,2.5,1.7,4.8,3,6.9
c-0.1,1-0.1,1.9-0.1,2.9c0,21.9,17.8,39.6,39.6,39.6c12.8,0,24.1-6,31.3-15.4c3.7,3.9,9,6.3,14.8,6.3c5.3,0,10.1-2,13.8-5.3
c0.6,0,1.3,0.1,2,0.1c15,0,27.2-12.2,27.2-27.2c0-0.2,0-0.3,0-0.5c1.4-1.8,2.5-4,3.1-6.4c1.9,0.6,3.9,1.1,5.9,1.3
c4.8,3.2,10.6,5.1,16.9,5.1c16.9,0,30.7-13.7,30.7-30.7c0-6.8-2.2-13.1-6-18.2c3.9-3.4,6.6-8.2,7.1-13.6c3-3.5,4.8-8,4.8-13
c0-2.6-0.5-5.1-1.4-7.4c2.3-3.5,3.7-7.7,3.7-12.2c0-1.6-0.2-3.2-0.5-4.7c12.1-7.6,20.1-21.1,20.1-36.4c0-23.8-19.3-43.1-43.1-43.1
c-11.9,0-22.7,4.8-30.5,12.7c-1.8-0.6-3.6-0.9-5.6-0.9c-1.4,0-2.8,0.2-4.1,0.5c-2.7-1.7-5.8-2.7-9.2-2.7c0,0-0.1,0-0.1,0
c-1.2-5.2-5.8-9-11.3-9c-0.2,0-0.3,0-0.5,0c0.2-1.4,0.4-2.8,0.4-4.2c0-12.7-10.3-23-23-23c-4.6,0-8.9,1.4-12.5,3.7
c-8.7,0.8-16,6.1-19.5,13.7c-3.8-3.3-8.7-5.4-14.2-5.4c-0.2,0-0.4,0-0.5,0c-2.8-1.9-6.2-3-9.9-3c-9.8,0-17.8,8-17.8,17.8
c0,1.8,0.3,3.6,0.8,5.2c-2-1.1-4.3-1.7-6.8-1.7c-7.9,0-14.3,6.4-14.3,14.3c0,0,0,0.1,0,0.1c-1.6-0.3-3.3-0.5-5.1-0.5
c-13.6,0-24.6,11-24.6,24.6c0,8.8,4.6,16.5,11.5,20.8c-1.6,1.5-3.1,3.3-4.3,5.3c-12.5,2-22,12.8-22,25.9
C423.2,218.2,430.2,227.7,440,231.5z"/>
<path d="M679.8,561.7c1.3-1.4,2.3-2.9,3.2-4.6c0.4,0,0.8,0,1.3,0c21.6,0,39.2-17.5,39.2-39.2c0,0,0-0.1,0-0.1
c14.2-7.3,24-22.1,24-39.2c0-10.6-3.7-20.3-10-27.9c1.4-3.8,2.2-7.9,2.2-12.2c0-19.4-15.8-35.2-35.2-35.2c-0.1,0-0.2,0-0.3,0
c-0.2-17.4-14.3-31.4-31.7-31.4c-0.3,0-0.5,0-0.8,0c-6.8-14-21.2-23.7-37.9-23.7c-17,0-31.6,10.1-38.3,24.5
c-5.3,2.5-9.2,7.6-10.1,13.6c-0.1,0-0.1,0.1-0.2,0.1c-0.9-0.1-1.8-0.1-2.7-0.1c-11.4,0-21.4,6.4-26.4,15.8
c-13.1,0.6-23.6,11-24.3,24.1c-18,5.2-31.2,21.9-31.2,41.6c0,4.8,0.8,9.4,2.2,13.7c-1.6,4.4-2.4,9.2-2.4,14.2
c0,16.6,9.4,30.9,23.1,38.1c1.4,23.2,20.7,41.5,44.2,41.5c9.6,0,18.6-3.1,25.8-8.3c0.4,0.1,0.9,0.2,1.3,0.3
c2.7,21,20.6,37.3,42.4,37.3c23.6,0,42.8-19.1,42.8-42.8C679.8,561.8,679.8,561.7,679.8,561.7z"/>
<path d="M526.7,779.2c0.1-0.5,0.1-1.1,0.1-1.6c0-5.5-3.3-10.3-8.1-12.4c4.4-4.3,7.1-10.2,7.1-16.8c0-13-10.5-23.5-23.5-23.5
c-0.8,0-1.6,0-2.4,0.1c-1.4-3.6-3.5-6.8-6.1-9.4c0.2-1.5,0.3-3.1,0.3-4.6c0-17.5-14.2-31.6-31.6-31.6c-5,0-9.7,1.1-13.9,3.2
c-5.4-8.7-15-14.4-26-14.4c-16.9,0-30.6,13.7-30.6,30.6c0,1.5,0.1,2.9,0.3,4.4c-2.4-1.3-5.1-2.1-8-2.1c-7.6,0-14,5.1-15.9,12.1
c-4.9-3.8-11.1-6-17.8-6c-12.8,0-23.7,8.2-27.7,19.7c-2.3,1.4-4.5,3.1-6.4,5.1c-4.8,1-9.1,3.4-12.5,6.7c-6.9,0.6-12.8,4.9-15.6,10.9
c-10,4.4-17,14.5-17,26.1c0,8.2,3.5,15.6,9,20.8c-0.5,1.9-0.8,3.8-0.8,5.8c0,3.6,0.9,7.1,2.5,10.1c-5.1,5.7-8.3,13.3-8.3,21.6
c0,10.6,5.1,20,13,25.9c1.5,3,3.8,5.6,6.7,7.3c-1,2.3-1.5,4.8-1.5,7.4c0,10.1,8,18.3,18,18.8c0,0.2,0,0.3,0,0.5c0,16,13,29,29,29
c6.1,0,11.8-1.9,16.5-5.2c4.8,13.2,17.4,22.5,32.2,22.5c10.6,0,20-4.8,26.3-12.3c0.7,0.2,1.4,0.4,2.1,0.5c3.6,3.3,8.4,5.4,13.7,5.4
c6.8,0,12.8-3.4,16.5-8.5c1.1,0.5,2.2,0.9,3.3,1.3c7.3,5.5,16.3,8.8,26.1,8.8c23.9,0,43.3-19.4,43.3-43.3c0-7.1-1.7-13.8-4.7-19.7
c5.9-5.7,9.9-13.4,10.7-22c15.3-4.8,26.3-19,26.3-35.8C551.3,798.2,541,784.4,526.7,779.2z"/>
<path d="M970.5,644.6c0-15.2-11.6-27.7-26.4-29.2c-2.8-3.3-6.4-6-10.5-7.7c-3.6-11.4-14.3-19.7-27-19.7c-11.3,0-21.1,6.6-25.6,16.2
c-4.1,3.4-7.4,7.7-9.5,12.6c-1.3,1-2.5,2.2-3.4,3.6c-1.6,0.6-3.3,1.1-4.9,1.7c-0.6-0.1-1.1-0.1-1.7-0.1c-1.4,0-2.8,0.2-4.1,0.5
c-2-0.8-4.1-1.3-6.4-1.3c-5.4,0-10.1,2.6-13.1,6.6c-5.7-8-15-13.2-25.6-13.2c-15.9,0-29,11.8-31.2,27.1c-3.4,3-5.9,7-6.9,11.6
c-1.1-0.2-2.2-0.3-3.4-0.3c-11.5,0-20.8,9.3-20.8,20.8c0,0.3,0,0.5,0,0.7c-2.1-0.5-4.2-0.7-6.4-0.7c-16,0-29,13-29,29
c0,5.1,1.3,9.9,3.6,14c-3.3,4.8-5.3,10.6-5.3,16.8c0,12.4,7.6,23,18.5,27.3c-0.2,1.2-0.3,2.5-0.3,3.8c0,2.3,0.3,4.6,0.9,6.7
c-0.3,1.5-0.5,3.1-0.5,4.7c0,12.6,9.3,23.1,21.5,24.8c2.4,2,5.5,3.2,8.9,3.2c1,0,1.9-0.1,2.8-0.3c0,0.2,0,0.3,0,0.5
c0,10.6,8.6,19.2,19.2,19.2c0.4,0,0.8,0,1.2-0.1c2.8,12.6,14,22.1,27.5,22.1c9.3,0,17.5-4.5,22.6-11.4c1.4,0.2,2.8,0.3,4.2,0.3
c2.3,0,4.6-0.3,6.7-0.8c7.8,7.6,18.5,12.3,30.3,12.3c22.8,0,41.5-17.6,43.2-40c17.9-3.5,31.3-19.3,31.3-38.1
c0-6.2-1.5-12.1-4.1-17.3c8.2-4.1,13.8-12.5,13.8-22.2c0-5.3-1.7-10.3-4.6-14.3c3.5-6.1,5.5-13.2,5.5-20.7c0-8.5-2.5-16.4-6.9-22.9
C964.2,665.5,970.5,655.8,970.5,644.6z"/>
<path d="M739.2,226.3c-0.8,2.7-1.2,5.6-1.2,8.5c0,8.9,3.9,16.9,10,22.4c0,0.4,0,0.8,0,1.2c0,9,4,17,10.2,22.5
c-0.2,1.1-0.3,2.3-0.3,3.4c0,1.5,0.2,2.9,0.5,4.3c-1,3.5-1.5,7.2-1.5,11c0,22.3,18,40.3,40.3,40.3c9.9,0,18.9-3.6,25.9-9.4
c1.8,1,3.7,1.8,5.8,2.2c4.7,9.5,14.6,16.1,26,16.1c12.4,0,22.9-7.8,27.1-18.7c4.9-0.2,9.4-2.1,12.9-5.1c0.7,0,1.3,0,2,0
c24,0,43.5-19.5,43.5-43.5c0-2.2-0.2-4.3-0.5-6.4c8.3-3.7,14.2-12.1,14.2-21.8c0-7.1-3.1-13.4-7.9-17.8
c10.1-2.9,17.5-12.1,17.5-23.1c0-2.1-0.3-4.1-0.8-6.1c8-4.9,13.3-13.7,13.3-23.7c0-13.5-9.6-24.7-22.3-27.3c0-0.4-0.1-0.9-0.2-1.3
c1.7-4.4,2.7-9.2,2.7-14.2c0-21.7-17.6-39.4-39.4-39.4c-3.7,0-7.3,0.5-10.7,1.5c-6.3-5.7-14.6-9.2-23.7-9.2
c-8.1,0-15.6,2.8-21.6,7.4c-4-1.5-8.3-2.2-12.8-2.2c-20.3,0-36.8,16.3-37.1,36.5c-0.3,0.4-0.7,0.8-1,1.2c-6.4-4.4-14.1-7-22.5-7
c-20.5,0-37.4,15.6-39.4,35.6c-10.3,5.2-18,15-20.1,26.7c-1.7,3.6-2.7,7.6-2.7,11.8C725.1,212.7,730.8,221.6,739.2,226.3z"/>
<path d="M200.4,272.9c4,2.9,8.9,4.6,14.2,4.6c3.3,0,6.4-0.7,9.3-1.9c4.1,2.7,9,4.3,14.4,4.3c4,0,7.8-0.9,11.1-2.5c1.9,0.6,3.9,1,6,1
c7,0,13-3.8,16.2-9.5c4.5-1.6,8.3-4.8,10.8-8.8c2.7,1,5.7,1.5,8.7,1.5c14.4,0,26.1-11.7,26.1-26.1c0-2.6-0.4-5.2-1.1-7.6
c15.5-6.3,26.4-21.4,26.4-39.2c0-13.8-6.6-26-16.8-33.7c2.6-3.8,4.1-8.5,4.1-13.4c0-5.7-2-11-5.4-15.1c1.1-3.1,1.7-6.4,1.7-9.8
c0-11.3-6.4-21-15.7-25.9c-3.5-3.2-7.9-5.5-12.8-6.4c-3.5-4.9-8.7-8.5-14.8-9.8c-4.2-9.1-13.5-15.4-24.2-15.4
c-6.7,0-12.9,2.5-17.5,6.6c-2-0.6-4.1-0.9-6.3-0.9c-1.3,0-2.7,0.1-3.9,0.3c-0.5-0.4-1-0.7-1.5-1c-3.5-6.4-10.3-10.8-18.2-10.8
c-8.5,0-15.7,5.1-18.9,12.3c-2.7-1.2-5.6-1.9-8.8-1.9c-6.4,0-12.1,2.9-16,7.4c-4.1-1.6-8.6-2.4-13.3-2.4
c-20.9,0-37.8,16.9-37.8,37.8c0,2.5,0.3,5,0.7,7.3c-9.1,6.2-15.1,16.7-15.1,28.6c0,11.2,5.3,21.1,13.5,27.4c0,0.6,0,1.2,0,1.8
c-0.4,1.6-0.7,3.4-0.7,5.1c0,2.8,0.6,5.5,1.6,7.9c0.2,1.4,0.4,2.9,0.7,4.3c0,0.1,0.1,0.3,0.1,0.4c-9.2,5.1-15.4,15-15.4,26.3
c0,8.4,3.4,15.9,8.9,21.4c2.4,5.8,6.6,10.7,12,13.9c0.7,22.7,19.3,40.9,42.2,40.9C179.8,292,192.9,284.4,200.4,272.9z"/>
</svg>

