<?xml version="1.0" encoding="UTF-8"?>
<svg id="Layer_1" data-name="Layer 1" xmlns="http://www.w3.org/2000/svg" viewBox="0 0 267.1665 307.46446">
  <defs>
    <style>
      .cls-1 {
        fill: #fff;
      }
    </style>
  </defs>
  <g>
    <path class="cls-1" d="M62.68442,184.13999H28.60239c-6.62744,0-12-5.37305-12-12,0-36.74805,7.58252-60.70605,24.58594-77.68066,10.69531-10.67676,24.62744-17.80957,42.59277-21.80859,6.66553-1.4834,14.00537-2.56641,22.28418-3.28223,5.68359-10.09863,14.33594-18.16113,24.71973-23.12109-18.13135,2.49316-26.16895,.76855-30.80957-.9668-2.55322-.9541-10.31738-3.85742-14.25049-11.41113-2.50391-4.80859-2.88477-10.42285-1.07373-15.80762,2.04443-6.07715,6.75537-11.35645,12.60156-14.12109C103.66148,.91147,111.42222-.35415,120.97349,.08237c2.50146,.11328,9.87012,.44824,34.03076,8.06055C179.16489,.53061,186.53306,.19565,189.03306,.08237c9.55713-.43359,17.31348,.82812,23.7207,3.85742,5.84766,2.76562,10.55859,8.04492,12.60303,14.12207,.76514,2.27539,1.13916,4.5918,1.12695,6.87012h28.68262c6.62744,0,12,5.37305,12,12v120.52441c0,6.62695-5.37256,12-12,12h-34.08203c-6.62744,0-12-5.37305-12-12v-31.18359l-6.19629,.00781c-10.10742,16.50488-28.13379,26.80078-47.88379,26.80078-19.15869,0-36.82471-9.79199-47.07959-25.53906-13.13623,1.40332-21.7666,4.09473-25.70166,8.02246-3.43945,3.43359-7.53857,12.56445-7.53857,36.5752,0,6.62695-5.37256,12-12,12Zm-21.75439-24h10.09424c1.21777-20.02637,5.74854-33.08203,14.24316-41.56055,9.26562-9.25,24.26953-14.06738,48.64941-15.62012,4.99854-.32129,9.6709,2.50293,11.7168,7.07617,5.1748,11.57031,16.70312,19.0459,29.37061,19.0459,12.89111,0,24.5-7.66016,29.5752-19.51465,1.88818-4.40918,6.22021-7.27148,11.0166-7.27734l25.47314-.03223c3.146-.00684,6.2417,1.25781,8.49512,3.50977,2.25342,2.25,3.52002,5.30469,3.52002,8.49023v31.19922h10.08203V48.93198h-10.08203v31.24316c0,6.62109-5.36328,11.99121-11.98486,12l-25.20557,.03223h-.01514c-4.87061,0-9.25879-2.94434-11.10498-7.45215-3.94629-9.6377-12.33789-16.79492-22.44678-19.14551-3.09521-.7207-5.67529-2.60059-7.32324-5.11816-1.64795,2.5166-4.22803,4.39746-7.32275,5.11719-10.30371,2.39746-18.76416,9.72461-22.63184,19.60156-1.70752,4.36133-5.79688,7.33105-10.47266,7.60449-9.96924,.58301-18.33691,1.65039-25.58203,3.2627-13.38428,2.97949-23.47607,8.00586-30.85059,15.36719-10.41797,10.40039-15.87939,25.67383-17.21387,48.69531ZM221.08433,80.17514h0Zm-41.88379-33.93066c9.96826,4.7666,18.36719,12.4082,24.05713,21.95312l5.82666-.00684v-22.57324c-4.78076,1.60547-12.91357,2.96484-29.88379,.62695Z"/>
    <path class="cls-1" d="M45.64341,307.46421C20.47544,307.46421-.00015,286.98862-.00015,261.82065-.00015,251.28354,6.30405,237.87729,19.27231,220.8353c8.7334-11.47656,17.36572-20.46484,17.729-20.8418,2.26221-2.34863,5.38184-3.6748,8.64209-3.6748s6.37988,1.32617,8.64209,3.6748c.36328,.37695,8.99561,9.36523,17.729,20.8418,12.96826,17.04199,19.27197,30.44824,19.27197,40.98535,0,25.16797-20.47559,45.64355-45.64307,45.64355Zm.02588-81.24707c-11.55908,13.66699-21.66943,29.02246-21.66943,35.60352,0,11.93457,9.70947,21.64355,21.64355,21.64355s21.64307-9.70898,21.64307-21.64355c0-5.51074-8.39453-20.05859-21.61719-35.60352Z"/>
  </g>
  <g>
    <path class="cls-1" d="M221.08447,36.93175v43.24316l-25.20581,.03271c-5.35791-13.08447-16.81226-23.02539-30.83325-26.28613V31.55675c14.76904,3.09961,32.36743,5.63037,40.78564,2.4834,3.09229-1.15576,6.28418-2.78467,7.80859-5.71289,2.54834-4.89404-1.02588-11.17969-6.01465-13.53857-5.00928-2.36816-11.32642-3.02393-18.04688-2.71875-7.45776,.33838-23.02222,4.93848-34.57397,8.66895-11.55176-3.73047-27.11646-8.33057-34.57422-8.66895-6.72046-.30518-13.03735,.35059-18.04688,2.71875-4.98853,2.35889-8.56299,8.64453-6.0144,13.53857,1.52441,2.92822,4.71582,4.55713,7.80811,5.71289,8.41846,3.14697,26.01709,.61621,40.78564-2.4834v22.36475c-14.24463,3.31299-25.84229,13.52002-31.08691,26.91406-10.67871,.62451-19.66016,1.78662-27.48682,3.52832-15.67554,3.48877-27.6875,9.56885-36.72217,18.58789-14.56763,14.54248-21.06421,35.88086-21.06421,69.18848H62.68433c0-23.21436,3.5144-37.53516,11.06079-45.06787,6.94702-6.93506,19.6084-10.77881,40.93433-12.13721,6.8916,15.40869,22.35352,26.146,40.32471,26.146,18.22095,0,33.86255-11.03809,40.60718-26.7915l25.47314-.03271v43.19971h34.08203V36.93175h-34.08203Z"/>
    <path class="cls-1" d="M12,261.82091c0,18.58105,15.06274,33.64355,33.64355,33.64355s33.64307-15.0625,33.64307-33.64355-33.64307-53.50195-33.64307-53.50195c0,0-33.64355,34.92139-33.64355,53.50195Z"/>
  </g>
  <g>
    <path d="M221.08447,36.93175v43.24316l-25.20581,.03271c-5.35791-13.08447-16.81226-23.02539-30.83325-26.28613V31.55675c14.76904,3.09961,32.36743,5.63037,40.78564,2.4834,3.09229-1.15576,6.28418-2.78467,7.80859-5.71289,2.54834-4.89404-1.02588-11.17969-6.01465-13.53857-5.00928-2.36816-11.32642-3.02393-18.04688-2.71875-7.45776,.33838-23.02222,4.93848-34.57397,8.66895-11.55176-3.73047-27.11646-8.33057-34.57422-8.66895-6.72046-.30518-13.03735,.35059-18.04688,2.71875-4.98853,2.35889-8.56299,8.64453-6.0144,13.53857,1.52441,2.92822,4.71582,4.55713,7.80811,5.71289,8.41846,3.14697,26.01709,.61621,40.78564-2.4834v22.36475c-14.24463,3.31299-25.84229,13.52002-31.08691,26.91406-10.67871,.62451-19.66016,1.78662-27.48682,3.52832-15.67554,3.48877-27.6875,9.56885-36.72217,18.58789-14.56763,14.54248-21.06421,35.88086-21.06421,69.18848H62.68433c0-23.21436,3.5144-37.53516,11.06079-45.06787,6.94702-6.93506,19.6084-10.77881,40.93433-12.13721,6.8916,15.40869,22.35352,26.146,40.32471,26.146,18.22095,0,33.86255-11.03809,40.60718-26.7915l25.47314-.03271v43.19971h34.08203V36.93175h-34.08203Z"/>
    <path d="M12,261.82091c0,18.58105,15.06274,33.64355,33.64355,33.64355s33.64307-15.0625,33.64307-33.64355-33.64307-53.50195-33.64307-53.50195c0,0-33.64355,34.92139-33.64355,53.50195Z"/>
  </g>
</svg>