<?xml version="1.0" encoding="UTF-8"?>
<svg id="Layer_1" data-name="Layer 1" xmlns="http://www.w3.org/2000/svg" viewBox="0 0 14.17323 11.33858">
  <defs>
    <style>
      .cls-1 {
        fill: none;
      }

      .cls-2 {
        fill: #fff;
      }

      .cls-3 {
        fill: #a1cfe8;
      }
    </style>
  </defs>
  <rect class="cls-3" width="14.17999" height="11.33997"/>
  <path class="cls-2" d="M9.92999,11.33997l-.16998-.19c1.19-1.09998,2.16998-1.45996,3.07996-1.14996,.49005,.16998,.91003,.59998,1.34003,1.06v.27997h-.42999c-.38-.38995-.72003-.73999-1.08002-.84998-.65997-.23999-1.41998,.02997-2.35999,.84998"/>
  <g>
    <path class="cls-2" d="M.27997,11.33997h-.27997v-.27997c.01996,.01001,.02997,.02997,.03998,.03998l.23999,.23999Z"/>
    <path class="cls-2" d="M4.26996,11.33997h-.41998c.08002-.06,.16003-.13,.23999-.19995l.17999,.19995Z"/>
  </g>
  <path class="cls-2" d="M11.51001,5.84998c-.97003,.87-1.74005,1.27002-2.48004,1.27002-.22998,0-.45996-.04004-.69-.12-.60999-.20001-1.09998-.72003-1.57996-1.22003-.40002-.42999-.79004-.83997-1.17004-.95996-.71997-.25-1.53998,.07996-2.57996,1.02997l-.34003-.37c1.19-1.09998,2.16998-1.46002,3.08002-1.15002,.51001,.17004,.92999,.62006,1.38,1.10004,.42999,.45001,.88,.92999,1.37,1.08997,.76996,.25,1.54999-.04999,2.67999-1.04999l.33002,.38Z"/>
  <g>
    <path class="cls-2" d="M10.31,0c-.07001,.04999-.14001,.10999-.21002,.17999l-.16998-.17999h.38Z"/>
    <path class="cls-2" d="M14.17999,0V.45001c-.10999-.11005-.22003-.23004-.33002-.34003-.03998-.03998-.07001-.07001-.09998-.10999h.42999Z"/>
  </g>
  <path class="cls-2" d="M4.42999,.19c-.97998,.85999-1.73999,1.26001-2.47998,1.26001-.24005,0-.47003-.04004-.70001-.12006-.47003-.14996-.87-.5-1.25-.87994v-.45001H.27997c.36005,.37,.73004,.71997,1.13,.84998,.72003,.23999,1.44-.01001,2.44-.84998h.41003l.16998,.19Z"/>
  <g>
    <path class="cls-1" d="M.03998,11.09998l.23999,.23999h-.27997v-.27997c.01996,.01001,.02997,.02997,.03998,.03998Z"/>
    <path class="cls-1" d="M4.42999,.19c-.97998,.85999-1.73999,1.26001-2.47998,1.26001-.24005,0-.47003-.04004-.70001-.12006-.47003-.14996-.87-.5-1.25-.87994v-.45001H.27997c.36005,.37,.73004,.71997,1.13,.84998,.72003,.23999,1.44-.01001,2.44-.84998h.41003l.16998,.19Z"/>
    <path class="cls-1" d="M4.08997,11.14001l.17999,.19995h-.41998c.08002-.06,.16003-.13,.23999-.19995Z"/>
    <path class="cls-1" d="M11.51001,5.84998c-.97003,.87-1.74005,1.27002-2.48004,1.27002-.22998,0-.45996-.04004-.69-.12-.60999-.20001-1.09998-.72003-1.57996-1.22003-.40002-.42999-.79004-.83997-1.17004-.95996-.71997-.25-1.53998,.07996-2.57996,1.02997l-.34003-.37c1.19-1.09998,2.16998-1.46002,3.08002-1.15002,.51001,.17004,.92999,.62006,1.38,1.10004,.42999,.45001,.88,.92999,1.37,1.08997,.76996,.25,1.54999-.04999,2.67999-1.04999l.33002,.38Z"/>
    <path class="cls-1" d="M10.09998,.17999l-.16998-.17999h.38c-.07001,.04999-.14001,.10999-.21002,.17999Z"/>
    <path class="cls-1" d="M14.17999,11.06v.27997h-.42999c-.38-.38995-.72003-.73999-1.08002-.84998-.65997-.23999-1.41998,.02997-2.35999,.84998h-.38l-.16998-.19c1.19-1.09998,2.16998-1.45996,3.07996-1.14996,.49005,.16998,.91003,.59998,1.34003,1.06Z"/>
    <path class="cls-1" d="M14.17999,0V.45001c-.10999-.11005-.22003-.23004-.33002-.34003-.03998-.03998-.07001-.07001-.09998-.10999h.42999Z"/>
  </g>
</svg>